<?xml version="1.0" standalone="no"?>
<!DOCTYPE svg PUBLIC "-//W3C//DTD SVG 1.1//EN" "http://www.w3.org/Graphics/SVG/1.1/DTD/svg11.dtd" >
<svg xmlns="http://www.w3.org/2000/svg" xmlns:xlink="http://www.w3.org/1999/xlink" version="1.1">
<metadata>
Created by FontForge 20170924 at Fri Jul  8 04:44:58 2022
 By www-data
Perspectype Studio 2021. All Rights Reserved
</metadata>
<defs>
<font id="Pasthelo" horiz-adv-x="800" >
  <font-face 
    font-family="Pasthelo"
    font-weight="400"
    font-stretch="normal"
    units-per-em="1000"
    panose-1="2 0 6 0 0 0 0 0 0 0"
    ascent="800"
    descent="-200"
    x-height="341"
    cap-height="748"
    bbox="-149 -467 1320 1127"
    underline-thickness="50"
    underline-position="-75"
    unicode-range="U+0020-FB02"
  />
<missing-glyph horiz-adv-x="452" 
d="M452 0h-402v700h402v-700zM428 24v652h-354v-652h354zM234 222h-15c-12 31 -17 55 -17 72c0 25 13 60 39 106c27 47 40 82 40 106c0 37 -22 60 -60 60c-24 0 -40 -9 -61 -27v22c29 26 55 35 83 35c58 0 99 -31 99 -85c0 -33 -14 -62 -53 -112c-21 -26 -37 -47 -49 -64
c-11 -17 -17 -33 -17 -48c0 -13 4 -34 11 -65zM229 104c-4 0 -7 2 -10 5l-30 35c-2 2 -3 5 -3 8c0 4 1 7 5 11l28 28c3 4 7 5 10 5s6 -2 10 -5l28 -29c3 -4 4 -7 4 -10c0 -4 -2 -7 -5 -11l-27 -30c-5 -5 -8 -7 -10 -7z" />
    <glyph glyph-name="f_f" unicode="ff" horiz-adv-x="692" 
d="M424 322c-1 -24 -2 -43 -22 -54c-6 -4 -13 -5 -19 -5c-12 0 -24 7 -35 14c-8 4 -14 10 -21 16s-12 10 -16 10c-5 0 -8 -5 -13 -16c-6 -14 -12 -28 -17 -42c-12 -36 -23 -72 -30 -109c-1 -6 -2 -10 -2 -14c0 -5 2 -8 7 -8c3 0 9 2 16 4c14 5 29 10 44 12c5 1 10 1 15 1
c16 0 31 -4 46 -13s23 -22 23 -36c0 -9 -4 -19 -11 -28c-13 -16 -31 -27 -50 -34c-29 -12 -57 -24 -86 -34c-14 -6 -20 -15 -21 -31c0 -60 2 -121 9 -181c5 -39 8 -79 8 -119v-27c0 -9 1 -18 9 -26c3 -3 4 -6 4 -8c0 -6 -5 -10 -11 -13c-7 -4 -15 -6 -22 -6
c-9 0 -18 3 -27 9c-15 10 -27 24 -37 40c-22 35 -30 75 -37 116c-8 51 -10 103 -13 155c-1 15 -5 24 -19 31c-22 11 -34 31 -34 51c0 17 8 34 25 45c26 16 34 36 38 65c11 88 32 175 71 256c11 22 25 42 44 58c22 18 45 28 69 28c14 0 28 -3 43 -10c42 -20 71 -52 72 -97z
M635 310c-2 -12 -7 -18 -15 -18c-3 0 -7 1 -12 3c-10 4 -16 7 -20 7c-6 0 -9 -6 -14 -21c-14 -41 -19 -83 -23 -125c-2 -16 -4 -32 -4 -47c0 -4 -1 -7 -1 -10c0 -9 3 -13 10 -13c4 0 8 1 14 2c12 3 24 4 35 4c15 0 30 -2 44 -7c9 -4 19 -8 26 -15c9 -8 13 -17 13 -26
c0 -8 -4 -17 -13 -25c-24 -21 -51 -35 -81 -44c-10 -3 -21 -7 -31 -10c-12 -3 -18 -10 -18 -21v-3c1 -38 0 -77 3 -115c3 -36 4 -73 4 -109c0 -37 -1 -73 -6 -110c-2 -12 -7 -19 -17 -19c-2 0 -4 1 -7 1c-16 3 -28 13 -38 26c-17 21 -28 44 -35 69c-12 44 -16 89 -18 133
c-1 24 0 48 -4 71c-1 7 -3 11 -8 11c-2 0 -4 -1 -6 -2c-14 -6 -28 -9 -44 -9c-31 2 -50 22 -50 47c0 9 2 18 7 27c8 18 23 31 40 41c13 8 26 16 39 22c16 7 21 18 22 35c3 52 5 105 14 157c7 50 16 100 42 144c10 19 24 35 42 47c14 8 28 12 41 12c32 0 60 -23 66 -61l3 -21
v-28z" />
    <glyph glyph-name="t_h" unicode="th" horiz-adv-x="802" 
d="M432 66c14 21 28 42 41 64c47 81 105 154 162 229c19 25 41 36 63 36c30 0 58 -20 72 -50c15 -33 20 -68 22 -104c3 -50 3 -100 5 -151l3 -42c1 -8 1 -16 1 -24c0 -17 -2 -34 -5 -51c-2 -9 -5 -19 -9 -27c-9 -15 -21 -22 -34 -22c-9 0 -17 3 -26 9c-17 12 -27 29 -33 48
c-7 22 -10 45 -11 67c-2 50 -4 100 -6 149c-1 20 -3 41 -4 61c-1 6 0 12 -6 15c-1 1 -3 1 -4 1c-5 0 -9 -5 -12 -9c-24 -21 -45 -44 -63 -70c-52 -79 -97 -162 -121 -255c-3 -10 -6 -20 -10 -29c-10 -23 -28 -38 -54 -39h-5c-25 0 -43 13 -56 34c-8 12 -12 26 -15 39
c-9 39 -14 78 -18 117c-4 45 -6 91 -6 137c0 37 1 74 2 111c0 16 3 33 3 49v6c0 10 -2 14 -11 14c-3 0 -7 0 -11 -1h-2c-30 -4 -29 -4 -31 -33c-4 -47 -5 -95 -5 -143c0 -28 1 -57 1 -86c1 -41 5 -82 5 -123c0 -17 -2 -34 -2 -51c0 -9 0 -17 2 -26v-4c0 -13 -13 -23 -27 -23
c-3 0 -5 1 -7 1c-17 4 -30 15 -40 29c-19 24 -30 51 -36 81c-6 28 -8 56 -10 84c-2 39 -3 77 -3 116c0 35 1 70 3 104v32c0 18 -3 22 -30 22c-7 0 -13 3 -19 4c-16 5 -27 15 -31 33c-1 3 -1 7 -1 10c0 13 6 24 17 34c15 12 32 20 50 25c20 5 29 15 29 36c0 17 3 35 5 52
c1 9 2 19 5 28c8 24 31 40 54 40h6c28 -3 48 -22 52 -50c1 -5 1 -10 1 -16c0 -7 0 -14 -1 -22c-2 -7 -2 -15 -3 -23c0 -6 2 -12 8 -13c4 -1 9 -1 13 -1c9 0 18 2 27 5s10 11 11 19c2 13 4 27 7 40c2 11 5 21 12 30c12 17 30 27 49 27c5 0 10 -1 15 -2c25 -8 42 -32 42 -59
c0 -12 -4 -23 -7 -35c-1 -5 -2 -9 -2 -12c0 -11 6 -14 22 -16c30 -3 59 -10 87 -20c12 -4 22 -9 31 -17c6 -5 11 -10 11 -17c0 -2 0 -3 -1 -5c-2 -10 -11 -10 -19 -11c-42 -8 -84 -20 -127 -23c-13 -1 -17 -8 -19 -19c-6 -31 -5 -62 -7 -92c-2 -23 -2 -46 -2 -69
c0 -48 3 -96 6 -143c0 -4 1 -7 7 -10z" />
    <glyph glyph-name="t_t" unicode="tt" horiz-adv-x="475" 
d="M254 246c-1 -14 -1 -28 -1 -41c0 -47 3 -90 5 -133v-35c0 -33 -1 -66 -7 -99c-1 -4 -1 -9 -1 -14c-1 -16 -9 -26 -22 -26c-4 0 -8 1 -13 3c-18 7 -29 21 -38 37c-15 24 -24 50 -29 77c-5 33 -9 66 -9 99c-1 46 -2 93 -2 140c0 22 0 43 1 65v19c0 10 -6 14 -15 14h-29
c-22 1 -36 15 -36 33c0 6 2 13 5 20c4 9 9 17 16 23c10 10 20 20 32 24c30 8 36 29 36 55c0 11 0 22 1 33c1 9 1 18 3 26c7 29 30 47 56 47h4c29 -3 50 -24 52 -55v-52c0 -16 4 -19 20 -19c10 0 15 4 17 15c3 21 4 42 4 63c0 16 3 30 10 44c10 20 29 32 50 32h3
c23 -2 44 -18 51 -40c3 -11 4 -21 4 -32v-10c-2 -23 -2 -46 -5 -68c0 -2 -1 -5 -1 -7c0 -9 4 -15 15 -20c12 -4 21 -12 29 -23c5 -7 8 -14 8 -20c0 -11 -8 -21 -23 -25c-11 -4 -25 -2 -33 -12c-3 -5 -4 -11 -4 -17v-17c-3 -53 -5 -106 -5 -158c0 -58 2 -116 4 -173v-14
c0 -33 -3 -68 -12 -101c-5 -16 -14 -25 -26 -25c-7 0 -14 3 -21 8c-13 9 -22 22 -30 36c-19 37 -26 77 -28 118c-3 49 -5 98 -5 147c0 18 0 36 1 54c1 33 2 66 4 99v17c0 7 0 15 -9 16h-4c-9 0 -16 -3 -20 -12c-3 -7 -3 -15 -3 -23v-93z" />
    <glyph glyph-name=".notdef" horiz-adv-x="452" 
d="M452 0h-402v700h402v-700zM428 24v652h-354v-652h354zM234 222h-15c-12 31 -17 55 -17 72c0 25 13 60 39 106c27 47 40 82 40 106c0 37 -22 60 -60 60c-24 0 -40 -9 -61 -27v22c29 26 55 35 83 35c58 0 99 -31 99 -85c0 -33 -14 -62 -53 -112c-21 -26 -37 -47 -49 -64
c-11 -17 -17 -33 -17 -48c0 -13 4 -34 11 -65zM229 104c-4 0 -7 2 -10 5l-30 35c-2 2 -3 5 -3 8c0 4 1 7 5 11l28 28c3 4 7 5 10 5s6 -2 10 -5l28 -29c3 -4 4 -7 4 -10c0 -4 -2 -7 -5 -11l-27 -30c-5 -5 -8 -7 -10 -7z" />
    <glyph glyph-name="space" unicode=" " horiz-adv-x="279" 
 />
    <glyph glyph-name="space" unicode="&#xa0;" horiz-adv-x="279" 
 />
    <glyph glyph-name="exclam" unicode="!" horiz-adv-x="184" 
d="M51 345c0 75 4 140 8 205c2 25 2 50 3 75c0 13 1 25 4 38c8 25 30 43 56 43c25 0 47 -17 55 -44c3 -10 4 -21 4 -31c0 -12 -1 -25 -2 -37c-2 -37 -5 -75 -7 -113c-3 -51 -5 -102 -6 -153c-1 -54 -5 -108 -12 -162c-2 -11 -2 -22 -3 -33c-1 -10 -6 -16 -14 -16
c-2 0 -5 1 -9 2c-17 5 -29 16 -38 30c-16 22 -24 46 -30 71c-8 38 -9 74 -9 106v19zM55 -21c1 37 26 65 57 65h5c33 -2 63 -36 63 -69c0 -2 -1 -5 -1 -7c-1 -7 -4 -15 -7 -22c-11 -22 -29 -35 -54 -36h-3c-22 0 -37 13 -49 31c-8 12 -11 26 -11 38z" />
    <glyph glyph-name="quotedbl" unicode="&#x22;" horiz-adv-x="326" 
d="M194 719c1 5 1 14 3 22c6 25 27 41 50 41c11 0 21 -3 31 -10c15 -10 25 -24 29 -42c5 -20 8 -40 8 -59c0 -54 -20 -103 -58 -147c-6 -8 -15 -17 -25 -17c-2 0 -3 1 -5 1c-12 3 -12 17 -14 28c-7 39 -13 78 -14 119c0 20 -3 40 -5 64zM50 719c1 5 1 14 3 22
c6 25 27 41 50 41c11 0 21 -3 31 -10c15 -10 25 -24 29 -42c5 -20 8 -40 8 -59c0 -54 -20 -103 -58 -147c-6 -8 -15 -17 -25 -17c-2 0 -3 1 -5 1c-12 3 -12 17 -14 28c-7 39 -13 78 -14 119c0 20 -3 40 -5 64z" />
    <glyph glyph-name="numbersign" unicode="#" horiz-adv-x="594" 
d="M502 554c-2 -33 -5 -68 -7 -102c0 -5 -1 -9 -1 -11c0 -10 4 -11 19 -16c15 -4 29 -10 43 -19c12 -7 21 -16 27 -28c3 -6 4 -12 4 -17c0 -16 -11 -30 -30 -31c-17 -2 -34 -1 -50 -2c-16 0 -18 -3 -19 -17c-2 -33 -2 -67 -4 -100v-3c0 -11 5 -19 17 -23s23 -11 33 -19
c7 -6 13 -12 17 -20c2 -5 4 -9 4 -13c0 -8 -5 -14 -16 -19c-13 -4 -26 -8 -39 -11c-11 -3 -17 -10 -17 -22v-13c0 -53 -10 -104 -14 -156c-1 -13 -6 -19 -15 -19c-3 0 -8 1 -13 3c-12 5 -21 14 -28 24c-14 19 -24 41 -30 64c-8 29 -12 58 -14 88c-2 17 -3 19 -20 19
c-14 1 -29 1 -44 1s-29 0 -44 -1c-18 -1 -21 -4 -23 -22c-3 -27 -6 -54 -8 -80c0 -4 -1 -8 -1 -12s1 -8 1 -12v-5c0 -9 -5 -14 -13 -14c-3 0 -6 1 -9 2c-14 5 -22 16 -28 28c-9 16 -15 33 -21 50c-3 9 -5 18 -7 28c-6 25 -8 29 -25 29h-8c-1 0 -2 0 -3 1
c-27 4 -49 22 -53 43c-1 3 -1 6 -1 9c0 19 13 38 35 50c3 2 6 4 9 4c19 4 26 15 26 32v73c0 21 -1 22 -20 24c-12 2 -24 3 -35 8c-14 6 -23 17 -23 30c0 5 1 9 3 14c5 15 15 26 28 33c10 7 21 13 32 16c17 5 21 16 21 32c-1 12 -1 24 -1 36c1 11 2 22 7 32
c10 20 25 32 48 33c24 0 41 -10 52 -30c9 -17 11 -35 12 -53c1 -27 2 -27 29 -27c24 1 49 1 73 1c17 1 19 3 20 20l9 105c1 11 3 22 7 32c11 23 30 36 52 36h2c24 -1 43 -16 51 -42c3 -9 3 -17 3 -27v-14zM368 270h2v48c0 7 -4 10 -12 10h-26c-22 0 -44 0 -66 -4
c-9 -1 -14 -5 -15 -15c-3 -28 -4 -56 -4 -84c0 -12 5 -18 17 -18h88c12 0 16 7 16 18v45z" />
    <glyph glyph-name="dollar" unicode="$" horiz-adv-x="545" 
d="M337 494c1 -51 6 -102 6 -154v-16c0 -14 8 -21 21 -26c35 -12 71 -23 103 -42c10 -6 19 -14 28 -22c25 -24 37 -52 37 -81c0 -25 -9 -50 -28 -73c-24 -29 -53 -52 -86 -70c-14 -7 -27 -15 -42 -21c-18 -7 -25 -18 -25 -37c-1 -23 -3 -46 -3 -69v-11c0 -6 0 -12 -6 -15
c-2 -1 -3 -1 -5 -1c-4 0 -8 3 -11 7c-14 14 -22 32 -29 51c-6 12 -6 27 -17 35c-4 3 -8 4 -13 4c-8 0 -17 -4 -26 -4c-5 0 -10 -1 -15 -1c-24 0 -46 5 -67 18c-16 10 -25 25 -25 41c0 6 2 12 4 18c3 11 6 15 13 15c3 0 7 -1 12 -3c4 -1 7 -2 10 -2c5 0 9 1 13 3
c19 7 37 14 55 21c11 4 15 10 15 20v3c-5 42 -10 83 -15 125c-1 11 -9 15 -18 18c-27 11 -53 22 -77 36c-30 18 -57 40 -73 72c-12 23 -18 47 -18 70c0 16 3 33 8 49c11 39 33 71 59 101c23 26 47 51 76 71c13 9 23 20 27 37c3 11 9 21 18 29c10 9 21 15 33 15
c7 0 15 -3 23 -8c10 -7 19 -9 28 -9c5 0 9 0 14 1c9 2 17 3 26 3c15 0 29 -3 44 -8c23 -9 41 -24 49 -48c3 -7 4 -14 4 -20c0 -14 -6 -27 -17 -39c-10 -12 -23 -17 -37 -17c-6 0 -13 1 -19 3c-9 3 -17 8 -27 9h-6c-15 0 -20 -6 -21 -23v-55zM219 482c-9 -3 -13 -9 -17 -15
c-6 -8 -13 -17 -18 -27c-8 -14 -11 -25 -11 -36c0 -16 10 -29 32 -42c5 -3 9 -8 14 -8c2 0 3 1 5 2c3 2 4 5 4 8c0 4 -1 8 -2 12c-3 18 -3 36 -3 55v27c-1 8 1 16 -4 24zM354 109c20 8 35 20 49 32c3 3 5 6 5 9s-2 6 -6 8c-12 8 -26 13 -39 17c-3 1 -5 2 -7 2
c-5 0 -8 -5 -8 -12c0 -18 0 -36 6 -56z" />
    <glyph glyph-name="percent" unicode="%" horiz-adv-x="593" 
d="M114 -57c1 40 16 78 31 115c27 65 62 125 99 185c64 101 127 203 197 299c11 15 22 30 35 42c6 7 13 13 22 17c7 3 14 5 20 5c9 0 17 -3 24 -10c9 -8 13 -18 13 -28c0 -5 -1 -10 -3 -15c-5 -15 -14 -28 -23 -41c-24 -35 -47 -69 -71 -103c-92 -136 -184 -271 -276 -406
c-16 -24 -32 -47 -45 -72c-3 -4 -5 -8 -8 -12c-2 -2 -3 -4 -6 -4h-2c-4 0 -6 4 -6 8c-1 7 -1 13 -1 20zM327 484c-6 -50 -25 -98 -65 -135c-26 -23 -54 -33 -80 -33c-57 0 -107 45 -117 92c-5 22 -8 44 -8 65c0 41 10 81 28 119c8 17 18 32 35 40c11 5 21 8 32 8
c14 0 28 -5 40 -17c7 -7 13 -12 23 -12c2 0 4 0 6 1c1 1 3 1 5 1c3 0 7 -2 11 -3c46 -12 90 -70 90 -121v-5zM173 468c0 -18 7 -40 13 -61c5 -14 11 -21 21 -21c5 0 11 2 18 6c24 13 36 35 41 62c1 5 1 10 1 15c0 38 -26 63 -50 90c-1 2 -3 2 -5 2s-5 -1 -7 -4
c-21 -24 -32 -52 -32 -89zM344 47c4 49 14 92 36 132c11 19 25 33 45 40c8 3 16 5 24 5c18 0 34 -8 46 -24c7 -10 16 -15 28 -19c38 -12 61 -42 61 -79c0 -8 -1 -16 -3 -24c-15 -54 -40 -101 -91 -129c-17 -9 -35 -14 -51 -14c-25 0 -48 10 -67 28c-24 25 -28 56 -28 84z
M461 34c1 -17 6 -25 17 -25c4 0 10 1 17 4c26 11 42 31 48 57c2 7 2 13 2 19c0 20 -8 38 -26 52c-4 3 -6 4 -9 4c-4 0 -7 -2 -11 -6c-28 -26 -35 -60 -38 -91v-14z" />
    <glyph glyph-name="ampersand" unicode="&#x26;" horiz-adv-x="605" 
d="M327 691c29 -1 58 -5 85 -17c51 -23 79 -66 79 -120c0 -8 -1 -16 -2 -25c-6 -37 -20 -71 -39 -103c-38 -64 -83 -122 -131 -179c-12 -14 -18 -21 -18 -27s8 -11 21 -25c2 -2 5 -4 7 -6c7 -6 11 -9 16 -9c4 0 8 2 15 7c20 14 39 29 59 43c33 24 68 46 104 66
c7 4 15 8 23 11c5 2 11 6 17 6c2 0 5 0 7 -3c2 -2 2 -4 2 -6c0 -6 -7 -11 -10 -16c-6 -8 -13 -14 -19 -21c-38 -40 -80 -76 -123 -111c-11 -8 -16 -13 -16 -18c0 -4 6 -8 18 -15c42 -23 84 -44 129 -60c10 -3 19 -7 28 -13c14 -11 23 -25 23 -43c0 -4 0 -7 -1 -11
c-4 -22 -17 -38 -39 -45c-6 -2 -12 -3 -18 -3c-12 0 -23 3 -33 7c-66 23 -128 54 -186 91c-11 7 -16 12 -21 12s-11 -4 -22 -13c-25 -20 -51 -37 -79 -52c-15 -9 -31 -16 -48 -20c-6 -1 -11 -2 -16 -2c-30 0 -50 21 -51 54v5c0 14 4 29 8 43c10 36 27 69 44 102
c9 17 13 24 13 31s-5 13 -16 30c-30 47 -54 96 -64 151c-3 16 -5 32 -5 48c0 104 64 199 164 237c16 6 31 11 48 14c13 2 28 5 42 5h5zM324 573c-71 0 -139 -59 -139 -138c0 -11 1 -22 4 -34c6 -26 17 -51 30 -74c4 -6 6 -9 9 -9c2 0 5 3 9 8c22 30 45 60 67 91
c21 28 41 56 55 87c6 13 11 25 13 38c1 3 1 6 1 9c0 10 -5 16 -18 19c-9 2 -18 2 -28 3h-3zM179 57c23 11 42 26 61 40c4 3 5 5 5 8s-3 7 -7 9c-4 3 -8 10 -13 10c-3 0 -5 -2 -8 -5c-15 -19 -29 -39 -38 -62z" />
    <glyph glyph-name="quotesingle" unicode="'" horiz-adv-x="182" 
d="M50 719c1 5 1 14 3 22c6 25 27 41 50 41c11 0 21 -3 31 -10c15 -10 25 -24 29 -42c5 -20 8 -40 8 -59c0 -54 -20 -103 -58 -147c-6 -8 -15 -17 -25 -17c-2 0 -3 1 -5 1c-12 3 -12 17 -14 28c-7 39 -13 78 -14 119c0 20 -3 40 -5 64z" />
    <glyph glyph-name="parenleft" unicode="(" horiz-adv-x="405" 
d="M323 -189c-42 0 -78 15 -110 37c-60 42 -98 100 -122 167c-22 61 -33 123 -33 186c0 49 7 98 18 147c17 77 45 151 77 223c26 56 55 111 90 163c10 14 21 28 35 38c12 10 26 16 41 16c7 0 14 -1 21 -4c25 -8 40 -31 40 -54c0 -12 -5 -25 -15 -35
c-42 -41 -66 -92 -91 -143c-34 -68 -61 -138 -80 -212c-12 -46 -18 -91 -18 -135c0 -73 16 -145 51 -214c14 -27 26 -54 43 -78c25 -36 56 -60 101 -60h19c6 0 11 -1 13 -8v-3c0 -8 -10 -11 -16 -15c-21 -10 -43 -15 -64 -16z" />
    <glyph glyph-name="parenright" unicode=")" horiz-adv-x="404" 
d="M132 788c42 -1 77 -15 110 -38c60 -41 97 -99 122 -167c22 -61 32 -123 32 -186c0 -48 -6 -97 -17 -146c-17 -78 -46 -151 -78 -223c-25 -57 -55 -112 -90 -163c-9 -15 -20 -28 -34 -39c-13 -10 -27 -15 -42 -15c-6 0 -13 1 -20 3c-25 9 -40 32 -40 54c0 13 5 26 15 36
c42 41 66 92 91 142c34 68 61 139 80 212c12 46 18 91 18 136c0 73 -16 144 -51 213c-14 27 -26 54 -44 79c-25 36 -56 60 -102 60h-8c-3 0 -6 -1 -9 -1c-6 0 -12 2 -13 9v2c0 8 10 11 16 15c21 11 43 15 64 17z" />
    <glyph glyph-name="asterisk" unicode="*" horiz-adv-x="553" 
d="M347 725c9 0 10 6 13 11c5 8 9 16 15 24c11 17 25 26 41 26c5 0 9 -1 13 -2c22 -6 36 -22 39 -45c1 -6 2 -13 2 -19c0 -20 -6 -38 -17 -56c-12 -18 -27 -33 -42 -48c-4 -4 -10 -7 -12 -14c3 -8 11 -10 18 -13c38 -21 75 -44 117 -57c3 -1 6 -3 8 -4c5 -4 8 -8 8 -12
c0 -3 -3 -7 -8 -10c-13 -8 -28 -12 -42 -15c-20 -4 -40 -6 -59 -6c-24 0 -48 3 -72 9c-9 2 -15 4 -19 4c-9 0 -9 -7 -9 -26c0 -44 -9 -88 -15 -131c-3 -14 -9 -21 -20 -21c-4 0 -9 1 -15 4c-11 6 -19 16 -26 27c-19 31 -28 66 -34 102c-2 12 -3 24 -5 35c-1 6 -4 9 -8 9
c-2 0 -3 0 -5 -1c-7 -2 -13 -5 -20 -8c-26 -11 -53 -19 -81 -23c-4 -1 -8 -2 -12 -2h-5c-10 0 -20 1 -25 10c-1 2 -1 4 -1 5c0 9 10 13 17 18c27 25 55 49 83 73c4 3 8 5 10 11c-3 7 -10 9 -16 13c-32 23 -63 47 -90 76c-13 15 -22 31 -22 51v2c0 32 23 54 51 54
c7 0 14 -2 21 -4c13 -5 24 -13 33 -22c14 -15 30 -28 46 -41c9 -7 14 -11 18 -11c5 0 7 7 8 21c3 35 5 71 7 106c1 12 2 23 8 34c11 22 29 35 50 35c3 0 6 -1 9 -1c26 -4 46 -23 48 -51c1 -10 1 -19 1 -28c0 -18 -1 -35 -3 -52c-1 -8 -2 -17 -2 -26c0 -3 0 -7 1 -11z" />
    <glyph glyph-name="plus" unicode="+" horiz-adv-x="537" 
d="M365 361v-35c1 -15 2 -18 18 -19c25 -3 50 -6 74 -15c20 -7 39 -17 55 -32c9 -8 17 -18 20 -31c1 -4 2 -7 2 -10c0 -11 -7 -17 -21 -19c-35 -6 -69 -10 -105 -10c-7 0 -15 1 -22 1h-8c-16 0 -17 -4 -18 -26c-1 -39 -13 -75 -22 -113c-2 -9 -8 -12 -17 -12h-3
c-14 3 -24 11 -33 21c-24 28 -34 62 -38 97c0 1 0 2 -1 3c-2 24 -3 31 -18 31c-4 0 -11 -1 -19 -2c-23 -3 -45 -6 -68 -11c-8 -1 -16 -2 -24 -2c-9 0 -18 1 -27 4c-21 8 -33 24 -33 43c0 6 1 12 3 19c8 25 26 39 50 47c32 11 66 13 100 16c36 3 36 2 37 38v18
c0 15 0 31 4 46c6 32 26 50 56 50s52 -20 57 -52c1 -5 1 -10 1 -15c0 -10 -1 -20 -1 -30h1z" />
    <glyph glyph-name="comma" unicode="," horiz-adv-x="192" 
d="M192 -89c-3 -48 -20 -88 -59 -118c-17 -12 -35 -18 -55 -18h-5c-12 1 -18 5 -18 11c0 3 1 8 5 13c16 24 25 50 25 76c0 14 -3 28 -7 43c-2 6 -3 12 -4 18v5c0 23 13 44 34 52c6 2 12 3 19 3c17 0 34 -7 45 -21c15 -19 20 -40 20 -64z" />
    <glyph glyph-name="hyphenminus" unicode="-" horiz-adv-x="654" 
d="M394 319c61 0 112 0 162 -10c24 -5 45 -14 65 -28c13 -10 22 -22 27 -38c1 -4 2 -8 2 -11c0 -16 -10 -27 -29 -30c-20 -3 -41 -4 -61 -4c-25 0 -50 1 -75 3c-27 2 -54 2 -80 2c-27 0 -53 0 -80 -2c-44 -3 -88 -5 -132 -12c-16 -2 -33 -5 -49 -8c-7 -1 -15 -2 -23 -2
c-5 0 -9 0 -14 1c-27 5 -44 28 -44 52c0 11 4 23 12 33c12 16 29 25 49 30c41 10 82 14 124 17c44 3 87 7 125 7h21z" />
    <glyph glyph-name="hyphenminus" unicode="&#xad;" horiz-adv-x="654" 
d="M394 319c61 0 112 0 162 -10c24 -5 45 -14 65 -28c13 -10 22 -22 27 -38c1 -4 2 -8 2 -11c0 -16 -10 -27 -29 -30c-20 -3 -41 -4 -61 -4c-25 0 -50 1 -75 3c-27 2 -54 2 -80 2c-27 0 -53 0 -80 -2c-44 -3 -88 -5 -132 -12c-16 -2 -33 -5 -49 -8c-7 -1 -15 -2 -23 -2
c-5 0 -9 0 -14 1c-27 5 -44 28 -44 52c0 11 4 23 12 33c12 16 29 25 49 30c41 10 82 14 124 17c44 3 87 7 125 7h21z" />
    <glyph glyph-name="period" unicode="." horiz-adv-x="159" 
d="M158 -59c0 -28 -25 -52 -53 -52c-30 0 -55 24 -55 53s23 54 52 54h2c28 0 54 -26 54 -53v-2z" />
    <glyph glyph-name="slash" unicode="/" horiz-adv-x="431" 
d="M51 -68c1 59 12 116 29 172c24 85 57 167 93 247c37 81 75 161 112 242c10 22 18 45 27 68c3 7 6 15 10 22c11 18 29 29 48 29c6 0 12 -1 18 -3c24 -8 40 -29 40 -54c0 -3 -1 -6 -1 -9c-1 -12 -5 -24 -10 -36c-13 -40 -31 -78 -49 -115c-70 -143 -130 -290 -193 -436
c-17 -41 -38 -81 -56 -122c-12 -24 -25 -48 -29 -75c-1 -7 -5 -10 -9 -10c-3 0 -6 1 -10 3c-8 6 -12 14 -15 23c-4 14 -5 27 -5 41v13z" />
    <glyph glyph-name="zero" unicode="0" horiz-adv-x="668" 
d="M51 214c1 94 17 186 42 277c6 21 15 42 26 60c15 25 33 37 55 37c11 0 22 -3 35 -9c4 -2 7 -3 10 -3c5 0 8 3 12 8c36 50 89 69 146 69h9c65 -3 125 -25 175 -69c34 -30 58 -68 74 -111c17 -44 25 -90 25 -135c0 -42 -7 -85 -19 -127c-31 -107 -86 -200 -170 -276
c-33 -29 -70 -53 -112 -68c-23 -8 -45 -12 -66 -12c-48 0 -93 20 -133 55c-58 50 -85 117 -99 189c-7 33 -10 67 -10 101v14zM274 548c-28 -3 -32 -6 -32 -35c0 -21 -7 -38 -24 -51c-11 -8 -18 -19 -21 -32c-16 -72 -29 -144 -29 -217c0 -20 1 -41 3 -61
c6 -52 19 -101 53 -142c20 -25 45 -37 78 -37c29 0 56 7 81 21c35 18 62 46 87 75c37 42 61 91 74 146c5 23 7 47 7 70c0 48 -10 96 -24 144c-17 54 -55 88 -111 102c-39 10 -80 15 -121 17h-21z" />
    <glyph glyph-name="one" unicode="1" horiz-adv-x="267" 
d="M141 409c-9 0 -12 -7 -18 -10c-8 -5 -16 -7 -24 -7c-16 0 -31 9 -40 25c-6 10 -8 19 -8 30c0 6 1 12 2 18c6 32 20 61 36 89c13 23 29 44 44 64c9 12 20 21 33 27c10 5 20 7 30 7c24 0 46 -14 58 -38c8 -16 11 -34 12 -52v-14c0 -47 -4 -95 -7 -142
c-4 -56 -9 -111 -12 -167c-4 -70 -5 -140 -11 -210c-1 -21 -4 -42 -6 -63c-2 -16 -3 -31 -3 -47c0 -9 0 -17 1 -26v-3c0 -11 -5 -17 -15 -17c-2 0 -5 0 -8 1c-11 3 -19 11 -26 19c-15 19 -23 41 -30 64c-13 40 -20 81 -22 123c-1 16 -1 31 -1 47c0 60 4 120 8 179
c3 34 5 68 7 103z" />
    <glyph glyph-name="two" unicode="2" horiz-adv-x="535" 
d="M305 -20c53 0 105 -6 157 -15c7 -1 14 -3 21 -5c7 -3 10 -6 10 -11c0 -3 -2 -7 -7 -11c-6 -5 -14 -10 -21 -14c-60 -31 -123 -48 -189 -56c-22 -2 -44 -4 -66 -4c-19 0 -38 1 -57 5c-45 11 -73 41 -76 85v9c0 17 4 34 11 51c16 42 42 78 69 115c49 66 101 130 153 195
c25 31 48 64 70 98c11 17 20 35 26 55c1 5 2 9 2 12c0 10 -5 16 -18 22c-12 5 -24 8 -37 9c-9 1 -19 1 -28 1c-38 0 -75 -7 -111 -21c-23 -9 -40 -23 -46 -49c-6 -27 -27 -42 -50 -43h-2c-25 0 -47 17 -56 41c-3 9 -4 17 -4 26c0 20 7 38 17 56c20 33 50 55 84 70
c53 24 108 37 165 37c18 0 36 -2 54 -4c26 -3 52 -11 76 -24c47 -26 73 -67 73 -116c0 -11 -1 -21 -3 -32c-5 -28 -17 -54 -30 -79c-33 -60 -76 -112 -118 -166c-52 -66 -107 -130 -153 -201c-6 -7 -16 -16 -16 -25c0 -1 1 -3 2 -5c3 -6 8 -8 14 -8s14 2 20 2h64z" />
    <glyph glyph-name="three" unicode="3" horiz-adv-x="566" 
d="M395 547c-19 0 -35 -3 -50 -7c-51 -13 -101 -31 -144 -63c-19 -14 -32 -30 -34 -56c-3 -27 -24 -47 -50 -49h-4c-23 0 -47 15 -55 38c-4 11 -6 22 -6 33c0 12 3 25 7 37c13 37 39 67 71 89c85 60 179 94 284 95c18 0 35 -3 51 -10c40 -16 62 -49 62 -89
c0 -8 0 -15 -2 -23c-6 -31 -21 -57 -39 -82c-21 -29 -44 -56 -67 -83c-16 -19 -32 -37 -47 -56c-7 -9 -13 -18 -18 -28c-4 -7 -6 -13 -6 -17c0 -7 4 -13 12 -20c10 -10 22 -18 34 -25c35 -21 70 -43 101 -70c17 -14 31 -31 42 -50c12 -21 18 -43 18 -65
c0 -31 -12 -61 -36 -88c-21 -24 -47 -43 -75 -57c-75 -36 -154 -56 -237 -56h-12c-28 0 -54 8 -76 27c-16 15 -23 33 -23 52c0 20 8 40 26 54c6 6 11 9 15 9c5 0 10 -3 15 -10c12 -13 26 -18 44 -18c65 1 128 15 187 42c16 7 31 17 43 29c7 7 10 12 10 18c0 5 -3 10 -9 17
c-8 10 -19 19 -30 26c-30 19 -60 38 -89 58c-18 11 -33 24 -47 40c-21 25 -32 52 -32 82c0 10 1 21 4 32c6 26 18 49 33 70c31 44 68 83 102 124c11 15 25 28 34 50h-7z" />
    <glyph glyph-name="four" unicode="4" horiz-adv-x="620" 
d="M473 263c-9 -11 -17 -20 -26 -29c-43 -45 -88 -88 -139 -124c-23 -15 -46 -31 -73 -39c-19 -6 -39 -10 -58 -10c-21 0 -42 5 -63 17c-42 25 -57 65 -60 111c0 7 -1 13 -1 20c0 46 12 90 25 134c25 85 62 166 97 248c10 24 33 38 55 38h5c27 -4 47 -24 53 -53
c1 -8 2 -15 2 -22c0 -21 -6 -40 -24 -56c-6 -5 -10 -12 -13 -20c-28 -66 -55 -133 -73 -204c-5 -19 -7 -38 -10 -58c0 -3 -1 -6 -1 -9c0 -4 1 -7 1 -10c2 -13 5 -18 14 -18c2 0 5 0 9 1c17 3 35 7 51 12c80 29 145 78 199 143c15 17 25 36 31 58c5 18 12 35 22 52
c12 20 33 33 53 33c5 0 9 -1 14 -2c28 -8 45 -29 45 -60c0 -26 -4 -53 -6 -80c-3 -39 -4 -79 -4 -118c0 -43 1 -86 4 -129c3 -55 9 -110 15 -165v-6c0 -17 -11 -28 -31 -30h-7c-21 0 -37 11 -50 26c-11 13 -18 28 -23 44c-14 40 -19 81 -21 123s-6 85 -6 128c0 10 1 20 1 30
v6c0 5 -1 11 -7 18z" />
    <glyph glyph-name="five" unicode="5" horiz-adv-x="566" 
d="M380 645c34 0 66 -3 97 -14c18 -6 35 -14 48 -28c12 -13 19 -27 19 -43v-6c-2 -21 -15 -33 -35 -33h-3c-25 1 -50 3 -75 6c-19 2 -39 3 -58 3c-43 0 -85 -5 -127 -16c-60 -16 -54 -9 -65 -70c-7 -32 -9 -64 -13 -96c-1 -5 -1 -9 -1 -13c0 -8 1 -15 2 -22
c5 -28 13 -37 41 -41c26 -3 51 -5 78 -5c44 -1 89 -5 133 -14c27 -6 53 -16 76 -31c30 -20 55 -57 55 -101c0 -12 -2 -25 -6 -38c-13 -40 -36 -73 -68 -99c-42 -34 -87 -61 -138 -77c-13 -4 -26 -6 -40 -6c-10 0 -21 1 -32 5c-16 5 -30 15 -38 30c-3 7 -5 14 -5 20
c0 12 7 22 21 29c30 16 60 31 91 46c23 11 44 24 64 40c11 9 22 20 29 34c2 4 3 8 3 11c0 5 -3 10 -11 14c-13 7 -28 10 -43 12c-39 6 -78 8 -117 9c-24 1 -47 3 -71 6c-85 13 -136 70 -140 156v14c0 30 3 61 7 92c4 28 8 57 13 86c6 41 26 72 63 91c46 24 96 36 146 44
c23 3 47 5 69 5h31z" />
    <glyph glyph-name="six" unicode="6" horiz-adv-x="620" 
d="M51 242c3 103 22 202 64 296c9 19 20 37 32 55c9 13 19 23 34 28c8 3 16 5 23 5c14 0 27 -6 38 -17c13 -13 20 -33 20 -52c0 -21 -8 -41 -24 -54c-14 -11 -22 -24 -28 -40c-22 -59 -34 -120 -40 -183c-2 -14 -2 -28 -2 -42c0 -48 9 -94 25 -139c14 -42 40 -75 70 -106
c18 -19 41 -25 64 -25c8 0 16 1 24 2c60 10 110 38 142 91c15 24 22 50 22 76c0 16 -2 32 -8 49c-6 16 -14 24 -26 24c-5 0 -11 -2 -18 -5c-20 -8 -37 -21 -51 -37c-27 -31 -48 -66 -68 -102c-2 -4 -3 -8 -4 -11c-6 -19 -19 -30 -36 -30c-5 0 -9 1 -14 2
c-25 8 -42 32 -42 62v5c0 12 2 25 6 37c29 74 77 134 147 173c26 15 53 24 81 24c13 0 26 -2 39 -6c55 -16 87 -54 97 -110c1 -5 1 -9 1 -14c0 -9 -1 -17 -4 -26c-34 -117 -100 -208 -212 -260c-33 -16 -69 -25 -105 -25c-10 0 -19 1 -29 2c-76 11 -129 54 -164 121
c-36 71 -54 146 -54 226v6z" />
    <glyph glyph-name="seven" unicode="7" horiz-adv-x="595" 
d="M392 645c23 0 45 -3 68 -8c74 -16 118 -66 128 -141c2 -15 3 -30 3 -45c0 -31 -4 -61 -13 -91c-38 -123 -83 -245 -148 -357c-25 -43 -54 -83 -81 -124c-4 -6 -7 -11 -13 -11h-2c-9 2 -10 10 -11 17c-1 9 -2 18 -2 28c0 12 1 25 3 38c11 80 35 156 65 231
c24 59 48 118 68 179c10 30 17 60 17 91c0 6 -1 12 -1 18c-2 38 -14 51 -52 56c-13 1 -26 2 -40 2c-45 0 -89 -7 -134 -14c-34 -6 -68 -12 -101 -24c-9 -3 -17 -5 -26 -5c-15 0 -29 6 -42 18s-19 27 -19 41c0 19 9 36 27 48c8 6 17 9 26 12c89 23 179 38 270 41h10z" />
    <glyph glyph-name="eight" unicode="8" horiz-adv-x="585" 
d="M392 321c19 -4 38 -8 55 -17c47 -26 83 -62 111 -107c14 -24 21 -48 21 -72c0 -22 -6 -44 -16 -66c-30 -65 -77 -115 -135 -155c-43 -30 -89 -54 -141 -62c-11 -1 -23 -2 -34 -2c-43 0 -84 11 -120 40c-24 20 -41 44 -51 73c-9 26 -13 52 -13 78c0 20 2 39 6 59
c11 55 32 106 59 154c3 5 6 11 9 16c3 4 5 8 5 11c0 5 -4 8 -11 12c-19 11 -36 25 -49 43c-22 30 -31 61 -31 94c0 17 2 34 7 52c14 54 48 97 91 132c46 36 97 61 157 67c8 1 15 1 23 1c31 0 61 -7 89 -21c47 -24 74 -72 74 -123c0 -8 -1 -16 -2 -24
c-6 -39 -24 -73 -46 -105c-16 -23 -33 -44 -51 -65c-3 -3 -7 -5 -7 -11v-2zM186 33c0 -19 1 -37 12 -52c14 -20 34 -25 56 -25h6c44 0 86 11 124 35c28 16 52 36 69 63c13 23 22 46 22 70c0 17 -5 35 -15 53c-24 43 -58 76 -94 107c-4 4 -8 5 -12 5c-5 0 -9 -2 -14 -5
c-7 -6 -15 -11 -24 -15c-10 -5 -17 -13 -20 -24c-6 -20 -19 -33 -38 -40c-8 -3 -16 -7 -21 -15c-27 -49 -49 -100 -51 -157zM334 555c-43 -1 -78 -19 -109 -45c-20 -18 -39 -37 -48 -64c-3 -8 -4 -16 -4 -23c0 -17 8 -30 26 -42c16 -10 32 -21 46 -33c6 -5 9 -8 12 -8
c4 0 7 4 13 12c23 29 45 59 67 89c12 17 25 34 34 53c6 12 9 23 9 31c0 19 -15 29 -46 30z" />
    <glyph glyph-name="nine" unicode="9" horiz-adv-x="635" 
d="M505 282c0 26 0 52 -6 77c-2 8 -4 11 -8 11c-3 0 -6 -2 -10 -5c-6 -5 -11 -11 -17 -17c-43 -48 -87 -94 -136 -134c-32 -26 -66 -48 -108 -55c-11 -2 -22 -3 -33 -3c-15 0 -30 2 -44 8c-49 18 -76 53 -87 103c-3 13 -5 26 -5 39c0 12 2 24 4 36c21 106 73 193 163 253
c32 22 65 32 100 32c27 0 56 -7 84 -21c37 -19 64 -48 81 -86c6 -14 8 -18 16 -18c4 0 8 1 15 2c4 1 8 1 12 1c25 0 46 -14 61 -39c9 -16 15 -34 19 -53c12 -45 18 -90 18 -135c0 -66 -13 -131 -39 -196c-25 -63 -65 -117 -111 -166c-13 -13 -28 -25 -45 -34
c-14 -9 -30 -14 -47 -14c-28 1 -48 21 -48 49v2c1 10 3 15 10 15c2 0 5 -1 9 -2c3 -1 5 -1 7 -1c8 0 11 7 15 13c22 32 42 64 60 99c8 15 15 31 24 46c32 58 46 120 46 186v7zM170 302c1 -20 7 -29 22 -29c4 0 8 1 13 2c16 4 32 9 47 14c58 19 107 53 152 93c4 4 7 7 7 11
c0 3 -2 6 -6 10c-11 12 -16 27 -20 42c-3 12 -6 23 -12 33c-13 21 -32 31 -53 31c-6 0 -12 -1 -18 -2c-21 -6 -37 -17 -51 -32c-32 -35 -57 -73 -73 -118c-4 -13 -8 -27 -8 -42v-13z" />
    <glyph glyph-name="colon" unicode=":" horiz-adv-x="159" 
d="M158 52c0 -28 -25 -53 -53 -53c-30 0 -55 25 -55 54s23 53 52 54c29 0 56 -25 56 -53v-2zM158 441c0 -28 -25 -53 -53 -53c-30 0 -55 25 -55 54s23 53 52 54c29 0 56 -25 56 -53v-2z" />
    <glyph glyph-name="semicolon" unicode=";" horiz-adv-x="192" 
d="M192 22c-3 -48 -20 -89 -59 -118c-16 -12 -33 -18 -53 -18h-7c-12 1 -18 4 -18 11c0 3 1 8 5 13c16 24 25 50 25 76c0 14 -3 28 -7 42c-2 6 -3 13 -4 19v5c0 22 13 44 34 51c6 3 13 4 19 4c17 0 34 -8 45 -21c15 -19 20 -41 20 -64zM192 443c0 -29 -25 -55 -54 -55
s-54 25 -55 54c0 29 24 53 52 54c29 0 56 -25 57 -53z" />
    <glyph glyph-name="less" unicode="&#x3c;" horiz-adv-x="501" 
d="M194 247c11 -9 22 -12 32 -16c50 -21 100 -42 147 -69c23 -13 44 -29 63 -49c7 -8 13 -16 16 -26c2 -5 3 -10 3 -14c0 -11 -7 -17 -22 -17h-3c-17 0 -34 2 -51 5c-87 18 -170 48 -249 86c-16 8 -30 18 -42 30c-19 19 -29 42 -29 65c0 19 7 39 20 57c23 31 54 51 88 67
c69 33 141 61 215 83c16 5 32 9 49 10c24 0 44 -10 57 -31c6 -11 9 -22 9 -32c0 -12 -3 -23 -9 -34c-10 -19 -28 -30 -49 -30c-4 0 -8 0 -12 1c-5 1 -11 2 -16 2c-4 0 -8 -1 -12 -2c-67 -23 -134 -46 -197 -80c-2 -1 -3 -3 -8 -6z" />
    <glyph glyph-name="equal" unicode="=" horiz-adv-x="654" 
d="M394 416c61 0 112 0 162 -10c24 -5 45 -14 65 -28c13 -10 22 -22 27 -38c1 -4 2 -8 2 -11c0 -16 -10 -27 -29 -30c-20 -3 -41 -4 -61 -4c-25 0 -50 1 -75 3c-27 2 -54 2 -80 2c-27 0 -53 0 -80 -2c-44 -3 -88 -5 -132 -12c-16 -2 -33 -5 -49 -8c-7 -1 -15 -2 -23 -2
c-5 0 -9 0 -14 1c-27 5 -44 28 -44 52c0 11 4 23 12 33c12 16 29 25 49 30c41 10 82 14 124 17c44 3 87 7 125 7h21zM368 241c33 0 66 0 99 -6c21 -4 42 -10 61 -24c15 -11 27 -26 31 -45c1 -4 1 -7 1 -10c0 -18 -10 -33 -27 -41c-3 -1 -7 -3 -11 -3c-3 0 -5 1 -7 2
c-12 7 -25 5 -39 6c-30 2 -61 4 -92 5h-21c-47 0 -94 -5 -141 -12c-12 -1 -24 -3 -36 -3c-5 0 -10 0 -15 1c-27 3 -46 17 -51 39c-1 5 -2 9 -2 13c0 19 11 33 26 44c14 11 30 16 48 19c54 9 108 15 163 15h13z" />
    <glyph glyph-name="greater" unicode="&#x3e;" horiz-adv-x="501" 
d="M357 267c-11 9 -22 12 -32 16c-50 21 -100 42 -147 69c-23 13 -45 30 -63 49c-7 8 -13 16 -17 26c-2 5 -3 10 -3 14c0 11 8 17 22 17h3c18 0 35 -2 52 -5c87 -18 169 -47 249 -86c16 -8 30 -18 42 -30c19 -19 29 -41 29 -64c0 -20 -7 -40 -21 -58
c-22 -31 -53 -51 -87 -67c-69 -33 -141 -61 -215 -83c-16 -5 -32 -9 -49 -9h-3c-23 0 -42 11 -54 31c-6 11 -9 21 -9 32s3 22 8 33c11 19 29 30 50 30c4 0 8 0 12 -1c5 -1 11 -2 16 -2c4 0 8 1 12 2c67 23 134 46 196 80c2 1 4 3 9 6z" />
    <glyph glyph-name="question" unicode="?" horiz-adv-x="538" 
d="M538 633c0 -51 -10 -86 -26 -119c-27 -57 -57 -112 -94 -163c-46 -65 -84 -133 -120 -203c-4 -8 -9 -16 -9 -24c0 -6 2 -11 7 -17c1 -1 2 -3 2 -4c0 -4 -4 -7 -8 -8s-8 -2 -12 -2c-12 0 -25 7 -33 18c-8 13 -11 28 -11 43c0 29 7 56 16 83c15 42 34 82 51 122
c26 60 59 115 90 172c12 23 24 47 29 74c1 4 1 8 1 11c0 19 -9 28 -31 33c-11 3 -22 4 -34 4c-11 0 -22 -1 -34 -3c-47 -7 -89 -24 -127 -53c-12 -10 -20 -21 -22 -37c-5 -30 -21 -46 -46 -49c-3 0 -5 -1 -8 -1c-22 0 -45 15 -55 37c-6 12 -8 23 -8 34c0 17 5 32 14 47
c23 37 55 66 92 87c61 35 126 54 196 54h11c32 -1 63 -8 91 -22c52 -27 77 -71 78 -114zM256 -92c-29 1 -53 27 -57 62v7c0 30 18 56 44 63c2 0 3 0 5 1s4 1 6 1c25 0 69 -39 69 -66v-1c0 -34 -28 -67 -63 -67h-4z" />
    <glyph glyph-name="at" unicode="@" horiz-adv-x="803" 
d="M524 191c-18 -33 -44 -60 -71 -85c-27 -26 -58 -46 -92 -61c-16 -7 -33 -12 -50 -12c-4 0 -8 0 -12 1c-31 5 -52 22 -63 51c-4 12 -8 25 -8 38c0 3 1 6 1 9c5 68 24 132 66 188c14 19 31 32 52 40c13 6 27 9 41 9c10 0 20 -2 30 -6c46 -20 79 -51 90 -102
c1 -3 1 -6 2 -11c13 4 19 13 22 25c3 15 5 30 8 44c4 16 11 30 23 41c12 10 26 16 40 16c11 0 22 -4 32 -10c17 -11 27 -28 27 -47c0 -6 -1 -13 -3 -19c-9 -24 -13 -49 -13 -75v-15c0 -17 3 -33 9 -49c5 -13 12 -19 20 -19c6 0 13 3 20 10c27 26 40 59 43 95c1 9 1 17 1 25
c0 84 -37 152 -107 204c-43 32 -91 52 -146 55c-6 0 -12 1 -18 1c-67 0 -125 -26 -176 -72c-62 -58 -102 -129 -117 -213c-3 -17 -4 -34 -4 -51s1 -34 4 -51c12 -66 49 -114 109 -145c51 -26 106 -40 163 -43c9 0 19 -1 28 -1c18 0 36 1 55 4c36 5 70 16 103 33
c7 4 14 7 21 10h2c3 0 6 -1 7 -3c1 -1 2 -3 2 -4c0 -2 -1 -3 -2 -5c-3 -4 -7 -8 -11 -12c-40 -44 -91 -70 -148 -82c-32 -6 -63 -10 -93 -10c-88 0 -171 28 -246 86c-45 35 -70 85 -83 139c-8 37 -13 73 -13 108c0 98 33 189 98 273c34 43 76 77 125 102s99 37 151 37
c34 0 69 -5 104 -17c89 -29 160 -81 209 -163c20 -35 32 -72 38 -111c4 -22 6 -45 6 -67c0 -31 -4 -62 -13 -92c-12 -38 -30 -73 -57 -103c-11 -13 -25 -23 -41 -31c-14 -7 -29 -10 -43 -10c-29 0 -57 14 -77 40c-18 24 -28 51 -34 80c-2 10 -4 21 -6 32c-1 0 -3 0 -5 1z
M454 198c-26 11 -46 23 -61 42c-2 3 -4 4 -6 4c-3 0 -6 -3 -8 -7c-17 -26 -25 -55 -30 -84c-1 -2 -1 -4 -1 -6c0 -4 2 -7 6 -7c2 0 5 1 9 3c31 14 60 31 91 55z" />
    <glyph glyph-name="A" unicode="A" 
d="M118 -14c0 18 0 35 1 52c0 13 -4 21 -17 25c-25 8 -39 29 -39 51c0 17 9 36 27 50c6 5 11 10 18 11c21 7 26 22 29 41c13 94 40 185 77 272c31 72 72 139 129 194c28 27 58 50 94 65c26 12 54 19 82 19h10c71 -6 114 -49 141 -110c23 -51 32 -105 40 -160
c11 -79 18 -158 24 -237c2 -18 7 -32 22 -42c10 -7 16 -17 20 -29c1 -5 2 -9 2 -13c0 -11 -5 -21 -16 -25s-13 -10 -13 -19v-7c9 -61 16 -123 29 -184c5 -25 6 -52 18 -76c1 -2 2 -5 2 -7c0 -5 -3 -9 -9 -13c-9 -7 -19 -11 -30 -11c-3 0 -6 0 -10 1c-22 5 -40 17 -53 36
c-16 25 -26 52 -34 80c-14 53 -21 107 -28 160c-1 6 -1 11 -2 17c-2 10 -7 15 -18 15h-14c-107 -3 -214 -9 -319 -33c-4 -1 -9 -2 -13 -3c-29 -7 -29 -7 -31 -36c-1 -28 -3 -56 -3 -84c0 -18 1 -37 3 -55c2 -13 4 -26 10 -38c5 -10 7 -19 7 -28c0 -26 -18 -47 -37 -55
c-8 -4 -16 -6 -25 -6c-22 0 -44 14 -55 38c-14 32 -15 66 -18 100v44h-1zM615 286c-3 37 -6 74 -10 110c-7 59 -13 118 -28 175c-5 18 -11 36 -21 52c-11 18 -23 26 -38 26c-7 0 -14 -1 -22 -4c-21 -7 -40 -18 -57 -33c-29 -26 -54 -55 -75 -88c-48 -77 -76 -161 -98 -249
c-2 -11 -5 -21 -7 -32c0 -3 -1 -5 -1 -7c0 -7 3 -10 11 -10c2 0 4 1 7 1c3 1 6 2 9 2c66 13 133 20 201 25c36 3 72 4 108 4c18 0 21 0 21 12v16z" />
    <glyph glyph-name="B" unicode="B" horiz-adv-x="772" 
d="M111 329c0 61 2 119 8 176v3c0 8 -3 13 -11 17c-29 15 -45 39 -45 65c0 15 5 31 16 47c10 15 22 27 35 38c40 32 84 54 131 71c96 35 196 56 298 56c15 0 29 0 44 -1c40 -2 78 -10 113 -31c41 -24 62 -62 62 -105c0 -12 -2 -26 -6 -39c-12 -45 -38 -83 -66 -119
c-48 -63 -103 -121 -154 -183c-21 -26 -42 -52 -59 -82c-8 -13 -12 -23 -12 -30c0 -11 9 -17 30 -27c24 -11 48 -20 72 -29c28 -11 54 -22 80 -36c25 -13 46 -31 64 -52c17 -21 26 -46 26 -70c0 -23 -7 -46 -21 -66c-20 -30 -49 -50 -81 -67c-45 -25 -92 -44 -143 -54
c-14 -3 -29 -5 -44 -5s-30 2 -45 6c-17 4 -32 13 -44 26c-10 12 -15 24 -15 37c0 7 1 14 5 22c3 9 7 13 13 13c3 0 6 0 10 -2c5 -2 11 -4 16 -4c2 0 3 1 5 1c65 15 131 30 190 64c8 4 16 9 23 15c6 5 9 9 9 12c0 4 -3 8 -9 12c-18 13 -38 22 -59 31c-32 13 -64 25 -96 38
c-17 7 -33 16 -48 27c-37 26 -56 61 -56 103c0 11 2 22 4 33c9 38 28 70 51 101c34 48 74 91 112 136c31 38 65 73 93 113c12 16 24 32 31 50c4 8 6 15 6 20c0 10 -8 14 -25 19c-18 5 -37 7 -56 8h-8c-73 0 -145 -13 -215 -32c-30 -8 -59 -19 -87 -31c-8 -3 -12 -7 -12 -14
c0 -2 0 -4 1 -7c3 -10 4 -19 4 -29c0 -12 -2 -23 -5 -34c-7 -25 -7 -50 -8 -75c-4 -59 -6 -118 -6 -177c0 -37 0 -74 2 -111c5 -104 16 -207 31 -310c2 -15 4 -29 10 -43c2 -4 3 -8 3 -11c0 -8 -6 -13 -17 -14c-4 -1 -7 -1 -10 -1c-20 0 -35 10 -49 24c-14 15 -25 32 -33 51
c-17 40 -26 83 -33 125c-15 86 -20 174 -20 258v73z" />
    <glyph glyph-name="C" unicode="C" horiz-adv-x="729" 
d="M51 104c0 61 12 120 27 179c29 108 70 211 129 306c36 60 77 115 133 158c17 12 36 23 56 29c14 4 27 6 40 6c31 0 58 -11 83 -34c40 -37 59 -85 65 -138v-7c0 -27 -17 -49 -43 -55c-4 -1 -9 -2 -13 -2c-21 0 -41 14 -51 35c-5 9 -7 19 -10 29c-4 12 -8 25 -15 37
c-7 11 -13 16 -20 16c-6 0 -12 -3 -19 -8c-22 -15 -40 -35 -57 -56c-47 -57 -82 -121 -111 -189c-32 -75 -57 -153 -71 -234c-5 -28 -8 -56 -8 -84c0 -19 1 -38 5 -57c8 -44 31 -79 67 -105c48 -34 103 -49 161 -55c15 -2 30 -3 45 -3c51 0 102 10 152 20c34 6 68 13 102 19
c4 1 7 1 10 1c6 0 11 -2 15 -8c2 -2 3 -5 3 -7c0 -6 -4 -11 -7 -17c-27 -42 -64 -71 -111 -88c-61 -22 -123 -34 -184 -34c-66 0 -131 14 -195 43c-97 45 -160 118 -175 227c-3 15 -3 31 -3 46v30z" />
    <glyph glyph-name="D" unicode="D" horiz-adv-x="789" 
d="M150 625c-9 -2 -15 -5 -22 -7c-5 -1 -10 -2 -14 -2c-31 0 -56 25 -56 56c0 4 1 9 2 14c6 22 20 37 38 50c22 15 47 25 72 34c49 16 99 24 151 28c12 1 25 1 37 1c48 0 96 -6 143 -17c60 -15 114 -42 159 -85c34 -32 60 -71 79 -114c26 -59 38 -118 38 -177
c0 -57 -11 -115 -33 -172c-41 -108 -103 -204 -173 -294c-32 -41 -68 -79 -108 -112c-31 -26 -65 -48 -106 -56c-6 -1 -12 -2 -17 -2c-11 0 -21 2 -31 6c-11 4 -20 10 -26 20c-5 7 -7 12 -7 16c0 7 5 11 16 15c15 4 25 13 36 22c103 85 180 191 248 305c28 46 52 95 68 147
c10 34 15 69 15 103c0 25 -3 50 -8 75c-24 111 -98 179 -211 197c-28 4 -56 7 -84 7c-25 0 -49 -2 -74 -6c-4 -1 -7 -1 -11 -2c-5 -1 -8 -3 -8 -7c0 -2 0 -3 1 -5c6 -14 9 -27 9 -41c0 -15 -3 -30 -7 -45c-5 -20 -5 -40 -7 -61c-12 -115 -17 -232 -17 -348
c0 -42 1 -84 2 -126c1 -47 6 -94 15 -141c3 -14 5 -29 16 -41c3 -4 4 -7 4 -11c0 -5 -2 -10 -6 -15c-10 -12 -25 -18 -41 -18c-11 0 -23 3 -34 11c-17 12 -29 29 -37 48c-15 33 -23 69 -27 105c-7 62 -10 124 -10 187c0 41 1 81 3 122c3 59 5 118 11 176c4 47 8 93 13 139v9
c0 4 0 8 -1 12z" />
    <glyph glyph-name="E" unicode="E" horiz-adv-x="784" 
d="M132 564c-2 2 -4 2 -6 2c-3 0 -6 -1 -9 -1c-34 2 -56 27 -56 56c0 8 2 17 6 25c8 17 21 29 37 39c41 26 87 41 133 53c103 29 207 45 314 45c15 0 29 0 44 -1c37 -1 75 -5 111 -18c24 -8 44 -21 60 -40c11 -13 16 -27 16 -42c0 -4 0 -7 -1 -11c-1 -10 -5 -16 -12 -16
c-2 0 -4 1 -7 2c-21 9 -43 8 -65 9c-30 2 -61 3 -91 3c-97 0 -193 -9 -289 -30c-33 -7 -49 -22 -57 -55c-20 -84 -35 -169 -44 -256c0 -3 -1 -5 -1 -7c0 -5 2 -8 6 -8c2 0 6 2 12 4c80 33 165 45 251 53c7 1 13 1 20 1c17 0 35 -2 52 -6c17 -3 34 -10 48 -20
c17 -13 27 -32 27 -50c0 -7 -1 -13 -4 -19c-5 -9 -10 -19 -21 -19h-3c-10 2 -20 3 -31 3c-21 0 -43 -4 -65 -5c-55 -3 -110 -11 -163 -24c-23 -6 -46 -12 -68 -22c-12 -6 -25 -9 -40 -9h-6c-13 0 -16 -1 -16 -11v-7c2 -41 8 -83 19 -123c5 -17 11 -33 18 -49
c27 -55 73 -80 131 -87c11 -1 22 -2 32 -2c43 0 84 11 122 30c28 15 56 29 84 44c5 3 11 6 16 9c6 3 12 6 17 6c4 0 7 -1 10 -4c4 -3 5 -7 5 -12c0 -4 -1 -9 -3 -14c-15 -48 -40 -89 -81 -119c-52 -38 -115 -57 -178 -57c-82 0 -163 32 -220 95c-33 37 -53 81 -65 127
c-18 70 -26 140 -26 210c0 21 1 41 2 62c6 86 18 170 36 255c1 2 1 3 1 5s0 4 -2 6z" />
    <glyph glyph-name="F" unicode="F" horiz-adv-x="756" 
d="M154 530c-9 -2 -13 -8 -19 -12c-9 -6 -19 -8 -29 -8c-26 0 -50 19 -54 49v7c0 22 8 40 22 56c30 31 67 52 106 69c71 30 146 45 222 54c31 3 61 6 92 8c10 1 20 1 30 1c43 0 85 -5 127 -16c24 -6 48 -16 67 -33s29 -38 29 -59s-10 -41 -28 -56c-8 -6 -14 -10 -20 -10
c-7 0 -12 5 -18 16c-9 17 -22 27 -40 31c-13 3 -27 6 -42 7c-22 1 -43 2 -65 2c-81 0 -162 -8 -242 -29c-4 -1 -9 -2 -13 -4c-6 -2 -10 -5 -10 -10c0 -1 1 -3 1 -4c4 -16 6 -31 6 -46c0 -34 -7 -67 -7 -100c0 -18 -2 -36 -2 -54c0 -12 2 -16 10 -16c2 0 5 0 9 1
c42 6 84 11 126 14c28 2 56 4 84 4s56 -2 84 -6c19 -3 38 -8 55 -18c19 -10 33 -24 37 -46c1 -3 1 -6 1 -9c0 -18 -11 -30 -31 -32c-29 -3 -57 -5 -85 -5h-21c-81 0 -161 -5 -240 -19c-3 -1 -7 -1 -10 -2c-23 -5 -24 -6 -24 -29c1 -133 6 -265 26 -396c1 -5 1 -9 1 -14
c0 -11 -3 -21 -14 -28c-8 -5 -16 -8 -24 -8s-17 3 -25 8c-21 12 -33 32 -42 55c-16 42 -23 85 -27 129c-8 67 -11 135 -11 203c0 20 0 21 -20 26c-26 5 -42 29 -42 55c0 12 4 25 12 36c9 14 22 24 37 33c8 5 14 11 14 22c3 56 6 112 10 167c0 5 0 10 -3 16z" />
    <glyph glyph-name="G" unicode="G" horiz-adv-x="643" 
d="M523 33c-17 -28 -35 -55 -56 -79c-41 -47 -89 -84 -148 -106c-27 -10 -55 -16 -83 -16c-17 0 -33 2 -49 6c-48 12 -82 41 -104 86c-19 38 -26 80 -28 123c0 10 -1 20 -1 30c0 119 27 233 67 345c26 69 57 136 100 197c23 32 48 61 79 84c7 5 15 10 22 14
c22 11 44 17 65 17c42 0 80 -23 105 -67c23 -40 33 -85 37 -131c1 -7 1 -14 1 -22c0 -10 0 -20 -1 -30c-2 -31 -25 -54 -53 -56h-4c-25 0 -48 19 -55 48c-3 11 -2 22 -3 33c-1 30 -6 59 -17 87c-5 12 -9 18 -16 18c-4 0 -10 -3 -17 -9c-31 -27 -55 -59 -74 -94
c-65 -119 -104 -245 -116 -379c-2 -18 -3 -37 -3 -55c0 -19 1 -37 4 -56c2 -13 5 -26 10 -39c9 -24 24 -34 48 -34h7c34 3 64 18 92 35c50 32 96 69 141 108c12 11 25 22 36 33c7 7 10 16 10 25c0 13 -7 27 -22 32c-7 3 -13 4 -20 4c-4 0 -9 0 -13 -1
c-38 -7 -75 -18 -106 -43c-12 -10 -27 -17 -42 -20c-3 -1 -7 -1 -10 -1c-25 0 -44 17 -48 43v9c0 17 5 32 16 46c8 10 16 18 26 24c55 36 114 58 180 58h4c71 0 123 -39 145 -107c9 -29 12 -58 13 -88c1 -55 1 -111 1 -166c0 -20 -4 -39 -9 -58c-6 -17 -17 -27 -32 -27
c-5 0 -10 1 -16 3c-25 9 -39 29 -47 53c-7 21 -11 43 -11 65v56c-2 1 -4 1 -5 2z" />
    <glyph glyph-name="H" unicode="H" horiz-adv-x="829" 
d="M237 89c2 -58 8 -115 17 -172c2 -15 3 -31 16 -43c3 -3 4 -6 4 -9c0 -4 -2 -8 -6 -12c-11 -11 -23 -17 -37 -17c-3 0 -7 0 -10 1c-23 5 -39 18 -52 36c-20 29 -29 62 -35 97c-8 41 -10 84 -14 126c-2 21 -1 21 -20 26c-23 6 -40 18 -45 43c-1 4 -1 8 -1 11
c0 20 11 35 27 48c7 5 15 10 23 13c12 4 16 13 16 25v21c0 34 3 69 4 104c2 58 7 116 13 174c1 8 1 15 1 22v21c2 22 12 41 32 52c9 5 19 7 28 7c10 0 21 -3 31 -10c20 -13 27 -32 27 -55v-4c-2 -40 -6 -79 -9 -118c-4 -53 -8 -106 -8 -159v-18c0 -15 1 -20 10 -20
c3 0 7 1 12 2c80 16 161 25 243 32c38 3 77 4 115 6c23 1 25 2 25 24c4 113 12 225 24 337c3 36 29 60 58 60c9 0 18 -2 27 -7c21 -11 29 -30 30 -52v-8c0 -28 -4 -57 -7 -84c-6 -72 -11 -145 -13 -217c0 -16 0 -31 -2 -47v-6c0 -11 4 -18 16 -21c14 -5 26 -14 36 -26
c7 -9 12 -18 12 -28c0 -5 -1 -11 -4 -16c-6 -15 -19 -18 -34 -20c-27 -2 -28 -3 -28 -29c0 -104 4 -208 19 -311c2 -13 3 -26 13 -37c3 -3 4 -7 4 -10c0 -5 -3 -11 -9 -15c-10 -7 -20 -12 -31 -12c-4 0 -8 1 -13 2c-16 5 -30 13 -41 26c-25 31 -36 67 -42 104
c-12 67 -16 135 -16 202c1 10 1 19 1 29c0 9 0 19 -1 28c0 14 -3 18 -14 18h-4c-124 -6 -247 -15 -368 -42c-19 -4 -20 -6 -20 -25v-47z" />
    <glyph glyph-name="I" unicode="I" horiz-adv-x="310" 
d="M117 551v19c0 11 -3 18 -14 22c-24 9 -37 31 -37 53c0 18 8 37 26 51c37 30 81 48 129 52h8c23 0 44 -8 60 -27c8 -10 13 -23 13 -34c0 -15 -8 -28 -28 -34c-30 -8 -41 -27 -41 -54v-21c-4 -115 -6 -229 -12 -343c-3 -49 -3 -99 -3 -149v-75c0 -8 1 -16 1 -24
c0 -18 5 -33 26 -38c14 -4 25 -14 32 -27c3 -7 5 -13 5 -19c0 -9 -4 -17 -14 -25s-23 -14 -23 -30c0 -6 -7 -8 -13 -10c-2 0 -5 -1 -7 -1c-4 0 -7 1 -11 2c-6 1 -12 2 -18 2c-16 0 -31 -5 -46 -12c-14 -7 -29 -13 -45 -13c-30 1 -51 23 -51 51v7c3 29 22 47 45 60
c17 9 22 12 22 22c0 4 -1 10 -2 18c-7 33 -10 67 -11 100c-2 42 -4 85 -4 127v20c4 105 5 211 12 316v14h1z" />
    <glyph glyph-name="J" unicode="J" horiz-adv-x="752" 
d="M544 286c-1 82 -5 164 -9 245v81c0 17 -1 20 -14 20h-8c-88 -6 -174 -18 -258 -43c-38 -12 -74 -27 -103 -55c-2 -2 -4 -3 -6 -5c-12 -8 -25 -13 -37 -13c-11 0 -22 4 -31 11c-14 11 -22 28 -22 45c0 9 2 17 6 26c10 24 30 40 51 54c38 25 80 41 123 53
c76 21 154 33 233 40c31 3 62 4 93 4h29c27 0 54 -4 80 -10c18 -3 34 -11 49 -22c13 -10 23 -24 26 -41c1 -4 1 -8 1 -11c0 -19 -13 -30 -34 -30h-38c-18 0 -21 -3 -22 -20c0 -55 0 -110 3 -165c2 -62 6 -125 6 -187c0 -45 -2 -89 -8 -134c-8 -51 -22 -100 -48 -145
c-35 -59 -85 -98 -151 -117c-32 -9 -63 -13 -94 -13c-49 0 -98 11 -145 35c-41 22 -74 53 -95 96c-13 27 -18 56 -18 85c0 15 1 29 3 44c0 2 0 5 1 7c3 9 9 14 15 14c4 0 10 -3 15 -9c3 -3 5 -7 8 -11c17 -24 35 -47 53 -70c43 -52 104 -75 162 -75c24 0 48 4 69 11
c28 9 50 26 67 49c19 27 31 57 38 89c9 47 10 94 10 141v26z" />
    <glyph glyph-name="K" unicode="K" horiz-adv-x="737" 
d="M173 327c43 87 106 158 176 221c66 60 136 116 212 162c14 8 28 14 44 18c6 1 12 2 18 2c32 0 59 -20 69 -53c3 -12 6 -24 6 -36c0 -8 -1 -17 -4 -26c-8 -27 -29 -42 -53 -42c-11 0 -22 3 -32 9c-6 4 -11 7 -17 7c-4 0 -8 -1 -12 -5c-97 -71 -192 -144 -262 -243
c-14 -20 -27 -41 -36 -63c-6 -14 -9 -26 -9 -37c0 -18 8 -33 26 -50c30 -29 66 -49 104 -66c59 -27 120 -50 184 -66c31 -8 62 -17 92 -30c15 -7 29 -16 41 -27c8 -7 11 -14 11 -19c0 -8 -6 -14 -18 -18c-27 -10 -55 -16 -84 -16c-9 0 -18 1 -27 2c-113 13 -219 47 -316 105
c-44 27 -84 59 -115 103v-34c3 -53 5 -105 9 -158c2 -35 5 -71 13 -105c3 -14 8 -27 20 -36c6 -4 9 -9 9 -13c0 -5 -3 -9 -8 -15c-12 -12 -28 -19 -44 -19c-14 0 -28 5 -40 14c-20 15 -33 36 -41 59c-14 38 -20 78 -24 118c-9 81 -11 163 -11 244c0 59 1 117 2 176
c2 56 8 111 11 167c1 3 1 5 1 8s0 6 -1 8c-2 10 -3 19 -3 28c0 24 6 48 13 70c9 28 31 44 55 44c10 0 20 -2 29 -7c23 -13 31 -35 31 -59v-4c-5 -65 -10 -130 -16 -195c-1 -20 -1 -41 -1 -61c0 -21 0 -41 -2 -62z" />
    <glyph glyph-name="L" unicode="L" horiz-adv-x="822" 
d="M389 -174c-52 0 -102 7 -150 26c-53 21 -92 57 -119 106c-30 53 -45 111 -53 171c-7 51 -10 102 -10 152c0 73 6 146 17 219c7 53 17 106 27 159c2 10 5 21 8 32c10 30 32 48 58 48c4 0 7 0 11 -1c30 -6 50 -34 50 -66v-7c-1 -4 -1 -9 -3 -14c-20 -43 -23 -91 -31 -137
c-13 -75 -21 -151 -21 -228v-24c2 -61 6 -122 22 -182c7 -26 17 -51 32 -74c13 -22 32 -38 57 -47c35 -12 70 -17 106 -17c13 0 25 1 38 2c91 7 175 37 260 67c34 12 68 24 102 39c5 2 10 4 15 5h2c8 0 13 -5 13 -12c0 -2 0 -3 -1 -5c-2 -5 -5 -10 -8 -14
c-33 -53 -77 -93 -132 -122c-90 -48 -187 -74 -290 -76z" />
    <glyph glyph-name="M" unicode="M" horiz-adv-x="915" 
d="M785 564c-21 -25 -37 -51 -53 -77c-63 -103 -104 -214 -140 -327c-15 -49 -27 -99 -48 -146c-7 -17 -16 -33 -28 -47c-19 -21 -42 -31 -64 -31c-26 0 -51 13 -69 38c-12 17 -21 35 -29 54c-32 80 -51 164 -71 247c-19 82 -35 164 -60 243c-2 5 -2 11 -9 17
c-3 -14 -7 -26 -10 -38c-13 -62 -20 -126 -25 -189c-6 -85 -8 -169 -8 -253v-63c0 -16 1 -30 7 -44c4 -9 6 -18 6 -27c0 -17 -7 -34 -17 -50s-25 -25 -44 -25c-2 0 -5 1 -8 1c-24 2 -40 15 -49 36c-6 14 -9 28 -9 43c-3 46 -5 92 -5 138c0 27 1 55 3 82c3 44 3 88 5 132
c5 81 12 162 30 241c9 43 21 84 41 123c6 13 13 25 23 36c17 19 39 28 61 28c23 0 47 -11 64 -33c21 -26 34 -57 45 -88c26 -75 42 -152 60 -229c19 -81 37 -162 63 -242c2 -8 2 -17 12 -23c10 8 13 20 17 30c29 67 54 134 84 201c35 77 74 153 114 228c18 34 36 68 53 102
c10 20 21 37 37 52c17 15 36 22 54 22c27 0 52 -15 67 -44c11 -21 15 -44 17 -66c3 -26 5 -52 6 -78c1 -24 1 -48 1 -72c0 -101 -5 -203 -7 -304c-2 -55 -3 -109 -3 -164c0 -32 1 -64 1 -95c1 -37 1 -74 11 -111c1 -4 1 -7 1 -11c0 -12 -5 -22 -15 -31
c-9 -7 -19 -10 -28 -10c-7 0 -14 1 -21 4c-19 9 -30 25 -38 44c-8 18 -13 39 -16 59c-5 36 -10 73 -10 110c0 38 -1 76 -1 114c0 46 1 93 3 139c2 71 1 142 4 213c1 11 1 22 1 33c0 29 -2 58 -2 87c0 2 1 5 1 7c0 4 -1 8 -5 14z" />
    <glyph glyph-name="N" unicode="N" horiz-adv-x="857" 
d="M188 23c10 27 20 52 30 76c25 64 60 123 93 183c70 126 149 245 234 360c18 25 40 45 68 58c17 7 33 11 49 11c38 0 71 -20 92 -58c22 -37 28 -79 30 -120c2 -38 3 -76 3 -114c0 -21 0 -41 -1 -61c-1 -29 -2 -58 -2 -87c0 -30 1 -59 1 -88c1 -73 4 -146 14 -219
c1 -9 3 -18 4 -28c2 -7 6 -11 11 -11c2 0 4 0 6 1c3 1 5 1 7 2c4 1 7 1 10 1c11 0 17 -6 17 -17c0 -3 0 -6 -1 -10c-3 -19 -9 -38 -20 -54c-14 -19 -34 -29 -55 -29c-15 0 -30 5 -43 16c-22 18 -33 42 -40 68c-13 44 -17 90 -21 135c-4 51 -5 102 -5 154c0 51 1 102 1 153
c0 53 0 106 -1 158c0 23 -3 46 -8 68c-2 12 -5 16 -9 16s-8 -1 -14 -5c-33 -17 -58 -43 -82 -71c-63 -73 -112 -155 -149 -245c-41 -96 -73 -196 -114 -292c-16 -38 -31 -76 -57 -109c-18 -22 -42 -34 -66 -34c-12 0 -24 3 -35 9c-21 11 -33 30 -42 52c-12 30 -18 62 -23 94
c-9 66 -13 132 -16 198c-1 25 -2 50 -2 76c0 47 2 95 4 143c2 58 7 116 18 174c2 14 6 29 13 42c13 26 35 39 58 39c21 0 41 -10 55 -31c9 -12 16 -26 19 -41c1 -7 2 -13 2 -20c0 -19 -7 -36 -26 -48c-12 -9 -15 -19 -16 -32c-7 -69 -10 -138 -10 -208c0 -36 1 -72 2 -108
c1 -44 6 -88 10 -132c0 -4 0 -9 7 -15z" />
    <glyph glyph-name="O" unicode="O" horiz-adv-x="747" 
d="M358 735c111 0 203 -38 277 -117c55 -59 84 -131 95 -210c4 -26 6 -52 6 -78c0 -88 -22 -173 -55 -257c-23 -58 -55 -110 -99 -154c-58 -60 -126 -102 -212 -106h-13c-63 0 -119 21 -167 64c-58 51 -88 117 -104 192c-6 31 -9 62 -9 94c0 39 4 78 11 117
c15 92 43 181 86 264c7 14 16 27 28 38c11 10 26 15 40 15c12 0 24 -4 34 -11c22 -15 33 -37 33 -59s-11 -44 -34 -59c-9 -5 -14 -12 -18 -21c-37 -90 -62 -183 -62 -279c0 -15 1 -30 2 -45c3 -51 19 -99 51 -140c28 -35 69 -54 111 -54c20 0 39 4 58 12c39 18 72 45 99 78
c53 68 80 146 95 229c5 29 8 58 8 87c0 32 -4 64 -12 96c-30 113 -123 186 -240 188h-5c-87 0 -170 -24 -248 -60c-10 -5 -18 -13 -26 -20c-6 -5 -11 -7 -15 -7c-5 0 -10 5 -14 14c-5 11 -7 22 -7 33c0 10 2 21 6 31c10 24 24 43 44 58c21 15 43 27 67 35
c60 22 123 32 185 32h4z" />
    <glyph glyph-name="P" unicode="P" horiz-adv-x="867" 
d="M177 242c3 10 6 21 9 31c33 111 79 216 151 308c50 64 110 117 185 150c41 19 84 30 127 30c28 0 56 -5 84 -15c75 -26 121 -93 121 -168c0 -11 -1 -23 -3 -34c-11 -62 -41 -114 -81 -160c-89 -103 -199 -174 -325 -220c-19 -7 -38 -11 -58 -14c-12 -2 -24 -3 -35 -3
c-42 0 -71 16 -101 54c-7 -1 -6 -8 -7 -13c-8 -42 -12 -84 -15 -126c-1 -18 -2 -35 -2 -53c0 -27 1 -55 2 -82v-8c0 -19 -3 -38 -12 -56c-12 -22 -29 -38 -56 -38h-2c-27 1 -46 14 -57 38c-5 10 -9 21 -11 32c-5 19 -10 39 -13 60c-18 102 -25 205 -25 308c0 33 1 66 2 99
c3 79 8 159 22 237c3 16 6 33 13 48c12 26 32 43 62 43h2c26 0 53 -20 63 -46c4 -9 6 -18 6 -27c0 -15 -7 -28 -20 -40c-11 -10 -15 -21 -17 -35c-8 -64 -12 -129 -12 -194c0 -35 1 -70 3 -106zM331 256c3 0 9 0 15 1s11 2 17 3c121 32 223 98 308 188c31 32 56 71 65 116
c1 5 2 10 2 15c0 21 -10 38 -29 50c-14 9 -29 13 -45 14h-13c-38 0 -74 -11 -108 -27c-65 -31 -115 -78 -161 -133c-43 -51 -76 -109 -102 -171c-2 -6 -5 -11 -5 -17v-4c5 -18 30 -35 54 -35h2z" />
    <glyph glyph-name="Q" unicode="Q" horiz-adv-x="763" 
d="M202 606c-20 1 -29 6 -29 19c0 5 1 12 4 20c12 31 35 49 66 61c20 7 41 11 62 11c11 0 22 -1 33 -3c115 -20 213 -71 289 -161c34 -41 54 -88 67 -139c11 -46 16 -92 16 -138c0 -35 -3 -69 -8 -104c-7 -48 -19 -96 -37 -141c-3 -6 -4 -11 -4 -14c0 -5 4 -7 14 -11
c20 -7 38 -17 54 -29c15 -12 25 -27 29 -45c1 -4 1 -7 1 -10c0 -20 -13 -31 -35 -31h-5c-31 0 -61 7 -90 15c-6 2 -11 2 -16 2c-14 0 -24 -6 -35 -18c-39 -47 -88 -81 -144 -105c-32 -14 -65 -20 -98 -20c-78 0 -153 37 -204 103c-40 52 -62 111 -71 175c-5 31 -7 62 -7 93
c0 40 4 81 10 121c12 79 32 156 63 229c18 42 39 81 71 114c2 1 2 4 4 6zM460 -64c-16 9 -30 8 -43 9c-26 3 -52 8 -79 8c-11 0 -23 -1 -34 -3c-4 -1 -7 -1 -11 -1c-25 0 -46 15 -54 39c-2 6 -3 12 -3 18c0 22 13 42 35 53c17 9 36 11 54 11h10c62 -2 122 -12 183 -23
c7 -1 12 -2 16 -2c10 0 13 5 20 21c25 67 40 135 40 204c0 42 -6 84 -17 127c-11 42 -31 78 -62 107c-57 52 -124 83 -199 99h-4c-1 0 -3 0 -5 -2v-4c13 -21 16 -45 16 -69c0 -11 0 -22 -1 -32c-3 -35 -26 -56 -59 -56h-9c-5 1 -8 1 -11 1c-9 0 -11 -3 -16 -17
c-14 -37 -26 -75 -35 -113c-12 -58 -21 -117 -21 -177c0 -23 1 -46 4 -69c7 -47 21 -91 51 -128c26 -34 61 -53 105 -55h3c49 0 87 23 126 54z" />
    <glyph glyph-name="R" unicode="R" horiz-adv-x="794" 
d="M385 249c20 -17 40 -28 61 -39c65 -34 130 -67 199 -92c26 -9 50 -20 73 -34c14 -9 21 -16 21 -23c0 -8 -7 -15 -22 -24c-23 -14 -46 -20 -71 -20c-14 0 -29 2 -43 5c-47 10 -92 28 -136 47c-57 26 -113 56 -163 95c-11 8 -20 17 -32 26c-6 -8 -6 -17 -8 -25
c-11 -56 -17 -112 -24 -168c-4 -31 -9 -61 -15 -91c-3 -15 -8 -29 -16 -42c-13 -22 -32 -36 -56 -36h-3c-27 0 -48 14 -60 39c-8 16 -13 33 -17 51c-11 52 -16 105 -18 157c-1 29 -2 58 -2 87c0 113 8 225 25 337c3 19 6 39 12 58c12 34 34 53 62 53h2c29 -2 53 -23 63 -56
c2 -7 3 -15 3 -22c0 -15 -5 -30 -17 -42c-5 -5 -10 -10 -11 -18c-7 -46 -13 -93 -14 -145c9 11 10 21 13 29c35 102 88 194 168 267c65 60 140 102 229 114c10 1 19 2 29 2c28 0 55 -6 82 -16c53 -22 84 -69 84 -123c0 -10 -1 -20 -3 -30c-12 -52 -41 -94 -77 -131
c-60 -61 -132 -105 -209 -140c-30 -14 -61 -26 -91 -39c-6 -2 -12 -3 -18 -11zM326 356c76 28 152 59 221 105c37 24 71 52 97 89c8 11 16 23 19 37c1 4 1 7 1 10c0 11 -5 17 -18 21c-11 2 -21 4 -33 4h-7c-50 -6 -94 -27 -134 -56c-69 -50 -116 -118 -151 -196
c-1 -3 -2 -5 -2 -9c0 -1 0 -3 1 -5h6z" />
    <glyph glyph-name="S" unicode="S" horiz-adv-x="716" 
d="M365 -175c-23 0 -47 6 -68 21c-15 11 -24 25 -25 44c0 13 5 20 16 20c3 0 5 -1 8 -1c3 -1 7 -1 10 -1c5 0 10 1 15 3c57 25 115 46 169 79c21 13 42 28 61 44c9 8 17 16 23 27c3 6 4 11 4 15c0 8 -4 15 -14 21c-19 11 -40 14 -61 16c-53 6 -107 8 -160 10
c-55 3 -109 7 -161 23c-26 7 -49 18 -70 34c-39 33 -55 73 -55 119c0 13 1 27 4 41c9 48 31 91 57 132c47 75 101 144 166 205c35 33 73 63 119 80c17 6 34 10 53 10c49 -3 90 -43 91 -89c0 -25 -9 -45 -32 -56c-8 -4 -16 -6 -23 -6c-14 0 -26 7 -38 17c-9 7 -13 11 -18 11
c-4 0 -9 -3 -19 -9c-39 -25 -70 -58 -101 -92c-40 -45 -76 -92 -106 -144c-15 -25 -28 -50 -34 -78c-2 -8 -3 -14 -3 -20c0 -22 12 -34 39 -43c28 -9 57 -12 86 -15c37 -2 73 -5 110 -6c48 -2 95 -3 141 -13c31 -7 60 -16 86 -33c41 -29 63 -70 63 -113
c0 -25 -8 -51 -23 -76c-16 -26 -36 -47 -59 -65c-54 -44 -113 -79 -180 -100c-22 -7 -45 -12 -71 -12z" />
    <glyph glyph-name="T" unicode="T" horiz-adv-x="824" 
d="M397 292c1 99 9 198 20 296c0 3 1 5 1 7c0 3 1 5 1 8c0 8 -3 11 -10 11c-3 0 -6 0 -9 -1c-87 -14 -174 -27 -255 -67c-5 -3 -11 -6 -17 -7c-7 -2 -14 -3 -20 -3c-18 0 -35 8 -45 24c-6 9 -9 20 -9 30c0 14 5 27 14 38c13 16 31 26 50 34c47 19 95 34 144 45
c102 22 204 35 308 35h22c49 0 98 -4 145 -17c22 -7 42 -15 59 -29s27 -31 27 -53v-2c0 -26 -18 -46 -42 -50c-3 0 -7 -1 -10 -1c-6 0 -11 1 -15 5c-17 16 -38 19 -59 22c-35 6 -69 7 -104 7h-37c-14 0 -17 -1 -17 -10v-7c0 -14 -2 -27 -5 -40c-7 -35 -9 -70 -12 -105
c-5 -52 -7 -105 -7 -157c0 -31 1 -62 2 -93c3 -93 11 -186 28 -277c2 -13 6 -26 9 -39c2 -11 5 -21 21 -21h1c7 0 11 -7 11 -14v-11c0 -22 -5 -41 -25 -54c-10 -7 -21 -10 -32 -10c-12 0 -23 4 -35 11c-24 14 -37 38 -47 63c-17 43 -25 89 -31 135c-12 99 -19 198 -20 297z
" />
    <glyph glyph-name="U" unicode="U" horiz-adv-x="738" 
d="M594 250c-10 -7 -11 -14 -14 -21c-21 -48 -45 -95 -70 -142c-34 -66 -81 -121 -140 -166c-13 -10 -26 -18 -40 -25c-29 -15 -58 -23 -86 -23c-56 0 -107 32 -139 91c-22 40 -33 83 -41 128c-6 34 -8 67 -8 100c0 47 5 95 11 142c10 80 28 158 46 236c3 12 6 23 12 33
c12 20 32 30 52 30s40 -10 51 -31c8 -16 14 -33 14 -49s-6 -32 -19 -48c-5 -5 -8 -12 -10 -19c-21 -96 -40 -193 -40 -292c0 -12 0 -23 1 -35c2 -41 10 -81 24 -120c6 -16 15 -29 28 -41c7 -5 13 -8 21 -8c3 0 6 0 9 1c20 5 36 16 52 28c20 17 39 35 55 55
c57 75 112 150 154 234c32 67 55 136 67 209c7 39 18 78 27 117c3 12 9 24 18 33c12 12 25 19 41 19c5 0 11 -1 17 -3c22 -8 37 -24 40 -48c1 -6 1 -13 1 -19c0 -10 -1 -20 -2 -31c-7 -58 -11 -117 -13 -176c-1 -37 -3 -75 -3 -112v-18c2 -108 3 -216 13 -323
c4 -35 8 -70 12 -106v-5c0 -19 -13 -33 -32 -33c-2 0 -5 0 -8 1c-12 2 -22 8 -31 16c-14 14 -23 30 -30 48c-15 40 -20 82 -26 124c-10 78 -14 155 -14 233v16z" />
    <glyph glyph-name="V" unicode="V" horiz-adv-x="729" 
d="M729 568c-1 -48 -8 -96 -15 -143c-7 -53 -13 -106 -27 -158c-25 -88 -55 -174 -92 -258c-19 -40 -42 -78 -70 -112c-16 -20 -34 -37 -56 -50c-28 -18 -58 -27 -87 -27c-37 0 -73 14 -105 42c-38 34 -67 74 -91 119c-50 94 -81 195 -102 299c-16 80 -27 160 -32 241
c0 7 -1 14 -1 21c0 14 1 27 6 40c9 25 32 39 55 39c12 0 23 -3 34 -10c12 -8 19 -20 23 -32c8 -26 15 -52 22 -78c1 -4 2 -9 2 -13c0 -11 -3 -21 -9 -30c-5 -8 -7 -15 -7 -23c0 -3 0 -7 1 -10c13 -92 30 -182 60 -270c19 -55 42 -109 75 -157c12 -18 24 -35 41 -48
c12 -9 21 -13 30 -13s18 4 29 13c20 15 34 35 47 56c29 46 50 96 67 148c37 109 77 216 110 327c11 35 19 71 28 107c4 15 9 30 16 44c4 9 8 17 19 17h2c12 -1 17 -10 20 -20c7 -20 7 -40 7 -61z" />
    <glyph glyph-name="W" unicode="W" horiz-adv-x="989" 
d="M442 158c-9 -7 -9 -15 -12 -22c-21 -55 -43 -109 -71 -160c-15 -29 -34 -55 -58 -77c-23 -21 -48 -31 -72 -31c-26 0 -52 11 -75 34c-27 26 -42 59 -54 93c-19 55 -29 111 -36 169c-4 41 -7 81 -7 121c0 89 11 178 34 265c5 19 12 38 18 56c6 16 14 30 27 42
c14 13 31 20 48 20s33 -6 47 -19c24 -23 38 -60 38 -96c0 -21 -5 -42 -15 -59c-8 -14 -16 -21 -27 -21c-5 0 -12 2 -20 6c-3 1 -5 2 -7 2c-5 0 -7 -4 -8 -11c-11 -62 -18 -125 -18 -188c0 -20 1 -41 2 -61c5 -54 12 -108 26 -161c5 -19 10 -38 20 -55c3 -6 5 -8 8 -8
s6 2 9 7c15 20 27 42 37 65c34 72 59 148 88 222c10 25 20 52 34 75c12 21 30 34 55 34h5c27 -1 45 -17 57 -40c4 -8 6 -17 8 -25c5 -21 11 -43 15 -64c16 -79 40 -154 80 -224c11 -21 24 -41 41 -57c4 -4 7 -7 11 -10c16 -12 28 -19 40 -19c13 0 26 7 44 24
c19 19 31 43 41 68c25 58 38 118 50 180c15 81 26 164 26 247v11c0 30 -4 59 -12 88c-4 14 -8 27 -21 36c-6 4 -9 7 -9 11c0 5 3 9 8 14c11 12 28 19 46 19c9 0 19 -2 28 -6c27 -12 43 -33 54 -59c15 -36 20 -73 21 -111v-27c0 -89 -13 -177 -30 -263
c-13 -65 -28 -130 -55 -191c-21 -46 -47 -88 -88 -120c-32 -25 -67 -37 -102 -37c-30 0 -61 9 -90 27c-49 30 -82 75 -109 125c-24 44 -44 90 -59 138c-3 8 -4 16 -11 23z" />
    <glyph glyph-name="X" unicode="X" horiz-adv-x="724" 
d="M640 -174c-37 2 -67 15 -95 32c-38 24 -71 54 -101 88c-47 53 -89 110 -128 170c-1 2 -2 4 -4 6c-8 11 -12 17 -16 17s-8 -6 -15 -16c-40 -55 -78 -111 -114 -168c-12 -20 -25 -38 -39 -56c-5 -6 -9 -12 -15 -16c-8 -7 -16 -10 -24 -10c-12 0 -23 7 -30 21
c-5 11 -8 22 -8 33c0 4 1 7 1 11c4 29 15 55 28 80c35 73 81 140 129 205c3 4 6 8 9 11c6 7 9 14 9 21c0 5 -2 11 -5 18c-44 82 -83 166 -120 251c-8 17 -18 32 -26 48c-5 10 -7 19 -7 29c0 12 4 24 14 35c12 15 28 22 44 22c17 0 35 -8 48 -24c13 -17 22 -37 30 -56
c30 -65 59 -131 91 -195c2 -3 4 -7 6 -10c5 -9 7 -13 10 -13s6 3 12 10c22 27 44 54 66 80c51 58 100 117 155 172c9 10 19 19 31 25c10 4 20 7 31 7c12 0 24 -4 36 -14c15 -12 22 -27 22 -44c0 -6 -1 -12 -3 -19c-9 -32 -25 -60 -60 -71c-12 -4 -19 -13 -27 -22
c-51 -57 -102 -115 -151 -175c-13 -17 -26 -34 -40 -50c-5 -5 -7 -10 -7 -16c0 -4 2 -9 5 -15c51 -81 106 -157 169 -228c17 -19 36 -35 55 -51c22 -17 47 -27 75 -27h13c17 -2 26 -9 26 -24c0 -3 0 -6 -1 -10c-3 -19 -13 -35 -30 -46c-16 -11 -34 -15 -49 -16z" />
    <glyph glyph-name="Y" unicode="Y" horiz-adv-x="702" 
d="M380 68c2 30 0 64 4 98v5c0 7 -2 10 -8 10c-2 0 -5 0 -8 -1c-8 -1 -16 -2 -24 -2c-46 0 -85 20 -118 55c-27 28 -49 59 -68 93c-17 28 -31 57 -46 85c-6 13 -13 25 -25 34c-4 3 -9 7 -11 12c-14 26 -22 54 -22 83c0 8 1 16 2 24c5 27 30 43 56 43c13 0 27 -4 38 -13
c11 -10 18 -22 24 -35c20 -45 39 -91 62 -135c18 -33 36 -66 60 -96c7 -9 16 -18 25 -25c6 -5 12 -7 19 -7c6 0 12 2 18 6c11 6 20 15 29 23c66 62 114 137 159 214c22 37 38 76 57 114c7 15 14 30 22 44c7 13 15 24 25 34c8 8 16 13 23 13c9 0 16 -8 21 -23
c5 -16 7 -32 7 -48v-10c-4 -48 -19 -93 -38 -136c-37 -84 -84 -162 -144 -232c-12 -13 -15 -26 -15 -44c0 -50 -4 -99 -6 -149c-1 -18 -2 -37 -2 -55c0 -45 4 -89 10 -133c3 -16 7 -31 23 -40c7 -4 9 -10 9 -17c0 -3 0 -5 -1 -8c-4 -27 -28 -46 -55 -46c-4 0 -7 0 -11 1
c-24 6 -43 20 -55 42c-18 30 -26 64 -31 98c-5 40 -5 80 -5 124z" />
    <glyph glyph-name="Z" unicode="Z" horiz-adv-x="719" 
d="M282 -22c3 -3 6 -4 9 -4c4 0 8 1 12 2c76 13 152 28 228 37c20 3 40 4 60 4c10 0 20 0 30 -1c20 -2 39 -7 55 -19c9 -7 14 -14 14 -21s-4 -14 -13 -22c-21 -18 -47 -28 -74 -35c-71 -20 -144 -33 -217 -46c-46 -9 -93 -17 -140 -22c-7 -1 -13 -1 -20 -1
c-13 0 -25 1 -38 4c-39 10 -62 40 -62 76c0 8 1 16 3 24c4 17 13 32 22 47c25 38 55 73 85 107c73 85 150 166 220 253c37 46 72 94 101 145c15 26 28 52 34 80c1 7 2 12 2 17c0 14 -8 19 -28 21c-12 2 -24 2 -35 2c-30 0 -59 -4 -87 -9c-79 -13 -156 -33 -229 -64
c-15 -6 -27 -14 -37 -28c-13 -18 -31 -27 -52 -27c-5 0 -11 1 -17 2c-25 5 -45 19 -51 46c-2 6 -2 12 -2 18c0 20 9 37 27 50c31 23 66 38 101 52c103 41 210 66 320 76c12 1 24 2 35 2c28 0 55 -4 82 -13c60 -20 91 -64 91 -122c0 -8 0 -15 -1 -23
c-8 -59 -35 -110 -65 -160c-46 -75 -101 -143 -158 -209c-64 -75 -132 -146 -195 -222c-4 -6 -10 -10 -10 -17z" />
    <glyph glyph-name="bracketleft" unicode="[" horiz-adv-x="453" 
d="M62 72c0 105 7 194 13 283c7 92 18 183 31 274c0 3 1 5 1 8c0 10 -5 17 -16 24c-21 11 -31 29 -31 48c0 18 10 37 30 49c11 6 23 10 36 12c54 10 108 15 163 15c15 0 29 0 44 -1c27 -1 53 -7 76 -22c18 -10 33 -25 38 -46c1 -5 2 -9 2 -13c0 -13 -8 -20 -25 -25
c-28 -7 -57 -9 -86 -9c-17 0 -33 1 -49 1c-12 0 -24 -1 -36 -2c-21 -3 -24 -5 -27 -26c-10 -63 -19 -126 -25 -190c-10 -99 -16 -199 -21 -299c-1 -27 -2 -55 -2 -83s1 -56 4 -84c1 -14 4 -28 7 -42c3 -18 15 -26 33 -28h11c9 0 18 0 26 1c53 6 104 20 154 37c7 2 15 5 23 7
h2c6 0 10 -3 10 -7c0 -2 -1 -5 -2 -7c-2 -4 -5 -8 -8 -12c-52 -57 -114 -98 -191 -115c-18 -4 -36 -6 -55 -6h-11c-38 0 -65 19 -84 51c-13 21 -20 44 -25 68c-9 44 -10 87 -10 121v18z" />
    <glyph glyph-name="backslash" unicode="\" horiz-adv-x="431" 
d="M430 -68v-13c0 -14 0 -27 -5 -41c-3 -9 -7 -17 -16 -23c-3 -2 -6 -3 -9 -3c-5 0 -8 3 -9 10c-5 27 -18 51 -29 75c-19 41 -39 81 -57 122c-62 146 -123 293 -193 436c-18 37 -35 75 -49 115c-4 12 -8 24 -10 36v7c0 26 14 48 39 56c6 2 12 3 18 3c19 0 38 -11 49 -29
c4 -7 6 -15 9 -22c9 -23 18 -46 28 -68c37 -81 74 -161 111 -242c37 -80 69 -162 94 -247c16 -56 27 -113 29 -172z" />
    <glyph glyph-name="bracketright" unicode="]" horiz-adv-x="454" 
d="M441 526c0 -105 -7 -194 -13 -282c-6 -92 -17 -183 -31 -275c0 -3 -1 -5 -1 -7c0 -11 5 -17 17 -24c20 -11 30 -29 30 -48s-10 -37 -30 -49c-11 -7 -23 -10 -36 -13c-52 -9 -106 -14 -159 -14c-16 0 -32 0 -48 1c-26 1 -53 7 -76 21c-18 11 -33 25 -38 46
c-1 5 -2 9 -2 12c0 14 9 22 25 26c28 7 57 10 87 10c14 0 28 -1 42 -1s28 1 42 2c22 2 24 4 27 26c11 63 19 126 25 189c10 100 17 199 21 299c1 30 2 60 2 90c0 26 -1 51 -3 77c-2 15 -5 28 -7 42c-4 18 -16 27 -34 28c-5 0 -10 1 -15 1c-8 0 -15 -1 -22 -2
c-53 -6 -104 -20 -154 -36c-7 -3 -15 -6 -22 -7h-4c-6 0 -9 3 -9 7c0 2 1 5 2 7c2 4 5 8 8 11c52 58 114 99 191 115c22 5 44 7 66 7c38 -1 66 -19 84 -51c13 -22 21 -45 26 -69c8 -39 9 -78 9 -111v-28z" />
    <glyph glyph-name="asciicircum" unicode="^" horiz-adv-x="424" 
d="M379 766c-17 1 -32 7 -46 15c-25 14 -44 34 -60 56c-16 21 -31 44 -47 65c-5 7 -8 11 -12 11c-3 0 -6 -4 -12 -11c-14 -22 -25 -46 -36 -69c-5 -9 -10 -20 -17 -28c-11 -14 -27 -21 -42 -21c-10 0 -20 3 -29 10c-14 10 -21 24 -21 39c0 12 4 23 12 34c13 16 27 30 42 45
c20 21 39 42 61 62c21 19 42 28 63 28c23 0 46 -11 67 -35c11 -13 20 -27 29 -42c18 -31 36 -61 54 -92c8 -12 16 -25 27 -35c5 -5 8 -9 8 -12c0 -5 -4 -9 -11 -13c-9 -5 -19 -7 -30 -7z" />
    <glyph glyph-name="underscore" unicode="_" horiz-adv-x="710" 
d="M496 -118c-68 0 -136 -3 -204 -6c-36 -1 -72 -7 -108 -11c-14 -2 -28 -3 -42 -3c-8 0 -16 1 -24 1c-10 1 -20 3 -30 7c-19 8 -28 24 -28 41c0 13 6 26 18 37c9 8 21 13 33 17c32 12 65 17 99 20c49 6 99 9 148 11h14c62 0 123 -12 183 -21c34 -5 67 -12 98 -26
c15 -6 30 -15 42 -26c5 -6 12 -13 12 -22c0 -2 -1 -4 -2 -7c-4 -12 -16 -12 -26 -12c-20 -1 -41 -1 -61 -1c-28 0 -55 0 -83 1h-39z" />
    <glyph glyph-name="grave" unicode="`" horiz-adv-x="292" 
d="M51 962c0 26 19 43 42 43c4 0 8 0 12 -1c14 -4 25 -12 35 -23c9 -11 18 -22 28 -32c31 -36 62 -71 89 -110c13 -17 24 -35 30 -55c1 -3 2 -7 2 -11c0 -3 -1 -6 -5 -9c-1 -1 -3 -1 -4 -1c-4 0 -8 4 -12 7c-29 20 -57 39 -85 59c-40 29 -76 61 -112 94
c-11 10 -20 23 -20 37v2z" />
    <glyph glyph-name="a" unicode="a" horiz-adv-x="555" 
d="M382 160c-4 35 -8 70 -21 103c-5 12 -14 17 -28 17h-5c-16 0 -30 -5 -45 -10c-38 -14 -71 -34 -95 -68c-3 -5 -8 -10 -12 -14c-11 -11 -25 -16 -39 -16c-8 0 -16 1 -24 5c-19 10 -31 31 -31 53v7c2 15 9 28 17 41c17 24 38 44 63 60c48 31 100 53 158 59c5 1 11 1 16 1
c56 0 103 -29 129 -81c16 -31 22 -65 27 -100c7 -46 14 -91 16 -138c1 -15 2 -17 11 -17h9c4 0 8 2 12 2c5 0 9 -2 11 -7c1 -2 1 -3 1 -4c0 -8 -8 -12 -13 -17s-11 -9 -17 -13c-10 -8 -19 -16 -24 -29c-6 -14 -17 -22 -32 -22h-9c-10 0 -19 -4 -28 -9
c-57 -30 -117 -55 -176 -80c-23 -9 -47 -14 -71 -17c-7 -1 -13 -1 -20 -1c-10 0 -21 1 -31 4c-44 11 -74 49 -74 92c0 5 1 11 2 17c7 39 28 70 52 99c50 58 115 87 190 94h9c17 0 33 -4 49 -7c6 -2 11 -5 18 -5c1 0 3 1 5 1zM192 -14c68 10 134 30 199 49c6 2 8 5 8 10
c0 1 0 3 -1 5c-2 9 -5 16 -12 22c-14 11 -29 18 -46 18c-6 0 -13 -1 -20 -3c-20 -7 -38 -15 -55 -28c-23 -17 -45 -37 -64 -58c-4 -4 -9 -7 -9 -13v-2z" />
    <glyph glyph-name="b" unicode="b" horiz-adv-x="636" 
d="M175 321c8 0 11 4 16 7c77 44 159 70 247 74h9c57 0 108 -18 146 -65c26 -32 37 -68 37 -106c0 -14 -1 -28 -4 -43c-10 -55 -37 -102 -72 -145c-48 -58 -106 -105 -172 -142c-35 -20 -72 -33 -113 -33h-8c-16 1 -32 5 -44 16c-9 9 -13 18 -13 28c0 4 1 8 2 13
c3 9 7 16 15 16c3 0 5 -1 8 -2c2 -1 3 -1 5 -1c4 0 8 2 12 5c67 49 140 92 198 152c26 26 47 55 61 90c4 11 7 22 8 34v9c0 32 -20 54 -54 57c-5 0 -11 1 -16 1c-19 0 -38 -3 -57 -7c-76 -15 -143 -49 -199 -101c-14 -13 -21 -26 -21 -46c0 -16 1 -33 1 -49
c0 -37 -2 -74 -5 -111c-3 -28 -9 -55 -9 -83v-6c0 -9 -4 -14 -13 -14c-2 0 -4 0 -7 1c-17 4 -28 16 -37 30c-12 19 -20 38 -26 59c-12 44 -18 89 -18 135c-1 40 -1 81 -1 121c0 30 0 59 1 89c4 102 9 203 23 304c1 8 3 17 5 25c9 28 31 45 56 45c4 0 9 0 13 -1
c27 -6 44 -31 44 -62v-7c-3 -22 -6 -45 -8 -68c-3 -28 -6 -56 -8 -84c-3 -40 -4 -80 -6 -121c0 -4 0 -9 1 -14h3z" />
    <glyph glyph-name="c" unicode="c" horiz-adv-x="588" 
d="M194 -117c-84 6 -138 63 -142 147v13c0 38 8 75 22 110c28 67 67 126 120 176c25 24 53 45 85 58c21 8 42 13 62 13c27 0 52 -8 77 -26c22 -16 33 -36 33 -60c0 -4 0 -8 -1 -12c-3 -26 -19 -43 -45 -43c-2 0 -5 1 -8 1c-14 1 -27 5 -38 13c-7 6 -15 8 -22 8
c-8 0 -16 -2 -24 -7c-9 -6 -19 -11 -27 -19c-51 -45 -89 -99 -110 -164c-4 -14 -8 -29 -8 -43c0 -6 1 -12 2 -18c4 -22 11 -29 34 -31c7 -1 13 -1 20 -1c17 0 34 2 51 6c84 18 169 35 249 72c12 6 25 12 38 18c4 2 8 4 12 4c3 0 6 -2 9 -5c1 -2 2 -4 2 -6c0 -5 -3 -9 -6 -13
c-24 -34 -51 -64 -83 -90c-79 -65 -169 -100 -271 -101h-31z" />
    <glyph glyph-name="d" unicode="d" horiz-adv-x="561" 
d="M430 13c-20 -22 -37 -40 -57 -55c-58 -44 -124 -68 -195 -78c-6 -1 -11 -1 -16 -1c-44 0 -80 25 -97 67c-8 21 -12 42 -12 63c0 9 0 18 2 28c17 103 66 188 151 250c34 26 72 40 113 40c11 0 21 -1 32 -3c18 -3 34 -9 51 -18c6 -4 13 -7 22 -12c5 22 5 42 6 62
c1 22 1 44 1 66c1 73 6 146 10 220c1 20 8 38 25 51c11 8 23 12 35 12c22 0 44 -14 53 -37c4 -8 6 -17 6 -25c0 -3 0 -6 -1 -9c-6 -60 -7 -120 -9 -180c-4 -81 -5 -162 -5 -243s1 -162 1 -243c0 -26 0 -52 3 -78c1 -8 2 -17 2 -25c0 -14 -2 -29 -6 -43
c-4 -19 -14 -29 -28 -29c-6 0 -13 2 -21 6c-22 11 -34 30 -42 53c-11 33 -14 69 -18 104c-2 18 -4 35 -6 57zM430 57c-1 10 -2 19 -3 28c0 8 -2 15 -10 18c-26 11 -36 32 -43 58c-9 32 -28 49 -53 49c-11 0 -24 -4 -38 -12c-5 -2 -9 -4 -12 -7c-54 -44 -89 -99 -101 -169v-6
c0 -5 0 -10 1 -15c2 -13 11 -19 23 -20c5 0 11 0 16 1c71 9 139 29 206 52c10 4 14 10 14 18v5z" />
    <glyph glyph-name="e" unicode="e" horiz-adv-x="497" 
d="M184 21c10 -17 27 -20 43 -22c16 -1 32 -2 48 -2c19 0 37 1 56 3c50 7 100 15 145 41c3 1 6 3 10 3c2 0 5 -1 7 -4c2 -2 2 -4 2 -7s-1 -7 -3 -10c-12 -27 -30 -50 -54 -68c-49 -40 -107 -58 -169 -68c-14 -2 -28 -3 -42 -3s-28 1 -42 4c-58 13 -97 47 -118 102
c-9 24 -13 48 -13 72c0 14 1 28 4 42c24 107 82 188 182 237c25 12 51 20 79 20c11 0 22 -1 33 -4c57 -12 90 -60 90 -109c0 -8 -1 -16 -3 -24c-6 -24 -15 -46 -28 -67c-31 -47 -70 -85 -117 -115c-24 -15 -49 -27 -76 -27c-11 0 -22 2 -34 6zM197 130c9 0 16 1 22 4
c42 21 74 52 97 93c1 3 3 6 3 8s0 3 -1 4c-1 3 -3 3 -6 3c-2 0 -4 0 -6 -1c-19 -3 -34 -13 -49 -24c-30 -22 -52 -50 -68 -87h8z" />
    <glyph glyph-name="f" unicode="f" horiz-adv-x="442" 
d="M322 410c47 0 77 -20 94 -61c7 -16 11 -33 12 -51c0 -2 1 -5 1 -7c0 -9 -4 -18 -13 -24c-4 -2 -7 -3 -11 -3c-7 0 -14 3 -20 8c-13 9 -28 14 -43 17c-5 1 -9 2 -12 2c-7 0 -11 -3 -17 -13s-11 -21 -16 -32c-18 -47 -26 -97 -33 -147c0 -4 -1 -7 -1 -10c0 -8 2 -11 9 -11
c3 0 8 1 14 2c21 3 42 6 63 6c12 0 24 -1 36 -3c17 -2 33 -6 46 -17c5 -4 7 -8 7 -12s-3 -8 -11 -10c-53 -20 -100 -52 -152 -76c-13 -7 -16 -17 -16 -31v-13c0 -52 5 -104 11 -156c5 -46 7 -91 12 -137c1 -11 4 -23 7 -34c1 -3 1 -6 1 -8c0 -9 -5 -13 -14 -13h-5
c-15 2 -27 9 -38 18c-24 20 -41 43 -53 72c-19 44 -26 90 -31 137c-2 25 -3 49 -5 73c-1 10 -2 13 -7 13c-2 0 -5 -1 -9 -2c-2 -1 -3 -1 -5 -2c-8 -3 -16 -5 -24 -5c-13 0 -24 5 -34 16c-8 10 -12 21 -12 32c0 9 3 19 7 28c12 26 31 45 56 57c23 10 28 26 29 50
c4 84 18 167 53 246c14 33 34 63 66 83c18 11 36 18 54 18h4z" />
    <glyph glyph-name="g" unicode="g" horiz-adv-x="640" 
d="M504 230c-15 -8 -23 -22 -31 -35c-10 -17 -21 -33 -35 -47c-11 -11 -19 -25 -28 -37c-29 -41 -59 -81 -96 -114c-40 -36 -85 -60 -140 -62h-6c-67 0 -114 45 -117 114v6c0 35 9 68 25 99c35 67 86 119 155 153c23 11 47 18 73 21c6 1 13 1 19 1c33 0 64 -9 92 -30
c8 -7 13 -10 17 -10c5 0 8 6 14 19c5 10 9 21 14 32c6 16 16 29 28 40c14 12 30 18 46 18c22 0 43 -11 57 -32c9 -16 15 -33 19 -51c11 -46 17 -92 23 -139c4 -33 6 -67 6 -100c0 -12 0 -23 -1 -35c-5 -102 -25 -201 -75 -292c-31 -58 -69 -111 -118 -155
c-25 -22 -51 -39 -83 -47c-10 -3 -20 -4 -30 -4c-47 0 -83 33 -95 90v4c0 8 5 13 12 13c2 0 4 0 6 -1c6 -1 11 -4 15 -7c7 -4 15 -6 22 -6c9 0 18 3 27 8c38 23 69 53 95 88c50 65 82 138 97 220c7 41 11 82 11 123c0 46 -5 93 -12 140c-1 5 0 9 -6 15zM170 70
c0 -12 2 -17 9 -17c2 0 5 1 8 2c8 2 15 6 22 9c27 15 53 31 78 49c24 17 45 38 66 60c5 5 7 9 7 13s-2 7 -8 13c-9 9 -19 14 -30 14c-4 0 -9 -1 -13 -2c-67 -19 -110 -64 -136 -127c-2 -5 -2 -11 -3 -14z" />
    <glyph glyph-name="h" unicode="h" horiz-adv-x="582" 
d="M174 97c7 12 13 21 19 31c45 78 102 147 161 215c9 12 19 23 29 34c20 20 45 29 69 29c30 0 59 -14 79 -42c15 -22 23 -46 27 -72c3 -22 6 -44 6 -66v-14c0 -92 9 -184 17 -276v-9c0 -13 -1 -25 -2 -38c-1 -15 -15 -24 -31 -24h-4c-13 1 -24 7 -33 16
c-17 14 -26 33 -34 54c-14 41 -19 84 -23 127c-6 63 -4 126 -9 189c-1 6 -1 12 -2 18c-2 17 -9 25 -21 25c-4 0 -9 -1 -14 -3c-10 -2 -18 -8 -27 -14c-40 -29 -72 -65 -99 -106c-43 -64 -75 -132 -88 -208c-2 -9 -2 -18 -4 -28c-3 -31 -21 -52 -48 -56c-3 0 -6 -1 -9 -1
c-24 0 -47 16 -58 42c-7 18 -10 37 -12 55c-4 47 -8 95 -10 142c-1 20 -1 39 -1 59c0 88 5 176 11 264c3 42 6 85 13 127c2 13 5 26 10 38c11 23 31 35 53 35c7 0 15 -1 22 -4c23 -8 38 -30 38 -54c0 -6 -1 -11 -3 -17c-9 -28 -11 -57 -13 -86c-8 -95 -12 -190 -12 -285
c0 -29 0 -59 1 -88c0 -1 0 -3 2 -9z" />
    <glyph glyph-name="i" unicode="i" horiz-adv-x="193" 
d="M64 121c2 49 3 91 5 132c1 9 2 17 5 26c6 23 26 39 49 40h5c23 0 42 -13 52 -34c5 -11 7 -23 7 -35c0 -6 0 -12 -1 -18c-2 -32 -4 -63 -4 -95c0 -46 3 -92 9 -138c1 -9 2 -18 2 -27c0 -7 -1 -13 -1 -20c-2 -24 -16 -37 -37 -37h-7c-15 1 -27 8 -38 18
c-18 18 -28 42 -34 66c-10 43 -10 86 -12 122zM180 459c-1 -18 -4 -36 -8 -53c-6 -28 -24 -45 -49 -46h-5c-24 0 -44 15 -54 39c-3 8 -5 17 -5 28c0 38 21 86 67 98c6 1 11 2 16 2c19 0 31 -11 35 -35c2 -11 2 -22 3 -33z" />
    <glyph glyph-name="j" unicode="j" horiz-adv-x="303" 
d="M302 60c0 -142 -22 -254 -74 -360c-9 -17 -18 -33 -30 -48c-18 -23 -40 -39 -70 -45c-4 -1 -8 -1 -11 -1c-28 0 -54 19 -63 46c-1 4 -2 7 -2 10c0 8 4 12 15 14s17 9 23 18c50 76 79 159 89 249c4 35 5 70 5 106c0 38 -1 77 -4 115c-2 35 -4 71 -6 106c0 4 -1 8 -1 13
c0 6 1 12 2 18c5 28 28 47 57 47c28 -1 51 -20 56 -48c2 -17 3 -33 4 -50c4 -69 8 -138 10 -180v-10zM233 532c37 0 59 -21 59 -49v-7c-1 -10 -4 -20 -8 -29c-8 -15 -17 -30 -24 -46c-10 -19 -26 -29 -47 -29h-3c-21 0 -38 9 -48 28c-6 11 -10 23 -10 35c0 7 1 14 4 21
c9 25 24 45 44 61c12 9 25 15 33 15z" />
    <glyph glyph-name="k" unicode="k" horiz-adv-x="542" 
d="M266 135c29 -8 59 -13 89 -18c51 -9 101 -19 149 -38c6 -2 13 -4 19 -8c8 -3 18 -5 18 -15v-1c-1 -9 -12 -10 -19 -12c-15 -3 -29 -6 -44 -8c-27 -4 -53 -6 -80 -6c-50 0 -100 6 -150 15c-21 3 -40 10 -58 20c-4 2 -7 4 -10 4s-5 -4 -5 -10v-4c4 -34 0 -69 18 -101
c2 -3 3 -5 3 -8c0 -5 -5 -10 -11 -13c-9 -4 -17 -6 -25 -6c-13 0 -26 4 -38 13c-19 14 -33 32 -42 55c-16 38 -22 79 -24 120c-1 30 -2 60 -2 89c0 124 11 247 34 369c3 12 5 23 8 35c9 31 31 49 57 49c5 0 11 -1 16 -2c27 -7 43 -29 43 -57c0 -6 0 -12 -2 -19
c-7 -29 -13 -59 -17 -88c-9 -61 -17 -122 -19 -183c0 -22 -3 -43 -3 -65v-23c0 -4 0 -7 2 -11h1c6 0 8 6 11 10c21 25 48 45 75 64c42 29 86 56 130 81c14 8 28 15 44 18c5 1 10 2 16 2c23 0 43 -13 53 -34c4 -8 7 -18 7 -27c0 -18 -8 -35 -23 -48c-7 -6 -14 -11 -23 -11
c-19 -2 -34 -11 -50 -20c-50 -29 -96 -63 -143 -97c-2 -1 -5 -3 -8 -4c1 -2 2 -5 3 -7z" />
    <glyph glyph-name="l" unicode="l" horiz-adv-x="207" 
d="M52 208c2 109 10 217 25 325c3 25 7 51 8 77c1 11 2 22 4 33c6 25 25 42 49 45h5c24 0 44 -13 53 -35c5 -12 7 -24 7 -37c0 -6 0 -13 -1 -19c-6 -53 -14 -106 -19 -159c-9 -75 -14 -150 -14 -225c0 -30 1 -60 3 -91c2 -53 11 -106 19 -159c3 -21 3 -41 4 -61v-8
c0 -6 0 -12 4 -17c3 -4 4 -8 4 -11c0 -6 -4 -12 -8 -17c-7 -8 -16 -12 -26 -12c-6 0 -11 2 -17 4c-19 7 -33 22 -44 38c-18 25 -27 53 -33 83c-10 51 -16 102 -20 154c-2 24 -4 47 -4 71c0 7 1 14 1 21z" />
    <glyph glyph-name="m" unicode="m" horiz-adv-x="727" 
d="M468 72c9 10 12 19 16 27c32 66 78 122 125 177c10 11 24 17 37 17c10 0 19 -2 28 -7c21 -10 33 -28 39 -51c5 -19 7 -40 7 -60c1 -35 1 -70 4 -104c1 -8 1 -15 1 -22c0 -26 -4 -50 -15 -73c-8 -17 -18 -25 -30 -25c-9 0 -18 4 -28 12c-23 19 -35 44 -40 73
c-4 18 -6 37 -6 56c-1 36 -3 72 -5 109v4c0 4 -1 8 -6 9h-2c-4 0 -6 -3 -9 -7c-29 -33 -51 -70 -70 -109c-19 -41 -35 -83 -44 -127c-2 -8 -5 -17 -9 -24c-7 -16 -20 -25 -35 -25c-6 0 -13 2 -20 5c-24 11 -38 32 -45 57c-7 26 -8 53 -10 80c-5 61 -3 122 -9 183
c-2 11 -3 22 -6 33c-1 6 -4 9 -8 9c-2 0 -4 -1 -7 -3c-9 -6 -16 -13 -22 -21c-27 -34 -47 -72 -61 -112c-22 -62 -38 -125 -38 -192v-6c0 -11 -2 -22 -4 -33c-6 -23 -24 -38 -45 -38c-6 0 -11 1 -17 3c-25 9 -40 27 -49 51c-12 31 -18 64 -22 97c-6 48 -9 97 -9 145
c0 30 1 59 4 88c1 8 2 17 4 25c8 29 30 46 56 46c4 0 8 0 12 -1c27 -5 47 -28 47 -57c0 -2 -1 -5 -1 -8c-4 -29 -4 -58 -4 -88v-58c0 -7 1 -14 2 -22c8 4 7 11 9 16c32 85 75 163 131 235c17 22 38 32 59 32c24 0 47 -13 62 -41c13 -24 18 -50 21 -77c6 -56 9 -113 10 -170
c0 -8 1 -16 2 -28z" />
    <glyph glyph-name="n" unicode="n" horiz-adv-x="512" 
d="M170 143c15 26 29 52 45 78c35 56 78 104 130 145c17 13 35 20 53 20c31 0 60 -21 74 -58c11 -31 14 -63 14 -95v-13c0 -68 7 -134 21 -201c2 -10 4 -19 4 -29c0 -8 -1 -16 -3 -24c-5 -23 -21 -36 -41 -36c-5 0 -12 1 -18 3c-19 7 -33 21 -43 39c-14 26 -19 55 -24 83
c-10 60 -14 121 -14 181c0 11 0 23 -2 33c-1 9 -4 13 -9 13c-3 0 -6 -1 -10 -4c-13 -8 -24 -18 -35 -29c-53 -55 -89 -121 -112 -194c-11 -35 -22 -69 -22 -106c0 -5 -1 -10 -2 -14c-5 -21 -16 -36 -37 -42c-5 -1 -9 -2 -14 -2c-17 0 -31 8 -43 22c-12 13 -17 29 -20 45
c-6 40 -9 80 -10 120c-1 17 -1 34 -1 51c0 34 1 68 1 102c0 14 1 27 4 40c7 27 30 47 56 47h2c25 0 48 -19 54 -47c2 -9 2 -19 2 -28c0 -13 -1 -25 -2 -38c-1 -7 -1 -14 -1 -22c0 -13 1 -26 3 -40z" />
    <glyph glyph-name="o" unicode="o" horiz-adv-x="444" 
d="M371 180c0 51 -26 87 -63 119c-6 5 -12 7 -19 7c-5 0 -10 -1 -16 -3c-3 -1 -6 -3 -9 -3c-2 0 -4 1 -6 4c-1 1 -1 3 -1 4c0 4 3 7 5 11c11 15 25 23 44 24h5c8 0 17 -2 25 -5c55 -19 102 -89 102 -148v-10c-8 -74 -32 -142 -81 -199c-32 -37 -73 -62 -121 -74
c-10 -2 -19 -3 -29 -3c-31 0 -60 12 -85 33c-38 31 -56 73 -62 121c-2 15 -3 29 -3 44c0 65 18 127 45 188c8 16 19 29 33 39c13 9 27 14 42 14c21 0 41 -10 55 -28c8 -11 12 -24 12 -35c0 -18 -9 -34 -26 -45c-15 -9 -22 -21 -27 -37c-9 -32 -17 -64 -17 -98v-6
c0 -4 0 -8 1 -12c3 -43 25 -67 59 -67c10 0 22 2 34 6c52 18 82 58 98 110c3 12 5 24 5 36v13z" />
    <glyph glyph-name="p" unicode="p" horiz-adv-x="608" 
d="M188 235c9 3 12 10 17 15c58 67 131 110 216 131c13 3 26 5 39 5c21 0 41 -4 61 -12c50 -21 80 -67 80 -120c0 -6 0 -13 -1 -19c-6 -44 -26 -81 -51 -116c-23 -34 -53 -62 -84 -89c-41 -36 -84 -69 -130 -98c-24 -15 -49 -28 -78 -32c-3 -1 -7 -1 -10 -1
c-25 0 -48 16 -56 38c-2 6 -3 12 -3 18c0 19 10 37 28 44c49 19 89 53 130 84c37 28 74 57 102 95c12 17 25 34 31 55c2 7 3 13 3 17c0 13 -8 19 -28 21c-5 0 -11 1 -16 1c-23 0 -44 -4 -65 -11c-65 -22 -122 -56 -169 -105c-8 -9 -17 -18 -17 -30c0 -3 1 -6 2 -9v-2
c0 -4 -1 -8 -3 -10c-11 -12 -9 -27 -10 -42c-5 -85 -9 -170 -9 -255c1 -61 3 -123 6 -184c0 -14 2 -28 8 -41c2 -3 3 -6 3 -9c0 -6 -5 -10 -13 -12c-5 -1 -10 -2 -15 -2c-14 0 -28 6 -40 16c-22 19 -34 45 -42 72c-10 31 -14 63 -17 95c-4 43 -6 86 -6 129c0 36 2 73 4 109
c3 32 3 63 5 95c5 63 7 127 11 190c1 20 6 38 20 52c12 12 26 18 41 18c20 0 39 -11 49 -33c5 -10 8 -21 8 -32c0 -3 -1 -6 -1 -9c-1 -5 -2 -11 -2 -16c0 -3 1 -7 2 -11z" />
    <glyph glyph-name="q" unicode="q" horiz-adv-x="545" 
d="M425 255c3 4 3 8 3 12v9c0 9 0 19 1 28c3 26 21 45 46 50c3 1 6 1 9 1c21 0 40 -12 50 -31c7 -13 9 -27 10 -41v-11c0 -40 -4 -79 -7 -118c-6 -73 -13 -146 -18 -219c-4 -56 -4 -111 -4 -167v-67c-1 -24 -5 -48 -5 -73v-1c0 -16 -15 -27 -32 -27c-3 0 -6 0 -9 1
c-17 4 -31 15 -41 30c-16 21 -23 46 -26 72c-4 30 -6 61 -6 91c0 20 1 40 2 60c3 40 5 80 7 120c1 24 3 49 5 73v7c0 3 0 6 -4 8c-1 1 -2 1 -3 1c-5 0 -8 -5 -11 -7c-46 -40 -97 -70 -153 -93c-15 -6 -31 -11 -47 -14c-12 -3 -23 -4 -33 -4c-65 0 -103 50 -103 114
c0 4 1 9 1 14c2 22 6 45 13 67c22 67 52 130 105 179c18 16 38 28 60 37c17 6 33 9 50 9c42 0 82 -20 108 -58c8 -11 14 -23 20 -35c4 -6 5 -13 12 -17zM176 77c0 -6 1 -9 6 -9c2 0 5 0 9 2c55 20 103 53 152 85c3 1 5 4 5 7c0 1 0 3 -2 4c-22 18 -29 44 -43 67
c-7 10 -13 14 -21 14c-5 0 -11 -2 -17 -6c-11 -6 -20 -15 -28 -25c-21 -27 -36 -57 -48 -88c-6 -16 -11 -32 -13 -47v-4z" />
    <glyph glyph-name="r" unicode="r" horiz-adv-x="544" 
d="M175 157c14 23 27 46 41 69c23 41 50 79 79 117c34 43 79 67 132 76c9 2 18 3 26 3c10 0 20 -1 30 -4c18 -5 33 -14 45 -29c9 -11 14 -24 14 -37c0 -5 -1 -9 -2 -14c-4 -21 -18 -33 -39 -34h-41c-18 0 -35 -5 -51 -13c-88 -43 -149 -113 -189 -201
c-10 -22 -19 -45 -26 -68c-4 -15 -7 -30 -7 -46v-13c0 -27 -14 -46 -37 -54c-7 -2 -13 -3 -20 -3c-18 0 -36 9 -49 26c-8 12 -12 26 -15 40c-2 17 -5 34 -7 51c-4 38 -6 75 -6 113c0 53 4 105 13 158c2 15 6 29 14 42c12 20 32 30 53 30c9 0 18 -2 27 -6
c22 -11 37 -34 37 -56c0 -8 -2 -15 -6 -22c-20 -37 -18 -76 -20 -115c0 -3 0 -6 1 -9c1 0 2 -1 3 -1z" />
    <glyph glyph-name="s" unicode="s" horiz-adv-x="486" 
d="M272 1c-36 0 -73 3 -109 10c-27 5 -52 14 -72 33c-24 22 -35 49 -35 78c0 9 1 18 3 27c7 29 21 53 39 75c39 46 82 87 136 117c35 19 71 31 112 31h5c29 -1 55 -10 78 -29c17 -14 28 -32 28 -55c-1 -31 -27 -54 -56 -54c-6 0 -13 1 -20 4s-14 7 -21 12c-6 4 -13 6 -20 6
c-3 0 -6 0 -9 -1c-11 -3 -23 -7 -33 -12c-45 -24 -82 -56 -112 -96c-5 -7 -8 -11 -8 -15s5 -6 16 -8c24 -4 49 -6 73 -7c54 -4 104 -20 150 -46c36 -19 55 -50 55 -85c0 -17 -5 -36 -15 -54c-11 -20 -25 -36 -41 -52c-38 -35 -80 -64 -130 -79c-19 -6 -38 -8 -57 -8h-11
c-16 1 -31 6 -44 15c-5 4 -7 8 -7 11c0 4 2 8 8 11c37 21 67 49 101 75c26 20 54 40 77 65c5 6 15 11 15 19c0 1 0 3 -1 4c-3 7 -11 8 -19 8h-76z" />
    <glyph glyph-name="t" unicode="t" horiz-adv-x="339" 
d="M248 494c0 -15 3 -19 18 -22c13 -2 26 -5 39 -10c9 -4 18 -10 24 -18c4 -6 7 -11 7 -16c0 -6 -4 -11 -11 -16c-13 -8 -28 -12 -42 -15c-43 -9 -43 0 -44 -52c0 -27 -1 -54 -1 -80c0 -49 1 -98 6 -147c5 -55 12 -111 18 -166c1 -9 3 -17 12 -21c6 -3 8 -7 8 -11
s-2 -8 -5 -13c-8 -12 -21 -19 -34 -19c-4 0 -7 1 -11 2c-22 6 -38 19 -51 37c-23 30 -34 65 -42 101c-8 38 -13 77 -14 115c-1 42 -5 84 -5 125c0 18 1 36 3 54v12c0 19 0 19 -19 23h-2c-28 6 -44 20 -48 42c-1 3 -1 6 -1 9c0 19 12 38 32 50c8 4 16 8 24 11
c16 4 20 14 21 29c1 25 3 50 3 75c1 20 8 37 24 50c11 8 22 11 33 11c28 0 53 -20 57 -52c1 -8 1 -16 1 -24v-64z" />
    <glyph glyph-name="u" unicode="u" horiz-adv-x="511" 
d="M52 199c0 35 0 62 7 89c8 30 32 48 58 48c12 0 23 -3 34 -11c17 -11 27 -32 27 -53c0 -5 0 -11 -2 -16c-6 -20 -9 -39 -9 -58c0 -34 8 -68 20 -101c7 -23 21 -42 39 -58c14 -11 28 -17 44 -17c5 0 9 0 13 1c26 4 49 15 69 34c40 40 58 88 58 142c0 8 0 16 -1 24
c-3 32 -9 63 -19 94c-4 13 -7 25 -7 38v4c2 19 14 30 30 30c4 0 8 -1 12 -2c17 -5 29 -15 39 -30c25 -38 40 -79 40 -123c0 -12 -2 -25 -4 -38c-14 -77 -45 -146 -89 -209c-11 -16 -26 -30 -41 -43c-31 -27 -67 -39 -102 -39c-45 0 -90 19 -123 50c-44 41 -69 91 -83 148
c-7 28 -11 56 -11 81c0 5 1 10 1 15z" />
    <glyph glyph-name="v" unicode="v" horiz-adv-x="506" 
d="M505 285c-2 -36 -11 -74 -25 -111c-22 -59 -46 -117 -70 -175c-6 -16 -15 -31 -24 -46c-26 -39 -65 -59 -104 -59c-35 0 -70 16 -97 48c-25 30 -44 63 -59 99c-20 48 -36 98 -49 148c-6 24 -12 49 -21 72c-3 8 -4 15 -4 22c0 8 1 15 4 22c9 23 31 36 53 36
c17 0 34 -7 46 -22c15 -19 23 -41 28 -64c13 -72 36 -141 69 -205c5 -10 12 -19 18 -28c4 -5 9 -8 13 -8s8 2 12 4c22 13 38 31 52 50c15 19 27 40 38 61c31 63 67 124 96 189c2 5 4 12 11 12h1c6 -1 8 -8 9 -13c3 -6 3 -12 3 -20v-12z" />
    <glyph glyph-name="w" unicode="w" horiz-adv-x="640" 
d="M312 118c-6 -13 -9 -21 -12 -30c-12 -33 -23 -66 -33 -99c-8 -23 -20 -44 -35 -64c-20 -26 -46 -39 -71 -39c-31 0 -61 19 -78 55c-16 33 -22 68 -25 105c-2 27 -3 54 -3 81c0 62 5 123 8 185c3 39 28 64 60 64h7c32 -3 58 -32 58 -64c0 -6 0 -11 -2 -17
c-15 -58 -12 -117 -13 -176c-1 -18 -1 -37 -1 -56h2c9 0 10 6 12 10c31 60 61 121 92 181l3 6c14 27 35 40 57 40c19 0 39 -11 54 -33c10 -14 14 -30 18 -46c7 -32 14 -65 22 -97c6 -24 16 -47 29 -68c10 2 11 9 13 14c17 31 29 64 39 96c22 67 48 132 75 197
c2 6 4 12 11 14h2c9 0 13 -6 17 -12c14 -24 16 -49 18 -75c0 -8 1 -16 1 -24c0 -56 -12 -110 -29 -164c-11 -35 -22 -69 -40 -101c-14 -26 -30 -50 -56 -66c-17 -10 -33 -15 -50 -15c-21 0 -41 7 -59 23c-35 31 -56 72 -72 115c-7 18 -12 37 -19 60z" />
    <glyph glyph-name="x" unicode="x" horiz-adv-x="508" 
d="M427 -50c-39 0 -72 11 -104 28c-23 12 -44 27 -64 44c-8 7 -12 10 -15 10c-4 0 -8 -4 -16 -13c-9 -11 -18 -22 -26 -34c-23 -28 -52 -50 -78 -75c-4 -3 -8 -5 -13 -5c-6 0 -13 4 -19 12c-8 10 -10 22 -10 34c0 5 0 11 1 16c5 29 14 56 30 82c11 18 22 36 34 53
c4 6 6 10 6 15c0 4 -2 9 -6 14c-23 24 -43 51 -66 74c-16 15 -23 33 -23 50c0 15 5 29 17 40c11 11 25 16 39 16c17 0 36 -8 51 -24c18 -19 35 -40 53 -61c6 -7 9 -10 13 -10s7 3 14 11c30 36 61 71 91 107c16 18 34 28 52 28c9 0 18 -2 26 -7c19 -10 30 -29 30 -49
c0 -6 -1 -13 -3 -19c-4 -12 -11 -22 -19 -32c-29 -34 -58 -68 -88 -102c-2 -2 -4 -5 -6 -7c-6 -8 -10 -12 -10 -17s5 -9 14 -17c33 -29 67 -58 100 -87c18 -16 37 -29 62 -31c6 0 11 -2 13 -8v-2c0 -5 -3 -8 -7 -12c-20 -15 -42 -22 -65 -22h-8z" />
    <glyph glyph-name="y" unicode="y" horiz-adv-x="531" 
d="M391 232c-33 -71 -78 -133 -120 -197c-10 -16 -22 -32 -35 -47c-21 -26 -48 -39 -74 -39c-32 0 -63 19 -82 54c-20 38 -25 81 -27 123c-1 16 -2 32 -2 48c0 29 2 58 6 87c2 11 4 23 9 34c10 21 30 35 52 35c3 0 6 -1 9 -1c26 -3 46 -25 49 -52v-9c0 -7 -1 -15 -2 -22
c-5 -24 -7 -48 -7 -72c0 -27 3 -54 6 -81c0 -3 1 -6 2 -9c2 -7 4 -10 7 -10c2 0 5 1 9 4c18 12 34 28 48 45c45 51 84 106 123 162c6 10 11 20 13 32c4 31 24 51 51 53h6c23 0 45 -16 55 -41c8 -21 13 -43 17 -66c14 -72 23 -144 23 -216c0 -16 0 -31 -1 -47
c-6 -102 -39 -195 -98 -279c-28 -38 -63 -70 -103 -96c-21 -14 -44 -25 -70 -27h-8c-34 0 -59 23 -59 55c0 3 0 7 1 10c1 9 5 14 10 14c3 0 6 -2 10 -5c6 -4 11 -6 15 -6c6 0 11 3 16 8c15 14 31 28 43 44c40 49 75 101 99 160c21 55 30 110 30 167c0 14 -1 28 -2 42
c-3 46 -8 91 -17 136c-1 3 -2 6 -2 9z" />
    <glyph glyph-name="z" unicode="z" horiz-adv-x="465" 
d="M287 239c-1 2 -4 3 -6 3h-2c-45 -9 -87 -22 -124 -51c-3 -3 -7 -6 -11 -8c-11 -7 -23 -11 -36 -11c-12 0 -24 4 -34 12c-12 10 -19 27 -19 44c0 8 2 16 5 24c8 19 24 33 41 44c54 35 113 54 176 63c12 2 23 2 34 2c18 0 36 -2 53 -8c39 -14 61 -45 61 -83
c0 -8 -1 -17 -3 -26c-4 -19 -13 -35 -23 -52c-21 -36 -47 -69 -73 -102c-29 -38 -62 -72 -97 -106c-7 -7 -14 -14 -24 -25c18 1 30 6 42 10c61 22 121 45 182 67c3 2 7 4 11 4c5 1 10 5 15 5c2 0 4 -1 6 -4c1 -1 1 -3 1 -4c0 -6 -8 -11 -12 -15c-72 -57 -151 -100 -241 -122
c-6 -1 -12 -2 -19 -2h-2c-32 0 -54 22 -54 54v8c1 15 5 30 10 44c19 52 43 103 80 146c20 23 39 47 56 73c3 4 7 8 7 13v3z" />
    <glyph glyph-name="braceleft" unicode="{" horiz-adv-x="419" 
d="M316 -187c-26 1 -51 12 -73 31c-34 30 -55 70 -70 112c-19 51 -22 105 -23 159c0 5 1 11 1 17c0 4 -1 9 -4 12c-2 2 -5 3 -7 3c-7 0 -15 -5 -21 -6h-9c-26 0 -46 10 -55 31c-2 4 -2 8 -2 10c0 6 3 10 13 11c15 2 22 12 28 23c28 44 49 91 61 142c10 44 14 89 19 133
c5 51 11 102 23 152c11 42 27 82 61 113c17 15 35 26 58 29c4 1 8 1 12 1c26 0 52 -13 64 -34c5 -9 8 -17 8 -24c0 -11 -5 -20 -17 -29c-10 -7 -21 -15 -32 -20c-18 -9 -27 -24 -33 -41c-14 -41 -20 -83 -25 -125c-6 -56 -10 -111 -21 -166c-5 -24 -11 -48 -20 -71
c-2 -5 -4 -10 -4 -16c0 -5 2 -11 6 -17c12 -17 15 -38 15 -58v-111c1 -61 22 -114 62 -159c10 -12 20 -20 33 -20c5 0 10 2 16 4c8 2 16 4 23 4h2c8 0 12 -4 12 -10c0 -2 0 -4 -1 -6c-10 -37 -57 -74 -98 -74h-2z" />
    <glyph glyph-name="bar" unicode="|" horiz-adv-x="193" 
d="M50 228c0 112 6 217 14 323c4 54 7 108 10 162c1 13 3 25 8 37c9 21 28 34 52 34h5c23 -1 42 -17 49 -41c2 -7 4 -15 4 -23v-5c-3 -47 -7 -95 -10 -143c-2 -28 -5 -55 -6 -83c-3 -42 -5 -85 -6 -127c-4 -105 -6 -209 -11 -314c-2 -60 -7 -121 -11 -181
c0 -5 -1 -11 -1 -16c0 -7 1 -14 2 -22v-4c0 -7 -4 -11 -11 -11c-2 0 -4 0 -6 1c-7 2 -13 8 -18 14c-12 13 -19 29 -24 46c-21 57 -29 117 -34 178c-5 60 -6 121 -6 175z" />
    <glyph glyph-name="braceright" unicode="}" horiz-adv-x="420" 
d="M154 786c26 -2 51 -12 72 -31c35 -31 55 -71 71 -113c18 -51 22 -104 22 -158c0 -5 -1 -12 -1 -17s1 -10 4 -13c2 -2 5 -3 7 -3c7 0 15 5 22 6c3 0 7 1 10 1c25 0 44 -11 53 -31c2 -5 3 -9 3 -12c0 -6 -4 -9 -13 -10c-15 -2 -22 -11 -29 -22c-27 -45 -48 -92 -60 -143
c-11 -44 -15 -88 -19 -133c-5 -51 -11 -102 -24 -151c-11 -43 -27 -83 -61 -113c-16 -15 -35 -26 -58 -30c-3 0 -6 -1 -10 -1c-25 0 -53 14 -66 34c-5 8 -8 16 -8 23c0 11 6 21 18 30c10 8 20 15 32 21c17 9 26 23 33 41c14 40 19 82 24 125c7 55 10 111 22 166
c5 24 11 47 20 70c2 5 3 10 3 15c0 6 -2 12 -6 18c-12 17 -14 38 -14 59c0 37 0 74 -1 111c0 61 -21 113 -61 159c-10 12 -21 19 -34 19c-5 0 -10 -1 -16 -3c-7 -3 -15 -4 -23 -5c-9 0 -14 4 -14 11c0 2 0 4 1 6c11 38 59 74 101 74z" />
    <glyph glyph-name="asciitilde" unicode="~" horiz-adv-x="457" 
d="M322 123c-43 5 -81 24 -104 66c-7 13 -13 27 -19 41c-3 5 -5 7 -8 7s-6 -2 -9 -5c-12 -14 -23 -30 -33 -46c-9 -17 -22 -27 -41 -27h-7c-22 4 -36 18 -42 39c-3 9 -5 18 -5 27c0 17 6 33 15 48c22 38 53 67 92 86c15 7 29 10 42 10c25 0 48 -11 67 -33
c11 -11 19 -23 25 -37c13 -27 25 -54 37 -82c6 -14 10 -19 22 -19c2 0 5 1 8 1c20 3 36 12 51 24l30 27c2 2 4 3 6 3s3 -1 5 -2c3 -2 3 -5 3 -8c0 -1 0 -2 -1 -3c-6 -58 -71 -117 -132 -117h-2z" />
    <glyph glyph-name="exclamdown" unicode="&#xa1;" horiz-adv-x="184" 
d="M183 12c0 -75 -4 -140 -8 -205c-2 -25 -2 -50 -2 -76c-1 -12 -1 -25 -5 -37c-7 -25 -30 -43 -55 -43c-26 0 -48 17 -55 43c-3 12 -4 23 -4 34c0 12 1 23 1 34c2 38 6 76 8 113c2 51 4 102 5 154c1 54 5 108 13 162c1 11 1 22 2 33c2 11 6 15 15 15c3 0 6 0 9 -1
c16 -5 28 -17 38 -30c15 -22 24 -46 29 -72c8 -33 9 -67 9 -97v-27zM179 377c0 -37 -26 -65 -59 -65h-3c-33 3 -63 37 -63 70c0 2 1 5 1 7c2 7 4 15 7 22c11 22 30 35 54 36h3c22 0 37 -13 49 -31c7 -11 11 -23 11 -35v-4z" />
    <glyph glyph-name="cent" unicode="&#xa2;" horiz-adv-x="491" 
d="M310 329c-4 -3 -4 -7 -4 -11c0 -48 -1 -96 -1 -144c0 -12 1 -17 7 -17c3 0 7 2 12 4c40 16 79 32 118 49c10 4 19 11 29 16c3 2 6 5 10 5c1 0 3 -1 5 -2c3 -3 5 -6 5 -10c0 -2 -1 -3 -1 -5c-1 -13 -6 -24 -12 -35c-23 -39 -54 -70 -90 -96c-24 -16 -47 -32 -72 -44
c-14 -7 -20 -16 -20 -29v-3c1 -12 1 -25 1 -38v-4c0 -4 -1 -8 -6 -10h-2c-5 0 -8 4 -11 8c-8 10 -12 21 -16 32c-5 11 -6 15 -12 15c-3 0 -6 -1 -12 -2c-16 -3 -32 -6 -47 -6c-8 0 -16 1 -23 2c-36 7 -65 24 -85 55c-17 27 -28 57 -29 89v19c0 107 33 205 102 290
c14 17 30 32 50 42c13 6 19 15 21 29c1 12 4 23 9 34c7 14 17 23 32 23h3c16 -1 25 -12 31 -26c5 -11 5 -23 7 -34c2 -13 7 -22 18 -29c36 -23 60 -57 76 -96c4 -9 6 -19 6 -29s-2 -19 -6 -29c-9 -21 -26 -32 -45 -32c-9 0 -19 2 -29 8c-6 4 -11 11 -19 11zM219 336
c-25 -36 -38 -76 -46 -118c-2 -14 -4 -28 -4 -42c0 -9 0 -17 2 -26c4 -21 11 -30 26 -30c5 0 12 1 19 3c12 4 16 5 16 14c0 2 -1 5 -1 9c-4 36 -7 72 -8 108c0 28 -3 55 -4 82z" />
    <glyph glyph-name="sterling" unicode="&#xa3;" horiz-adv-x="570" 
d="M250 69c45 7 87 12 130 15c14 1 27 2 41 2c19 0 39 -1 58 -5c21 -4 42 -11 60 -24c12 -8 20 -18 25 -31c1 -4 2 -8 2 -11c0 -15 -10 -26 -26 -30c-56 -12 -112 -15 -169 -19c-62 -4 -124 -12 -182 -36c-10 -4 -21 -6 -32 -6h-2c-32 0 -53 22 -53 49c0 8 2 17 6 26
c6 15 18 28 33 35c12 5 17 13 17 24c0 3 0 6 -1 10c-4 20 -5 40 -5 60c0 28 3 57 5 86c1 12 2 23 3 35c0 13 -1 16 -11 16h-5c-15 0 -29 1 -43 4c-26 6 -40 22 -40 41c0 10 4 21 12 32c16 23 39 33 65 39c31 8 32 8 34 39c3 46 7 91 15 136c5 24 11 48 20 71
c8 18 18 35 34 47c13 11 29 17 44 17c23 0 45 -12 58 -34c10 -16 18 -33 24 -51c1 -4 3 -8 3 -13s-2 -9 -7 -13c-3 -3 -7 -4 -11 -4s-9 2 -14 4c-1 0 -2 1 -4 2c-6 3 -10 4 -13 4c-5 0 -7 -4 -10 -15c-4 -14 -7 -27 -10 -41c-6 -38 -10 -75 -12 -113c0 -5 -1 -9 -1 -12
c0 -13 5 -14 23 -17c30 -6 58 -15 85 -30c13 -7 25 -16 31 -30c2 -4 3 -7 3 -10c0 -7 -5 -10 -15 -11c-41 -2 -80 -18 -120 -24c-12 -2 -16 -9 -16 -20c-3 -25 -5 -50 -8 -75c-3 -36 -9 -72 -20 -107v-5c0 -2 0 -4 -1 -7z" />
    <glyph glyph-name="currency" unicode="&#xa4;" horiz-adv-x="518" 
d="M372 287c0 12 -4 25 -11 38c-10 17 -23 33 -35 48c-8 8 -18 12 -28 17c-8 3 -12 7 -12 11s2 8 7 13c13 13 30 20 48 20h6c3 0 5 -1 7 -1c12 0 18 7 24 19c8 17 19 34 33 48c13 14 29 21 45 21c15 0 30 -7 42 -20c10 -11 15 -22 15 -35c0 -10 -3 -21 -10 -32
c-10 -19 -22 -37 -38 -51c-6 -6 -9 -11 -9 -17c0 -4 2 -9 5 -14c14 -23 21 -47 21 -71c0 -25 -7 -49 -18 -74c-13 -29 -30 -57 -48 -83c-6 -8 -9 -12 -9 -16c0 -5 3 -9 9 -17c16 -23 28 -48 38 -73c2 -5 3 -9 3 -12c0 -8 -6 -11 -19 -12c-12 0 -23 4 -34 9
c-20 9 -39 21 -54 37c-5 6 -10 9 -17 9c-3 0 -6 0 -10 -2c-22 -11 -44 -15 -67 -15c-16 0 -32 2 -48 6c-3 1 -7 1 -10 1c-9 0 -16 -3 -23 -11c-20 -21 -41 -40 -66 -53c-6 -3 -12 -6 -17 -9c-4 -1 -7 -2 -11 -2c-9 0 -14 6 -16 18c-1 5 -1 10 -1 15c0 9 1 17 2 25
c5 25 15 48 26 71c2 5 4 10 4 15s-2 10 -5 16c-21 38 -31 77 -31 117c0 33 7 66 19 100c5 13 11 26 17 38c4 9 7 14 7 19s-4 9 -14 19c-9 10 -17 19 -23 30s-9 21 -9 32c0 18 9 35 25 46c9 7 20 11 31 11c15 0 31 -7 44 -20c11 -11 19 -25 25 -40c4 -9 8 -13 16 -13
c2 0 5 0 8 1c5 1 10 2 15 2c21 0 39 -11 49 -30c5 -10 7 -19 7 -29c0 -16 -7 -31 -21 -44c-12 -11 -25 -24 -42 -28c-9 -2 -14 -8 -18 -15c-12 -24 -18 -49 -18 -75c0 -13 1 -25 4 -38c9 -37 35 -58 69 -58c8 0 16 1 24 3c60 14 97 62 97 128v7z" />
    <glyph glyph-name="yen" unicode="&#xa5;" horiz-adv-x="607" 
d="M218 160c-9 -1 -16 -2 -24 -2c-5 0 -11 1 -17 2c-16 4 -25 15 -25 29c0 5 2 11 5 17c6 12 15 20 26 27c14 10 30 17 46 23c5 2 9 3 14 4c11 3 14 12 15 22v2c0 9 -8 10 -15 13c-35 14 -60 40 -81 70c-16 22 -28 46 -38 70c-7 18 -14 36 -20 53c-7 19 -16 36 -27 53
c-8 12 -12 25 -12 37c0 28 19 52 51 57h6c17 0 31 -6 43 -17c15 -14 25 -31 32 -50c11 -27 21 -56 33 -83c9 -23 19 -45 36 -64c10 -11 18 -16 28 -16c7 0 15 3 24 8c28 16 52 38 71 64c42 55 83 110 122 166c11 15 23 30 35 44c4 5 9 9 14 13c7 5 14 13 23 13
c3 0 5 -1 8 -2c13 -6 15 -17 15 -27v-7c0 -16 -4 -30 -9 -44c-27 -72 -58 -142 -100 -206c-27 -41 -62 -75 -102 -103c-13 -9 -21 -24 -21 -39c0 -4 1 -8 2 -12c3 -11 12 -12 20 -13c24 -3 47 -9 68 -20c10 -5 19 -11 26 -20c6 -7 9 -14 9 -23c-1 -13 -7 -18 -19 -18
c-30 -1 -60 -1 -90 -2c-8 0 -16 0 -19 -10c-1 -4 -2 -7 -2 -10c0 -8 5 -13 17 -14c25 -2 50 -6 73 -15c15 -6 27 -13 38 -25c7 -7 11 -15 11 -25c0 -3 0 -6 -1 -9c-5 -13 -16 -14 -27 -16c-27 -5 -54 -9 -82 -9c-7 0 -14 -1 -21 -2c-10 -1 -15 -7 -16 -17
c-2 -18 -4 -35 -4 -53c0 -7 0 -15 1 -22l1 -7c0 -4 -1 -8 -6 -10c-1 -1 -3 -1 -4 -1c-5 0 -9 3 -13 5c-10 7 -18 16 -24 26c-12 16 -20 34 -27 53c-5 15 -7 19 -17 19c-3 0 -6 -1 -10 -1c-6 -1 -12 -1 -18 -1c-14 0 -27 2 -41 3c-2 0 -4 0 -7 1c-18 5 -34 13 -38 34
c0 2 -1 5 -1 7c0 17 10 29 23 40c17 12 37 17 57 23c7 2 19 1 19 10v2c0 5 -4 6 -8 6c-3 0 -7 -1 -10 -1h-16z" />
    <glyph glyph-name="brokenbar" unicode="&#xa6;" horiz-adv-x="189" 
d="M69 494c0 42 0 75 5 109c3 18 8 35 22 49c11 11 24 16 37 16c18 0 35 -9 45 -26c9 -14 11 -29 11 -45c-2 -78 -10 -154 -31 -229c-8 -28 -17 -55 -26 -83c-3 -9 -5 -21 -17 -21h-1c-12 1 -13 13 -16 21c-19 63 -29 127 -29 187v22zM165 -63c0 -17 -4 -33 -11 -48
c-10 -18 -25 -31 -47 -31h-2c-22 2 -38 14 -46 35c-4 11 -8 24 -8 36c0 3 1 5 1 8c5 58 10 116 22 173c6 27 15 53 28 77c3 6 7 11 11 16c2 2 5 4 8 4c2 0 5 -2 8 -5c4 -5 7 -11 9 -16c17 -37 25 -75 27 -115v-134z" />
    <glyph glyph-name="section" unicode="&#xa7;" horiz-adv-x="499" 
d="M365 522c-4 1 -8 2 -12 2c-15 0 -28 -9 -41 -18c-35 -23 -66 -50 -97 -79c-4 -5 -8 -9 -12 -14c-6 -7 -9 -11 -9 -15c0 -5 5 -8 15 -12c31 -13 63 -25 95 -37c28 -10 56 -22 82 -36c39 -22 60 -55 60 -93c0 -19 -6 -39 -17 -60c-2 -5 -5 -10 -9 -14c-2 -2 -2 -4 -2 -6
c0 -3 1 -5 5 -7s7 -4 11 -6c31 -15 48 -43 48 -72c0 -23 -10 -46 -31 -65c-42 -39 -93 -63 -150 -71c-3 0 -6 -1 -9 -1c-12 0 -24 3 -34 9s-15 13 -15 21c0 7 5 15 14 21c34 23 67 46 101 70c4 2 7 5 11 9s7 8 7 11c0 4 -4 7 -11 10c-13 5 -27 9 -40 13
c-38 12 -76 22 -111 40c-8 4 -16 8 -23 13c-35 23 -54 53 -54 88c0 14 3 30 10 46c4 8 5 13 5 17c0 6 -4 9 -16 16c-43 26 -65 59 -65 95c0 28 13 57 38 85c46 52 99 97 158 133c21 13 43 24 67 29c5 1 10 1 15 1c35 0 67 -24 72 -58c0 -3 1 -6 1 -8c0 -31 -24 -57 -55 -57
h-2zM341 200c0 15 -8 26 -22 33c-13 6 -27 12 -41 16c-5 2 -9 3 -12 3c-9 0 -14 -6 -19 -18c-2 -4 -3 -8 -3 -12c0 -6 4 -11 13 -17c22 -14 47 -21 71 -30c2 -1 3 -1 5 -1c4 0 7 3 8 9v17z" />
    <glyph glyph-name="dieresis" unicode="&#xa8;" horiz-adv-x="409" 
d="M196 889c0 -35 -10 -63 -35 -85c-12 -11 -26 -17 -40 -17c-15 0 -31 7 -44 21c-7 7 -12 16 -15 26c-6 15 -9 30 -9 45s3 30 8 45c10 29 32 47 59 47c12 0 24 -4 37 -12c27 -17 39 -39 39 -67v-3zM408 889c0 -35 -10 -63 -35 -85c-12 -11 -26 -17 -40 -17
c-15 0 -31 7 -44 21c-7 7 -12 16 -15 26c-6 15 -9 30 -9 45s3 30 8 45c10 29 32 47 59 47c12 0 24 -4 37 -12c27 -17 39 -39 39 -67v-3z" />
    <glyph glyph-name="copyright" unicode="&#xa9;" horiz-adv-x="746" 
d="M745 343c0 -84 -32 -157 -80 -223c-60 -80 -139 -134 -234 -164c-28 -9 -56 -13 -82 -13c-89 0 -164 47 -215 110c-47 58 -68 126 -75 198c-2 16 -3 32 -3 49c0 64 15 126 41 186c25 55 58 105 108 141c18 13 37 21 59 24c4 1 8 1 12 1c52 0 82 -46 82 -87
c0 -9 -1 -17 -4 -25c-8 -23 -28 -38 -50 -38c-9 0 -18 3 -27 8c-7 4 -13 6 -17 6c-7 0 -12 -6 -18 -14c-35 -43 -54 -92 -64 -146c-4 -20 -5 -40 -5 -60c0 -31 4 -62 13 -92c25 -85 81 -135 169 -151c11 -2 21 -3 32 -3c23 0 46 5 68 13c88 31 153 88 190 175
c12 27 17 57 17 87c0 74 -33 149 -88 191c-23 17 -46 34 -71 48c-22 12 -46 22 -72 22c-4 0 -9 0 -13 -1c-2 0 -5 -1 -8 -1c-2 0 -5 1 -6 5v2c0 5 5 8 8 11c9 9 21 14 33 17c12 2 25 4 37 4c10 0 19 -1 29 -3c72 -11 133 -45 181 -99c35 -39 48 -89 53 -141v-37zM377 137
c-73 0 -115 38 -119 101c-1 4 -1 8 -1 13c0 11 2 22 4 34c11 59 34 114 73 161c12 16 27 29 44 38c12 7 25 10 37 10c35 0 66 -27 70 -67v-6c0 -32 -20 -57 -52 -61c-17 -2 -26 -9 -33 -23c-10 -20 -18 -42 -23 -64c-1 -3 -1 -6 -1 -8c0 -8 3 -11 10 -11c3 0 5 0 8 1
c45 6 89 11 133 19l12 3h3c9 0 14 -4 14 -13c0 -1 0 -4 -1 -6c-3 -13 -9 -25 -17 -36c-45 -54 -103 -81 -161 -85z" />
    <glyph glyph-name="ordfeminine" unicode="&#xaa;" horiz-adv-x="416" 
d="M296 364c-9 -2 -10 -8 -12 -12c-11 -20 -22 -39 -35 -57c-14 -19 -32 -33 -55 -42c-12 -4 -23 -7 -35 -7c-27 0 -53 13 -71 37c-21 27 -31 58 -33 92c-1 9 -1 19 -1 28c0 77 19 150 65 216c19 27 44 47 77 55c10 3 19 4 29 4c23 0 45 -8 64 -25c5 -4 9 -7 13 -7s9 3 14 7
c13 10 26 15 40 15c26 0 49 -19 56 -51c2 -8 2 -16 2 -24c0 -10 0 -20 -1 -30c-3 -52 -6 -105 -8 -158c-1 -39 -10 -78 -12 -117c-1 -12 -6 -18 -16 -18c-3 0 -7 1 -11 2c-20 5 -35 19 -47 37c-11 17 -17 36 -23 55zM170 400c0 -1 0 -8 1 -14c2 -5 4 -7 7 -7c2 0 5 1 7 3
c5 3 9 7 12 11c17 19 29 42 43 63c8 12 12 24 12 36c0 10 -3 21 -9 32c-2 3 -3 7 -5 10c-5 8 -7 19 -17 19h-1c-9 0 -13 -11 -17 -19c-23 -40 -30 -84 -33 -134z" />
    <glyph glyph-name="guillemotleft" unicode="&#xab;" horiz-adv-x="909" 
d="M194 247c11 -9 22 -12 32 -16c50 -21 100 -42 147 -69c23 -13 44 -29 63 -49c7 -8 13 -16 16 -26c2 -5 3 -10 3 -14c0 -11 -7 -17 -22 -17h-3c-17 0 -34 2 -51 5c-87 18 -170 48 -249 86c-16 8 -30 18 -42 30c-19 19 -29 42 -29 65c0 19 7 39 20 57c23 31 54 51 88 67
c69 33 141 61 215 83c16 5 32 9 49 10c24 0 44 -10 57 -31c6 -11 9 -22 9 -32c0 -12 -3 -23 -9 -34c-10 -19 -28 -30 -49 -30c-4 0 -8 0 -12 1c-5 1 -11 2 -16 2c-4 0 -8 -1 -12 -2c-67 -23 -134 -46 -197 -80c-2 -1 -3 -3 -8 -6zM602 247c11 -9 22 -12 32 -16
c50 -21 100 -42 147 -69c23 -13 44 -29 63 -49c7 -8 13 -16 16 -26c2 -5 3 -10 3 -14c0 -11 -7 -17 -22 -17h-3c-17 0 -34 2 -51 5c-87 18 -170 48 -249 86c-16 8 -30 18 -42 30c-19 19 -29 42 -29 65c0 19 7 39 20 57c23 31 54 51 88 67c69 33 141 61 215 83
c16 5 32 9 49 10c24 0 44 -10 57 -31c6 -11 9 -22 9 -32c0 -12 -3 -23 -9 -34c-10 -19 -28 -30 -49 -30c-4 0 -8 0 -12 1c-5 1 -11 2 -16 2c-4 0 -8 -1 -12 -2c-67 -23 -134 -46 -197 -80c-2 -1 -3 -3 -8 -6z" />
    <glyph glyph-name="logicalnot" unicode="&#xac;" horiz-adv-x="550" 
d="M383 395c24 0 47 0 71 -5c60 -14 92 -52 92 -110c0 -4 -1 -9 -1 -13c-2 -40 -11 -80 -23 -118c-4 -10 -7 -19 -10 -29c-2 -12 -8 -17 -17 -17c-3 0 -6 0 -9 1c-16 5 -26 16 -34 31c-11 21 -14 44 -16 68c-1 15 0 30 -2 45c-2 27 -6 30 -33 31h-10c-41 0 -81 -6 -122 -12
c-28 -4 -57 -11 -86 -16c-14 -2 -27 -6 -40 -12c-9 -4 -18 -6 -27 -6c-22 0 -41 11 -52 32c-4 8 -7 17 -7 26c0 19 10 38 28 51c10 7 21 11 32 14c88 19 176 37 266 39z" />
    <glyph glyph-name="registered" unicode="&#xae;" horiz-adv-x="662" 
d="M298 -43c-98 0 -185 63 -223 165c-14 38 -21 77 -21 117c0 15 1 31 3 46c10 82 37 159 84 228c12 17 26 32 41 46c18 17 40 27 63 27c19 0 38 -7 56 -23c5 -5 9 -7 14 -7c3 0 6 1 9 2c24 10 48 15 71 15c41 0 79 -14 116 -37c48 -31 86 -72 114 -121
c20 -36 29 -73 29 -111c0 -27 -5 -54 -14 -82c-38 -115 -111 -199 -227 -244c-34 -13 -70 -21 -115 -21zM412 252c1 -2 1 -3 2 -5h15c28 0 56 -2 83 -9c6 -1 10 -2 14 -2c8 0 11 5 15 19c7 20 10 40 10 60c0 29 -7 58 -24 85c-26 42 -61 76 -103 102c-23 13 -47 23 -73 27
c-5 0 -9 1 -12 1c-13 0 -14 -5 -19 -24c-6 -28 -23 -46 -49 -46c-24 0 -36 -13 -46 -31c-30 -52 -48 -108 -53 -167c-1 -9 -1 -18 -1 -26c0 -39 9 -76 32 -109c24 -36 58 -54 98 -54c6 0 12 0 18 1c78 11 137 53 186 112c2 3 6 6 6 9c0 2 -1 3 -2 5c-1 1 -2 1 -4 1
s-5 -1 -7 -2c-30 -9 -60 -15 -91 -18c-15 -2 -29 -4 -44 -4c-12 0 -23 1 -35 6c-5 2 -9 3 -12 3c-5 0 -7 -5 -8 -17c-2 -16 -4 -33 -6 -49c0 -6 -1 -12 -8 -13h-3c-4 0 -7 4 -10 8c-11 15 -16 32 -21 50c-13 41 -16 85 -19 128c-2 13 -3 24 -10 36c-6 9 -9 18 -9 27
c0 12 5 23 13 34c15 20 36 30 60 36c14 3 28 5 42 5c27 0 52 -6 78 -17c37 -16 57 -43 57 -72c0 -21 -10 -43 -31 -64c-9 -9 -19 -17 -29 -26zM318 262c26 21 40 39 42 54c-4 1 -8 2 -12 2c-6 0 -12 -1 -18 -2c-7 0 -12 -4 -12 -12c-1 -8 -2 -16 -2 -25c0 -5 1 -11 2 -17z
" />
    <glyph glyph-name="macron" unicode="&#xaf;" horiz-adv-x="455" 
d="M278 943c30 -1 60 0 89 -5c20 -4 39 -10 55 -22c14 -10 25 -24 28 -41c1 -3 1 -7 1 -10c0 -15 -9 -29 -23 -35c-4 -2 -7 -3 -11 -3c-2 0 -4 0 -6 1c-11 7 -23 5 -35 6c-27 2 -55 4 -82 5h-13c-44 0 -89 -5 -133 -11c-12 -1 -23 -2 -34 -2h-13c-24 2 -41 15 -45 35
c-1 4 -2 8 -2 12c0 16 10 29 23 40c13 9 28 14 43 17c49 7 97 13 146 13h12z" />
    <glyph glyph-name="degree" unicode="&#xb0;" horiz-adv-x="367" 
d="M366 898c0 -22 -7 -42 -16 -62c-23 -46 -60 -78 -107 -98c-16 -7 -33 -10 -50 -10c-53 0 -108 31 -127 95c-5 18 -7 35 -7 52c0 36 11 71 29 105c7 12 15 24 25 34c15 18 32 27 51 27c14 0 29 -6 43 -16c4 -3 9 -5 14 -5c1 0 3 0 5 1c8 2 16 2 24 2
c60 0 112 -46 116 -109v-16zM176 864c0 -14 4 -26 10 -38c7 -13 14 -18 24 -18c4 0 9 1 15 3c22 8 40 22 53 41c8 11 12 23 12 36c0 8 -1 15 -4 23c-8 22 -26 36 -46 47c-2 1 -5 2 -6 2c-5 0 -8 -3 -9 -8c-4 -14 -14 -24 -25 -34c-16 -14 -22 -33 -24 -54z" />
    <glyph glyph-name="plusminus" unicode="&#xb1;" horiz-adv-x="537" 
d="M365 464v-35c1 -15 3 -18 18 -19c25 -3 50 -6 74 -15c20 -7 39 -17 55 -32c9 -8 17 -18 20 -31c1 -4 2 -7 2 -10c0 -11 -7 -17 -21 -19c-35 -6 -69 -10 -105 -10c-7 0 -15 1 -22 1h-8c-16 0 -17 -4 -18 -26c-1 -39 -13 -75 -22 -113c-2 -9 -8 -12 -17 -12h-3
c-14 3 -24 11 -33 21c-24 28 -34 62 -38 97c0 1 0 2 -1 3c-2 24 -3 31 -18 31c-4 0 -11 -1 -19 -2c-23 -3 -45 -6 -68 -11c-8 -1 -16 -2 -24 -2c-9 0 -18 1 -27 4c-21 8 -33 24 -33 43c0 6 1 12 3 19c8 25 26 39 50 47c32 11 66 13 100 16c36 3 36 2 37 38c0 21 0 43 4 64
c6 32 26 50 56 50s53 -20 57 -52c1 -5 1 -10 1 -15c0 -10 -1 -20 -1 -30h1zM313 74h35c39 0 75 -3 108 -10c19 -5 36 -14 52 -28c11 -9 18 -22 22 -38c1 -4 1 -8 1 -12c0 -16 -7 -25 -23 -29c-19 -3 -38 -4 -58 -4c-17 0 -34 1 -51 3c-22 2 -43 3 -65 3c-21 0 -43 -1 -64 -3
l-16 -2c-30 -1 -60 -5 -90 -10l-38 -8h-2c-6 -2 -11 -2 -17 -2c-4 0 -9 0 -13 1c-17 5 -27 14 -30 26c-3 11 -5 20 -5 26c0 11 3 22 9 33c11 16 24 26 40 30c33 9 66 15 100 17c3 1 5 1 7 1c36 4 68 6 98 6z" />
    <glyph glyph-name="twosuperior" unicode="&#xb2;" horiz-adv-x="387" 
d="M255 367c6 -4 12 -5 17 -5c4 0 8 1 12 1c5 0 10 1 15 1c19 0 39 -4 57 -11c16 -7 23 -16 23 -25s-5 -18 -17 -27c-13 -10 -28 -17 -44 -23c-33 -11 -66 -19 -100 -26c-8 -2 -17 -2 -25 -2c-7 0 -13 0 -20 1c-36 6 -61 35 -61 70c0 3 1 7 1 10c4 29 16 55 32 80
c23 35 47 69 70 104c10 16 20 32 28 49c1 4 2 7 2 10c0 5 -2 6 -8 6h-6c-16 -2 -32 -6 -47 -13c-9 -3 -13 -11 -18 -18c-13 -22 -30 -33 -49 -33c-7 0 -15 1 -22 4c-25 9 -40 33 -40 60c0 4 0 9 1 13c5 20 15 38 32 51c46 35 97 53 152 53c11 0 23 0 34 -2
c59 -7 95 -50 95 -104c0 -11 -1 -23 -5 -36c-13 -45 -38 -85 -64 -123c-15 -21 -30 -43 -45 -65z" />
    <glyph glyph-name="threesuperior" unicode="&#xb3;" horiz-adv-x="384" 
d="M227 360c-4 7 -9 8 -13 10c-8 3 -16 7 -23 11c-34 17 -50 39 -50 67c0 15 5 32 15 50c11 19 24 36 39 50c8 8 16 15 23 27h-3c-22 0 -37 -9 -52 -19c-7 -4 -12 -10 -18 -14c-11 -8 -24 -12 -36 -12c-11 0 -22 3 -31 10c-14 11 -22 28 -22 45c0 8 1 15 4 23
c8 22 25 38 45 50c42 25 87 39 135 39c8 0 15 0 23 -1c39 -3 70 -20 88 -58c5 -12 8 -23 8 -35c0 -14 -4 -28 -10 -42c-14 -32 -36 -57 -59 -82c-8 -9 -12 -14 -12 -18s6 -6 19 -11c21 -9 40 -19 55 -36c15 -15 22 -34 22 -52c0 -21 -10 -42 -29 -58c-8 -7 -17 -13 -27 -18
c-38 -17 -78 -27 -120 -27c-6 0 -12 1 -18 1c-16 1 -31 6 -45 14c-10 6 -18 13 -18 26v2c0 12 10 16 19 21c25 13 52 23 79 31c4 1 7 3 12 6z" />
    <glyph glyph-name="acute" unicode="&#xb4;" horiz-adv-x="292" 
d="M291 959c0 -13 -8 -26 -19 -36c-36 -33 -73 -65 -113 -94c-28 -20 -56 -39 -84 -59c-4 -3 -8 -7 -13 -7c-1 0 -3 0 -4 1c-4 3 -5 6 -5 9c0 4 1 8 2 11c6 20 18 38 30 55c27 39 58 74 90 110c9 10 18 21 27 32c10 11 21 19 35 23c4 1 8 1 12 1c23 0 42 -17 42 -43v-3z" />
    <glyph glyph-name="mu" unicode="&#xb5;" horiz-adv-x="511" 
d="M51 184c0 5 0 10 1 15c0 35 2 65 7 89c4 15 12 27 23 36c11 8 22 12 35 12c11 0 23 -4 34 -11c18 -15 27 -32 27 -53c0 -5 -1 -11 -2 -16c-6 -20 -9 -39 -9 -58c0 -35 7 -68 20 -101c7 -23 20 -42 39 -58c13 -11 28 -17 44 -17c5 0 9 0 13 1c26 4 49 15 69 34
c39 41 58 88 58 142c0 8 0 16 -1 24c-3 32 -9 63 -19 94c-5 13 -7 25 -7 38v4c4 20 14 30 30 30c4 0 8 -1 12 -2c17 -5 30 -15 39 -30c27 -38 40 -79 40 -123c0 -13 -1 -25 -4 -38c-15 -77 -44 -146 -89 -209c-11 -16 -25 -30 -41 -43c-33 -26 -67 -39 -102 -39
c-36 0 -69 10 -99 31c1 -17 3 -33 5 -50c1 -9 2 -18 2 -27c0 -7 0 -13 -1 -20c-3 -25 -16 -37 -37 -37h-7c-15 1 -27 7 -38 18c-17 19 -29 41 -34 66c-7 35 -11 69 -11 101c0 7 0 14 -1 21c1 21 1 40 2 59c1 25 1 48 2 69v48z" />
    <glyph glyph-name="paragraph" unicode="&#xb6;" horiz-adv-x="609" 
d="M552 360c0 -40 -4 -81 -8 -121c-1 -7 -1 -14 -2 -21v-4c0 -10 3 -19 11 -28c11 -13 17 -27 17 -40c0 -17 -9 -33 -26 -46c-10 -8 -15 -17 -16 -30c-7 -48 -16 -96 -28 -143c-2 -8 -1 -20 -11 -20h-1c-10 0 -12 11 -14 20c-9 32 -14 64 -18 97c-3 27 -4 35 -17 35
c-5 0 -13 -1 -23 -3c-1 0 -2 0 -2 -1c-54 -6 -43 -2 -55 -53l-15 -78c-1 -9 -4 -14 -9 -14c-3 0 -7 2 -11 6c-8 6 -12 14 -16 23c-13 29 -17 60 -22 91c-4 25 -4 25 -28 31c-44 9 -85 24 -123 48c-49 33 -81 77 -83 138v9c0 46 14 88 41 126c36 52 83 90 138 119
c62 32 128 48 197 56c14 2 29 3 43 3c20 0 40 -2 60 -8c25 -7 46 -19 62 -40c8 -10 13 -21 13 -33c0 -4 0 -7 -1 -11c-3 -11 -7 -15 -15 -15c-3 0 -6 0 -9 1c-2 0 -4 1 -7 1c-3 1 -6 1 -8 1c-10 0 -14 -5 -14 -19v-77zM281 375c-1 10 -2 15 -6 15c-2 0 -6 -2 -12 -5
c-18 -12 -36 -25 -51 -41c-23 -24 -42 -51 -43 -87v-4c0 -17 7 -30 21 -40c19 -14 40 -24 62 -30c6 -2 11 -3 14 -3c8 0 10 5 10 20c1 50 0 99 5 145v30zM396 355c0 -52 -4 -104 -8 -156c-1 -6 -1 -11 -1 -14c0 -10 3 -13 11 -13c4 0 9 1 16 2l12 3c16 4 19 6 19 19v7
c0 21 -2 42 -3 63c0 26 -1 52 -1 78s1 52 4 78v7c0 9 -3 12 -12 12c-2 0 -5 -1 -8 -1c-4 0 -8 -1 -11 -2c-17 -4 -18 -5 -18 -22v-61z" />
    <glyph glyph-name="periodcentered" unicode="&#xb7;" horiz-adv-x="159" 
d="M158 248c0 -28 -25 -53 -53 -53c-30 0 -55 25 -55 54s23 53 52 54c29 0 56 -25 56 -53v-2z" />
    <glyph glyph-name="periodcentered" unicode="&#x2219;" horiz-adv-x="159" 
d="M158 248c0 -28 -25 -53 -53 -53c-30 0 -55 25 -55 54s23 53 52 54c29 0 56 -25 56 -53v-2z" />
    <glyph glyph-name="cedilla" unicode="&#xb8;" horiz-adv-x="379" 
d="M137 -106c6 1 12 1 18 1c18 0 35 -3 53 -3c7 0 14 1 21 2c16 2 24 5 24 12c0 4 -4 11 -11 20c-20 26 -44 49 -70 69c-5 4 -10 6 -14 10c-11 9 -16 20 -16 32s5 23 17 32c12 10 26 13 41 13h6c24 -3 46 -10 66 -24c51 -36 88 -83 99 -146c1 -7 2 -14 2 -21
c0 -32 -15 -60 -41 -81c-15 -12 -32 -21 -50 -25c-26 -6 -52 -10 -78 -10c-24 0 -48 3 -72 9c-23 6 -44 17 -60 35c-9 9 -15 20 -18 33c-1 3 -1 6 -1 9c0 19 11 31 32 33h52z" />
    <glyph glyph-name="onesuperior" unicode="&#xb9;" horiz-adv-x="229" 
d="M99 420c0 15 1 30 3 44v5c0 9 -3 16 -15 20c-26 8 -36 28 -37 54c0 17 4 33 13 47c15 25 33 47 54 66c13 13 29 19 45 19c8 0 17 -2 25 -5c26 -10 38 -32 40 -59c1 -8 1 -16 1 -24c0 -22 -2 -44 -5 -65c-5 -40 -6 -80 -6 -120v-45c0 -25 -2 -49 -9 -72
c-7 -22 -20 -34 -37 -34c-10 0 -21 4 -32 14c-21 18 -31 43 -36 70c-3 18 -4 36 -4 53v32z" />
    <glyph glyph-name="ordmasculine" unicode="&#xba;" horiz-adv-x="390" 
d="M389 516c-4 -55 -20 -118 -55 -174c-23 -37 -56 -62 -96 -76c-15 -6 -30 -8 -43 -8c-35 0 -64 16 -87 43c-36 41 -51 91 -55 145c-1 10 -1 20 -1 30c0 38 5 76 14 113c3 14 8 27 14 40c14 28 35 44 66 44h3c8 0 16 1 23 3c14 3 27 4 40 4c47 0 90 -18 130 -45
c32 -22 47 -59 47 -114v-5zM318 496c0 26 -8 51 -33 68c-22 15 -47 25 -73 34c-3 1 -5 2 -7 2c-5 0 -9 -3 -12 -9c-5 -8 -9 -17 -12 -26c-9 -27 -12 -56 -12 -86v-12c1 -25 3 -51 17 -75c5 -9 11 -17 20 -22s18 -8 27 -8c13 0 26 5 38 16c34 29 47 66 47 113v5z" />
    <glyph glyph-name="guillemotright" unicode="&#xbb;" horiz-adv-x="909" 
d="M765 267c-11 9 -22 12 -32 16c-50 21 -100 42 -147 69c-23 13 -45 30 -63 49c-7 8 -13 16 -17 26c-2 5 -3 10 -3 14c0 11 8 17 22 17h3c18 0 35 -2 52 -5c87 -18 169 -47 249 -86c16 -8 30 -18 42 -30c19 -19 29 -41 29 -64c0 -20 -7 -40 -21 -58
c-22 -31 -53 -51 -87 -67c-69 -33 -141 -61 -215 -83c-16 -5 -32 -9 -49 -9h-3c-23 0 -42 11 -54 31c-6 11 -9 21 -9 32s3 22 8 33c11 19 29 30 50 30c4 0 8 0 12 -1c5 -1 11 -2 16 -2c4 0 8 1 12 2c67 23 134 46 196 80c2 1 4 3 9 6zM357 267c-11 9 -22 12 -32 16
c-50 21 -100 42 -147 69c-23 13 -45 30 -63 49c-7 8 -13 16 -17 26c-2 5 -3 10 -3 14c0 11 8 17 22 17h3c18 0 35 -2 52 -5c87 -18 169 -47 249 -86c16 -8 30 -18 42 -30c19 -19 29 -41 29 -64c0 -20 -7 -40 -21 -58c-22 -31 -53 -51 -87 -67c-69 -33 -141 -61 -215 -83
c-16 -5 -32 -9 -49 -9h-3c-23 0 -42 11 -54 31c-6 11 -9 21 -9 32s3 22 8 33c11 19 29 30 50 30c4 0 8 0 12 -1c5 -1 11 -2 16 -2c4 0 8 1 12 2c67 23 134 46 196 80c2 1 4 3 9 6z" />
    <glyph glyph-name="onequarter" unicode="&#xbc;" horiz-adv-x="620" 
d="M417 91c31 11 59 25 80 50c5 7 6 17 7 25c1 12 3 24 8 35c10 22 31 37 52 37c3 0 5 -1 8 -1c26 -4 45 -26 47 -54c1 -3 1 -7 1 -10c0 -4 0 -7 -1 -11c-5 -51 -6 -103 -14 -153c-4 -25 -11 -49 -25 -71c-9 -14 -19 -21 -29 -21c-9 0 -19 6 -29 18c-20 26 -25 56 -27 87v53
c-2 1 -4 1 -5 1c-5 0 -8 -4 -11 -6c-16 -14 -33 -27 -52 -37c-11 -7 -24 -11 -37 -13c-3 0 -7 -1 -10 -1c-29 0 -52 17 -61 46c-3 10 -4 19 -4 29c0 8 1 17 3 25c12 56 40 104 75 148c3 5 8 9 14 13c11 8 22 11 34 11s24 -3 34 -11c13 -11 21 -27 21 -45c0 -7 -1 -14 -4 -21
c-3 -8 -8 -16 -13 -23c-13 -20 -27 -40 -41 -61c-9 -12 -17 -24 -21 -39zM472 638c31 -1 51 -20 51 -46c0 -2 -1 -5 -1 -8c-1 -11 -6 -21 -11 -31c-13 -26 -29 -50 -47 -74c-57 -77 -120 -150 -176 -227c-38 -53 -75 -106 -110 -160c-34 -51 -69 -101 -104 -152
c-2 -3 -4 -7 -7 -10c-2 -2 -5 -3 -7 -3c-3 0 -5 2 -7 7c-1 3 -2 6 -2 9c0 4 1 9 2 14c8 32 21 63 35 93c24 50 52 98 80 147c52 88 103 177 155 265c30 51 63 100 100 145c15 17 31 30 49 31zM175 538c-7 -61 -11 -122 -27 -182c-3 -10 -5 -21 -9 -32c-3 -7 -6 -11 -12 -11
c-3 0 -6 1 -10 4c-8 6 -14 15 -18 25c-8 21 -14 43 -16 66c-3 27 -4 55 -5 82c-1 15 -2 30 -13 42c-3 3 -5 9 -5 13c3 26 10 50 31 67c7 6 17 9 26 9c17 0 35 -9 45 -26c9 -16 13 -33 13 -51v-6z" />
    <glyph glyph-name="onehalf" unicode="&#xbd;" horiz-adv-x="662" 
d="M615 596c0 -16 -7 -30 -17 -44c-21 -33 -48 -63 -74 -92c-68 -76 -133 -155 -200 -232c-53 -61 -108 -121 -159 -185c-27 -34 -54 -69 -82 -103c-6 -8 -12 -17 -21 -22c-2 -1 -3 -1 -5 -1c-4 0 -6 2 -6 6v2c2 8 5 16 8 24c44 111 104 212 173 308c78 110 162 215 246 321
c10 13 21 25 32 37c12 12 25 22 41 28c6 2 11 3 17 3c25 0 46 -20 47 -50zM514 2c2 -1 4 -1 6 -1c9 0 16 4 24 6c24 5 49 12 74 12c10 -1 19 -1 28 -6c8 -4 12 -9 12 -15c0 -5 -3 -9 -9 -14c-8 -6 -16 -11 -25 -14c-44 -17 -89 -32 -135 -41c-5 -1 -10 -1 -14 -1
c-6 0 -11 0 -17 2c-16 4 -25 12 -25 26c0 3 1 7 2 12c6 19 14 37 23 55c10 20 20 41 30 61c10 22 17 44 20 68v4c0 5 -1 7 -5 7c-2 0 -5 -1 -8 -2l-12 -6c-7 -4 -14 -5 -21 -5c-23 0 -41 21 -43 42c0 4 -1 7 -1 11c0 21 8 39 22 54c24 25 53 40 87 44h8c50 0 88 -40 88 -91
c0 -6 0 -11 -1 -16c-3 -21 -12 -39 -22 -57c-23 -40 -50 -78 -77 -116c-4 -6 -9 -9 -9 -17v-2zM215 585c0 -44 -9 -88 -13 -131c-5 -42 -5 -83 -12 -124c-3 -17 -11 -26 -23 -26c-5 0 -12 2 -19 7c-12 9 -19 21 -25 34c-15 31 -17 65 -20 98c-2 11 -2 22 -3 33
c-1 17 -5 31 -22 41c-12 7 -17 19 -17 33c0 4 0 9 1 13c3 13 8 25 15 37c9 15 18 29 28 44c11 17 27 27 47 27c3 0 6 -1 9 -1c23 -4 38 -18 47 -39c6 -15 7 -30 7 -46z" />
    <glyph glyph-name="threequarters" unicode="&#xbe;" horiz-adv-x="737" 
d="M537 91c46 10 82 52 85 96c0 13 2 26 8 39c9 18 24 31 45 33h3c21 0 37 -11 48 -28c7 -11 11 -23 11 -36c0 -68 0 -136 -10 -203c-3 -28 -11 -55 -21 -82c-4 -12 -10 -19 -18 -19c-5 0 -10 3 -17 9c-16 13 -25 31 -33 49c-13 33 -18 67 -20 101v7c0 5 0 11 -3 16
c-10 -2 -14 -10 -20 -16c-21 -22 -46 -40 -74 -53c-14 -7 -29 -11 -45 -11h-5c-36 1 -62 25 -67 61c0 4 -1 9 -1 13c0 24 7 46 18 67c25 44 55 84 86 124c8 10 18 17 31 21c7 2 14 3 20 3c14 0 27 -5 39 -16c11 -11 16 -24 16 -38c0 -7 -1 -14 -3 -21c-3 -10 -9 -18 -16 -26
c-16 -22 -32 -45 -48 -67c-4 -5 -9 -10 -9 -19v-4zM642 605c0 -17 -6 -32 -13 -47c-20 -41 -48 -76 -76 -111c-62 -78 -127 -154 -186 -235c-69 -96 -136 -193 -207 -287c-5 -7 -9 -13 -15 -19c-3 -3 -6 -4 -8 -4c-5 0 -8 4 -9 10c0 2 -1 5 -1 7c0 7 2 14 4 21
c7 28 18 55 30 82c33 72 74 139 116 205c69 107 138 213 208 319c19 28 39 55 59 82c5 7 11 14 18 19c11 8 22 13 34 13c7 0 14 -2 21 -5c17 -9 25 -24 25 -46v-4zM273 367c-6 9 -13 10 -19 14c-9 4 -18 9 -27 14c-24 15 -36 33 -36 56c0 8 1 17 4 26c6 20 17 38 28 55
c5 7 12 14 13 27c-28 -6 -53 -13 -73 -33c-13 -13 -29 -19 -45 -19c-18 0 -37 8 -49 24c-7 10 -11 22 -11 34c0 19 9 39 25 52c15 12 30 21 47 29c44 20 90 33 138 33h10c19 0 38 -4 54 -13c27 -15 42 -43 42 -71c0 -16 -5 -33 -14 -48c-14 -23 -33 -40 -53 -57
c-16 -12 -32 -24 -47 -37c-6 -5 -9 -9 -9 -13c0 -5 4 -9 11 -14c9 -7 19 -12 28 -17c7 -5 15 -9 21 -15c10 -9 15 -19 15 -30s-5 -21 -14 -30c-8 -8 -18 -13 -28 -17c-26 -11 -54 -18 -82 -21c-4 -1 -8 -1 -11 -1c-11 0 -21 2 -31 5c-7 3 -13 6 -18 11c-2 3 -3 6 -3 9
c0 5 5 5 9 5c33 1 63 16 95 26c10 4 21 7 30 16z" />
    <glyph glyph-name="questiondown" unicode="&#xbf;" horiz-adv-x="539" 
d="M51 -273c0 48 11 81 26 113c27 57 56 112 93 163c46 64 85 133 121 203c4 8 9 16 9 24c0 6 -2 11 -8 17c-1 1 -2 3 -2 4c0 3 5 6 9 8c4 1 8 2 12 2c12 0 25 -7 33 -18c8 -13 11 -28 11 -43c-1 -29 -8 -56 -17 -83c-14 -42 -33 -82 -51 -122c-25 -60 -58 -115 -89 -172
c-13 -23 -24 -47 -29 -74c-1 -5 -1 -9 -1 -13c0 -17 9 -26 30 -31c12 -3 24 -4 36 -4c11 0 22 1 32 3c47 7 90 24 127 53c12 10 20 21 23 37c5 30 21 46 46 49c3 0 5 1 8 1c22 0 44 -15 55 -37c6 -12 8 -23 8 -34c0 -16 -5 -32 -15 -47c-22 -38 -54 -66 -91 -87
c-61 -35 -127 -54 -197 -54h-11c-32 1 -62 8 -91 22c-52 27 -76 70 -77 114v6zM332 446c30 -1 54 -28 57 -63c0 -3 1 -6 1 -9c0 -28 -19 -54 -45 -60c-1 0 -3 -1 -4 -1c-2 -1 -4 -1 -6 -1c-25 0 -70 39 -70 66c1 36 30 68 65 68h2z" />
    <glyph glyph-name="Agrave" unicode="&#xc0;" 
d="M118 -14c0 18 0 35 1 52c0 13 -4 21 -17 25c-25 8 -39 29 -39 51c0 17 9 36 27 50c6 5 11 10 18 11c21 7 26 22 29 41c13 94 40 185 77 272c31 72 72 139 129 194c28 27 58 50 94 65c26 12 54 19 82 19h10c71 -6 114 -49 141 -110c23 -51 32 -105 40 -160
c11 -79 18 -158 24 -237c2 -18 7 -32 22 -42c10 -7 16 -17 20 -29c1 -5 2 -9 2 -13c0 -11 -5 -21 -16 -25s-13 -10 -13 -19v-7c9 -61 16 -123 29 -184c5 -25 6 -52 18 -76c1 -2 2 -5 2 -7c0 -5 -3 -9 -9 -13c-9 -7 -19 -11 -30 -11c-3 0 -6 0 -10 1c-22 5 -40 17 -53 36
c-16 25 -26 52 -34 80c-14 53 -21 107 -28 160c-1 6 -1 11 -2 17c-2 10 -7 15 -18 15h-14c-107 -3 -214 -9 -319 -33c-4 -1 -9 -2 -13 -3c-29 -7 -29 -7 -31 -36c-1 -28 -3 -56 -3 -84c0 -18 1 -37 3 -55c2 -13 4 -26 10 -38c5 -10 7 -19 7 -28c0 -26 -18 -47 -37 -55
c-8 -4 -16 -6 -25 -6c-22 0 -44 14 -55 38c-14 32 -15 66 -18 100v44h-1zM615 286c-3 37 -6 74 -10 110c-7 59 -13 118 -28 175c-5 18 -11 36 -21 52c-11 18 -23 26 -38 26c-7 0 -14 -1 -22 -4c-21 -7 -40 -18 -57 -33c-29 -26 -54 -55 -75 -88c-48 -77 -76 -161 -98 -249
c-2 -11 -5 -21 -7 -32c0 -3 -1 -5 -1 -7c0 -7 3 -10 11 -10c2 0 4 1 7 1c3 1 6 2 9 2c66 13 133 20 201 25c36 3 72 4 108 4c18 0 21 0 21 12v16zM358 1048c0 26 19 43 42 43c4 0 8 0 12 -1c14 -4 25 -12 35 -23c9 -11 18 -22 28 -32c31 -36 62 -71 89 -110
c13 -17 24 -35 30 -55c1 -3 2 -7 2 -11c0 -3 -1 -6 -5 -9c-1 -1 -3 -1 -4 -1c-4 0 -8 4 -12 7c-29 20 -57 39 -85 59c-40 29 -76 61 -112 94c-11 10 -20 23 -20 37v2z" />
    <glyph glyph-name="Aacute" unicode="&#xc1;" 
d="M118 -14c0 18 0 35 1 52c0 13 -4 21 -17 25c-25 8 -39 29 -39 51c0 17 9 36 27 50c6 5 11 10 18 11c21 7 26 22 29 41c13 94 40 185 77 272c31 72 72 139 129 194c28 27 58 50 94 65c26 12 54 19 82 19h10c71 -6 114 -49 141 -110c23 -51 32 -105 40 -160
c11 -79 18 -158 24 -237c2 -18 7 -32 22 -42c10 -7 16 -17 20 -29c1 -5 2 -9 2 -13c0 -11 -5 -21 -16 -25s-13 -10 -13 -19v-7c9 -61 16 -123 29 -184c5 -25 6 -52 18 -76c1 -2 2 -5 2 -7c0 -5 -3 -9 -9 -13c-9 -7 -19 -11 -30 -11c-3 0 -6 0 -10 1c-22 5 -40 17 -53 36
c-16 25 -26 52 -34 80c-14 53 -21 107 -28 160c-1 6 -1 11 -2 17c-2 10 -7 15 -18 15h-14c-107 -3 -214 -9 -319 -33c-4 -1 -9 -2 -13 -3c-29 -7 -29 -7 -31 -36c-1 -28 -3 -56 -3 -84c0 -18 1 -37 3 -55c2 -13 4 -26 10 -38c5 -10 7 -19 7 -28c0 -26 -18 -47 -37 -55
c-8 -4 -16 -6 -25 -6c-22 0 -44 14 -55 38c-14 32 -15 66 -18 100v44h-1zM615 286c-3 37 -6 74 -10 110c-7 59 -13 118 -28 175c-5 18 -11 36 -21 52c-11 18 -23 26 -38 26c-7 0 -14 -1 -22 -4c-21 -7 -40 -18 -57 -33c-29 -26 -54 -55 -75 -88c-48 -77 -76 -161 -98 -249
c-2 -11 -5 -21 -7 -32c0 -3 -1 -5 -1 -7c0 -7 3 -10 11 -10c2 0 4 1 7 1c3 1 6 2 9 2c66 13 133 20 201 25c36 3 72 4 108 4c18 0 21 0 21 12v16zM676 1045c0 -13 -8 -26 -19 -36c-36 -33 -73 -65 -113 -94c-28 -20 -56 -39 -84 -59c-4 -3 -8 -7 -13 -7c-1 0 -3 0 -4 1
c-4 3 -5 6 -5 9c0 4 1 8 2 11c6 20 18 38 30 55c27 39 58 74 90 110c9 10 18 21 27 32c10 11 21 19 35 23c4 1 8 1 12 1c23 0 42 -17 42 -43v-3z" />
    <glyph glyph-name="Acircumflex" unicode="&#xc2;" 
d="M118 -14c0 18 0 35 1 52c0 13 -4 21 -17 25c-25 8 -39 29 -39 51c0 17 9 36 27 50c6 5 11 10 18 11c21 7 26 22 29 41c13 94 40 185 77 272c31 72 72 139 129 194c28 27 58 50 94 65c26 12 54 19 82 19h10c71 -6 114 -49 141 -110c23 -51 32 -105 40 -160
c11 -79 18 -158 24 -237c2 -18 7 -32 22 -42c10 -7 16 -17 20 -29c1 -5 2 -9 2 -13c0 -11 -5 -21 -16 -25s-13 -10 -13 -19v-7c9 -61 16 -123 29 -184c5 -25 6 -52 18 -76c1 -2 2 -5 2 -7c0 -5 -3 -9 -9 -13c-9 -7 -19 -11 -30 -11c-3 0 -6 0 -10 1c-22 5 -40 17 -53 36
c-16 25 -26 52 -34 80c-14 53 -21 107 -28 160c-1 6 -1 11 -2 17c-2 10 -7 15 -18 15h-14c-107 -3 -214 -9 -319 -33c-4 -1 -9 -2 -13 -3c-29 -7 -29 -7 -31 -36c-1 -28 -3 -56 -3 -84c0 -18 1 -37 3 -55c2 -13 4 -26 10 -38c5 -10 7 -19 7 -28c0 -26 -18 -47 -37 -55
c-8 -4 -16 -6 -25 -6c-22 0 -44 14 -55 38c-14 32 -15 66 -18 100v44h-1zM615 286c-3 37 -6 74 -10 110c-7 59 -13 118 -28 175c-5 18 -11 36 -21 52c-11 18 -23 26 -38 26c-7 0 -14 -1 -22 -4c-21 -7 -40 -18 -57 -33c-29 -26 -54 -55 -75 -88c-48 -77 -76 -161 -98 -249
c-2 -11 -5 -21 -7 -32c0 -3 -1 -5 -1 -7c0 -7 3 -10 11 -10c2 0 4 1 7 1c3 1 6 2 9 2c66 13 133 20 201 25c36 3 72 4 108 4c18 0 21 0 21 12v16zM658 852c-17 1 -32 7 -46 15c-25 14 -44 34 -60 56c-16 21 -31 44 -47 65c-5 7 -8 11 -12 11c-3 0 -6 -4 -12 -11
c-14 -22 -25 -46 -36 -69c-5 -9 -10 -20 -17 -28c-11 -14 -27 -21 -42 -21c-10 0 -20 3 -29 10c-14 10 -21 24 -21 39c0 12 4 23 12 34c13 16 27 30 42 45c20 21 39 42 61 62c21 19 42 28 63 28c23 0 46 -11 67 -35c11 -13 20 -27 29 -42c18 -31 36 -61 54 -92
c8 -12 16 -25 27 -35c5 -5 8 -9 8 -12c0 -5 -4 -9 -11 -13c-9 -5 -19 -7 -30 -7z" />
    <glyph glyph-name="Atilde" unicode="&#xc3;" 
d="M118 -14c0 18 0 35 1 52c0 13 -4 21 -17 25c-25 8 -39 29 -39 51c0 17 9 36 27 50c6 5 11 10 18 11c21 7 26 22 29 41c13 94 40 185 77 272c31 72 72 139 129 194c28 27 58 50 94 65c26 12 54 19 82 19h10c71 -6 114 -49 141 -110c23 -51 32 -105 40 -160
c11 -79 18 -158 24 -237c2 -18 7 -32 22 -42c10 -7 16 -17 20 -29c1 -5 2 -9 2 -13c0 -11 -5 -21 -16 -25s-13 -10 -13 -19v-7c9 -61 16 -123 29 -184c5 -25 6 -52 18 -76c1 -2 2 -5 2 -7c0 -5 -3 -9 -9 -13c-9 -7 -19 -11 -30 -11c-3 0 -6 0 -10 1c-22 5 -40 17 -53 36
c-16 25 -26 52 -34 80c-14 53 -21 107 -28 160c-1 6 -1 11 -2 17c-2 10 -7 15 -18 15h-14c-107 -3 -214 -9 -319 -33c-4 -1 -9 -2 -13 -3c-29 -7 -29 -7 -31 -36c-1 -28 -3 -56 -3 -84c0 -18 1 -37 3 -55c2 -13 4 -26 10 -38c5 -10 7 -19 7 -28c0 -26 -18 -47 -37 -55
c-8 -4 -16 -6 -25 -6c-22 0 -44 14 -55 38c-14 32 -15 66 -18 100v44h-1zM615 286c-3 37 -6 74 -10 110c-7 59 -13 118 -28 175c-5 18 -11 36 -21 52c-11 18 -23 26 -38 26c-7 0 -14 -1 -22 -4c-21 -7 -40 -18 -57 -33c-29 -26 -54 -55 -75 -88c-48 -77 -76 -161 -98 -249
c-2 -11 -5 -21 -7 -32c0 -3 -1 -5 -1 -7c0 -7 3 -10 11 -10c2 0 4 1 7 1c3 1 6 2 9 2c66 13 133 20 201 25c36 3 72 4 108 4c18 0 21 0 21 12v16zM583 847c-43 5 -81 24 -104 66c-7 13 -13 27 -19 41c-3 5 -5 7 -8 7s-6 -2 -9 -5c-12 -14 -23 -30 -33 -46
c-9 -17 -22 -27 -41 -27h-7c-22 4 -36 18 -42 39c-3 9 -5 18 -5 27c0 17 6 33 15 48c22 38 53 67 92 86c15 7 29 10 42 10c25 0 48 -11 67 -33c11 -11 19 -23 25 -37c13 -27 25 -54 37 -82c6 -14 10 -19 22 -19c2 0 5 1 8 1c20 3 36 12 51 24l30 27c2 2 4 3 6 3s3 -1 5 -2
c3 -2 3 -5 3 -8c0 -1 0 -2 -1 -3c-6 -58 -71 -117 -132 -117h-2z" />
    <glyph glyph-name="Adieresis" unicode="&#xc4;" 
d="M118 -14c0 18 0 35 1 52c0 13 -4 21 -17 25c-25 8 -39 29 -39 51c0 17 9 36 27 50c6 5 11 10 18 11c21 7 26 22 29 41c13 94 40 185 77 272c31 72 72 139 129 194c28 27 58 50 94 65c26 12 54 19 82 19h10c71 -6 114 -49 141 -110c23 -51 32 -105 40 -160
c11 -79 18 -158 24 -237c2 -18 7 -32 22 -42c10 -7 16 -17 20 -29c1 -5 2 -9 2 -13c0 -11 -5 -21 -16 -25s-13 -10 -13 -19v-7c9 -61 16 -123 29 -184c5 -25 6 -52 18 -76c1 -2 2 -5 2 -7c0 -5 -3 -9 -9 -13c-9 -7 -19 -11 -30 -11c-3 0 -6 0 -10 1c-22 5 -40 17 -53 36
c-16 25 -26 52 -34 80c-14 53 -21 107 -28 160c-1 6 -1 11 -2 17c-2 10 -7 15 -18 15h-14c-107 -3 -214 -9 -319 -33c-4 -1 -9 -2 -13 -3c-29 -7 -29 -7 -31 -36c-1 -28 -3 -56 -3 -84c0 -18 1 -37 3 -55c2 -13 4 -26 10 -38c5 -10 7 -19 7 -28c0 -26 -18 -47 -37 -55
c-8 -4 -16 -6 -25 -6c-22 0 -44 14 -55 38c-14 32 -15 66 -18 100v44h-1zM615 286c-3 37 -6 74 -10 110c-7 59 -13 118 -28 175c-5 18 -11 36 -21 52c-11 18 -23 26 -38 26c-7 0 -14 -1 -22 -4c-21 -7 -40 -18 -57 -33c-29 -26 -54 -55 -75 -88c-48 -77 -76 -161 -98 -249
c-2 -11 -5 -21 -7 -32c0 -3 -1 -5 -1 -7c0 -7 3 -10 11 -10c2 0 4 1 7 1c3 1 6 2 9 2c66 13 133 20 201 25c36 3 72 4 108 4c18 0 21 0 21 12v16zM482 975c0 -35 -10 -63 -35 -85c-12 -11 -26 -17 -40 -17c-15 0 -31 7 -44 21c-7 7 -12 16 -15 26c-6 15 -9 30 -9 45
s3 30 8 45c10 29 32 47 59 47c12 0 24 -4 37 -12c27 -17 39 -39 39 -67v-3zM694 975c0 -35 -10 -63 -35 -85c-12 -11 -26 -17 -40 -17c-15 0 -31 7 -44 21c-7 7 -12 16 -15 26c-6 15 -9 30 -9 45s3 30 8 45c10 29 32 47 59 47c12 0 24 -4 37 -12c27 -17 39 -39 39 -67v-3z
" />
    <glyph glyph-name="Aring" unicode="&#xc5;" 
d="M118 -14c0 18 0 35 1 52c0 13 -4 21 -17 25c-25 8 -39 29 -39 51c0 17 9 36 27 50c6 5 11 10 18 11c21 7 26 22 29 41c13 94 40 185 77 272c31 72 72 139 129 194c28 27 58 50 94 65c26 12 54 19 82 19h10c71 -6 114 -49 141 -110c23 -51 32 -105 40 -160
c11 -79 18 -158 24 -237c2 -18 7 -32 22 -42c10 -7 16 -17 20 -29c1 -5 2 -9 2 -13c0 -11 -5 -21 -16 -25s-13 -10 -13 -19v-7c9 -61 16 -123 29 -184c5 -25 6 -52 18 -76c1 -2 2 -5 2 -7c0 -5 -3 -9 -9 -13c-9 -7 -19 -11 -30 -11c-3 0 -6 0 -10 1c-22 5 -40 17 -53 36
c-16 25 -26 52 -34 80c-14 53 -21 107 -28 160c-1 6 -1 11 -2 17c-2 10 -7 15 -18 15h-14c-107 -3 -214 -9 -319 -33c-4 -1 -9 -2 -13 -3c-29 -7 -29 -7 -31 -36c-1 -28 -3 -56 -3 -84c0 -18 1 -37 3 -55c2 -13 4 -26 10 -38c5 -10 7 -19 7 -28c0 -26 -18 -47 -37 -55
c-8 -4 -16 -6 -25 -6c-22 0 -44 14 -55 38c-14 32 -15 66 -18 100v44h-1zM615 286c-3 37 -6 74 -10 110c-7 59 -13 118 -28 175c-5 18 -11 36 -21 52c-11 18 -23 26 -38 26c-7 0 -14 -1 -22 -4c-21 -7 -40 -18 -57 -33c-29 -26 -54 -55 -75 -88c-48 -77 -76 -161 -98 -249
c-2 -11 -5 -21 -7 -32c0 -3 -1 -5 -1 -7c0 -7 3 -10 11 -10c2 0 4 1 7 1c3 1 6 2 9 2c66 13 133 20 201 25c36 3 72 4 108 4c18 0 21 0 21 12v16zM671 984c0 -22 -7 -42 -16 -62c-23 -46 -60 -78 -107 -98c-16 -7 -33 -10 -50 -10c-53 0 -108 31 -127 95c-5 18 -7 35 -7 52
c0 36 11 71 29 105c7 12 15 24 25 34c15 18 32 27 51 27c14 0 29 -6 43 -16c4 -3 9 -5 14 -5c1 0 3 0 5 1c8 2 16 2 24 2c60 0 112 -46 116 -109v-16zM481 950c0 -14 4 -26 10 -38c7 -13 14 -18 24 -18c4 0 9 1 15 3c22 8 40 22 53 41c8 11 12 23 12 36c0 8 -1 15 -4 23
c-8 22 -26 36 -46 47c-2 1 -5 2 -6 2c-5 0 -8 -3 -9 -8c-4 -14 -14 -24 -25 -34c-16 -14 -22 -33 -24 -54z" />
    <glyph glyph-name="AE" unicode="&#xc6;" horiz-adv-x="1320" 
d="M615 286c-3 37 -6 74 -10 110l-2 17c-5 53 -14 106 -26 158c-5 19 -12 36 -21 52c-10 17 -23 26 -38 26c-7 0 -14 -1 -22 -4c-21 -7 -40 -18 -57 -33c-29 -26 -54 -55 -75 -88c-45 -77 -78 -160 -98 -249c-1 -5 -2 -11 -3 -16l-4 -16c-1 -3 -1 -5 -1 -7c0 -7 3 -10 9 -10
h2c2 0 4 0 7 1s6 2 9 2c66 13 133 21 201 25c36 3 72 4 108 4c9 0 15 1 18 2c2 1 3 4 3 10v16zM791 -155c-1 -1 -1 -1 -2 -1c-9 -7 -19 -11 -30 -11c-3 0 -7 0 -10 1c-22 5 -40 17 -53 36c-15 25 -27 52 -34 80c-13 53 -22 105 -28 157v3c-1 3 -1 6 -1 9s0 5 -1 8
c-1 10 -7 15 -18 15h-14c-107 -1 -214 -12 -319 -33c-2 -1 -4 -1 -6 -1c-3 -1 -5 -1 -7 -2c-9 -2 -16 -4 -20 -6c-5 -2 -7 -5 -8 -9c-1 -5 -2 -12 -3 -21c-1 -7 -1 -15 -1 -23c-1 -20 -2 -40 -2 -61c0 -18 1 -36 3 -55c1 -13 5 -26 10 -38c5 -10 7 -19 7 -28
c0 -13 -4 -24 -11 -34s-16 -17 -26 -21c-8 -4 -16 -6 -25 -6c-23 0 -41 13 -55 38c-11 28 -16 57 -17 87c0 4 0 8 -1 13v44h-1c0 18 0 35 1 52c0 13 -6 22 -17 25c-13 5 -22 12 -29 21s-10 19 -10 30c0 17 9 34 27 50l2 2c5 5 10 8 16 9c10 3 17 9 21 16s7 16 8 25
c14 94 40 185 77 272c30 73 73 138 129 194c27 28 59 50 94 65c26 13 53 19 82 19h10c35 -3 64 -15 87 -34c13 -12 25 -26 36 -42c39 22 80 38 123 48c103 30 207 45 314 45c15 0 29 0 44 -1c37 0 74 -6 111 -18c24 -8 44 -21 60 -40c11 -13 16 -27 16 -42c0 -3 0 -7 -1 -11
c-1 -11 -5 -16 -12 -16c-2 0 -4 1 -7 2c-16 6 -32 9 -49 9h-16c-31 2 -61 3 -91 3c-97 0 -193 -10 -289 -30c-31 -5 -50 -24 -57 -55c-20 -84 -35 -169 -44 -256v-7c0 -5 2 -8 5 -8s7 1 12 4c81 30 164 48 251 53c7 1 13 1 20 1c17 0 35 -2 52 -6c17 -3 33 -10 48 -20
c18 -15 27 -31 27 -50c0 -7 -1 -13 -4 -19c-2 -5 -5 -9 -8 -13s-8 -6 -13 -6h-3c-10 2 -20 3 -31 3c-13 0 -27 -1 -40 -3c-8 -1 -16 -1 -25 -2c-55 -3 -110 -11 -163 -24c-23 -5 -46 -13 -68 -22c-12 -6 -25 -9 -40 -9h-3c2 -4 4 -8 5 -12c1 -5 2 -9 2 -13
c0 -11 -5 -20 -16 -25c-3 -1 -5 -3 -7 -4c3 -29 9 -58 16 -87c5 -17 11 -33 18 -49c28 -53 72 -82 131 -87c11 -1 21 -2 32 -2c43 0 83 10 122 30l84 44c3 1 5 3 8 5l8 4c1 1 2 1 3 2c5 3 9 4 14 4c3 0 7 -1 10 -4s5 -7 5 -12s-1 -9 -3 -14c-14 -49 -41 -88 -81 -119
c-56 -38 -115 -57 -178 -57c-41 0 -80 8 -119 24c-12 5 -23 10 -34 17z" />
    <glyph glyph-name="Ccedilla" unicode="&#xc7;" horiz-adv-x="729" 
d="M329 -232c-33 7 -67 18 -100 33c-99 44 -158 120 -175 227c-2 15 -3 31 -3 46v30c0 31 3 61 8 91c5 29 11 59 19 88c28 109 71 211 129 306c35 61 79 114 133 158c17 13 36 22 56 29c14 4 27 6 40 6c31 0 58 -11 83 -34c39 -38 60 -84 65 -138v-7c0 -27 -14 -46 -43 -55
c-5 -1 -9 -2 -13 -2c-21 0 -38 12 -51 35c-3 7 -6 14 -8 22c-1 2 -1 4 -2 7l-1 3c-3 11 -8 23 -14 34s-13 16 -20 16c-5 0 -12 -3 -19 -8c-21 -15 -40 -34 -57 -56c-46 -57 -83 -120 -111 -189c-33 -75 -56 -153 -71 -234c-5 -28 -8 -56 -8 -84c0 -19 2 -38 5 -57
c9 -44 31 -79 67 -105c49 -32 102 -50 161 -55c15 -2 30 -3 45 -3c25 0 51 2 76 6s51 9 76 14c17 3 34 7 51 10l51 9c3 1 7 1 10 1c6 0 11 -3 15 -8c2 -3 3 -5 3 -7c0 -5 -2 -9 -5 -14c-1 -1 -1 -2 -2 -3c-27 -42 -64 -71 -111 -88c-35 -13 -69 -22 -104 -28
c21 -27 36 -58 43 -94c1 -7 2 -14 2 -21c0 -32 -14 -59 -41 -81c-15 -12 -32 -20 -50 -25c-26 -7 -52 -10 -78 -10c-24 0 -48 3 -72 9c-23 6 -43 18 -60 35c-9 9 -15 20 -18 33c-1 3 -1 6 -1 9c0 19 11 30 32 33h52c6 1 12 1 18 1c9 0 17 0 26 -1s18 -2 27 -2c7 0 14 1 21 2
c16 1 24 5 24 12c0 4 -4 11 -11 20c-20 26 -43 49 -70 69c-2 2 -4 3 -6 4c-3 2 -6 4 -8 6z" />
    <glyph glyph-name="Egrave" unicode="&#xc8;" horiz-adv-x="784" 
d="M132 564c-2 2 -4 2 -6 2c-3 0 -6 -1 -9 -1c-34 2 -56 27 -56 56c0 8 2 17 6 25c8 17 21 29 37 39c41 26 87 41 133 53c103 29 207 45 314 45c15 0 29 0 44 -1c37 -1 75 -5 111 -18c24 -8 44 -21 60 -40c11 -13 16 -27 16 -42c0 -4 0 -7 -1 -11c-1 -10 -5 -16 -12 -16
c-2 0 -4 1 -7 2c-21 9 -43 8 -65 9c-30 2 -61 3 -91 3c-97 0 -193 -9 -289 -30c-33 -7 -49 -22 -57 -55c-20 -84 -35 -169 -44 -256c0 -3 -1 -5 -1 -7c0 -5 2 -8 6 -8c2 0 6 2 12 4c80 33 165 45 251 53c7 1 13 1 20 1c17 0 35 -2 52 -6c17 -3 34 -10 48 -20
c17 -13 27 -32 27 -50c0 -7 -1 -13 -4 -19c-5 -9 -10 -19 -21 -19h-3c-10 2 -20 3 -31 3c-21 0 -43 -4 -65 -5c-55 -3 -110 -11 -163 -24c-23 -6 -46 -12 -68 -22c-12 -6 -25 -9 -40 -9h-6c-13 0 -16 -1 -16 -11v-7c2 -41 8 -83 19 -123c5 -17 11 -33 18 -49
c27 -55 73 -80 131 -87c11 -1 22 -2 32 -2c43 0 84 11 122 30c28 15 56 29 84 44c5 3 11 6 16 9c6 3 12 6 17 6c4 0 7 -1 10 -4c4 -3 5 -7 5 -12c0 -4 -1 -9 -3 -14c-15 -48 -40 -89 -81 -119c-52 -38 -115 -57 -178 -57c-82 0 -163 32 -220 95c-33 37 -53 81 -65 127
c-18 70 -26 140 -26 210c0 21 1 41 2 62c6 86 18 170 36 255c1 2 1 3 1 5s0 4 -2 6zM263 1065c0 26 19 43 42 43c4 0 8 0 12 -1c14 -4 25 -12 35 -23c9 -11 18 -22 28 -32c31 -36 62 -71 89 -110c13 -17 24 -35 30 -55c1 -3 2 -7 2 -11c0 -3 -1 -6 -5 -9c-1 -1 -3 -1 -4 -1
c-4 0 -8 4 -12 7c-29 20 -57 39 -85 59c-40 29 -76 61 -112 94c-11 10 -20 23 -20 37v2z" />
    <glyph glyph-name="Eacute" unicode="&#xc9;" horiz-adv-x="784" 
d="M132 564c-2 2 -4 2 -6 2c-3 0 -6 -1 -9 -1c-34 2 -56 27 -56 56c0 8 2 17 6 25c8 17 21 29 37 39c41 26 87 41 133 53c103 29 207 45 314 45c15 0 29 0 44 -1c37 -1 75 -5 111 -18c24 -8 44 -21 60 -40c11 -13 16 -27 16 -42c0 -4 0 -7 -1 -11c-1 -10 -5 -16 -12 -16
c-2 0 -4 1 -7 2c-21 9 -43 8 -65 9c-30 2 -61 3 -91 3c-97 0 -193 -9 -289 -30c-33 -7 -49 -22 -57 -55c-20 -84 -35 -169 -44 -256c0 -3 -1 -5 -1 -7c0 -5 2 -8 6 -8c2 0 6 2 12 4c80 33 165 45 251 53c7 1 13 1 20 1c17 0 35 -2 52 -6c17 -3 34 -10 48 -20
c17 -13 27 -32 27 -50c0 -7 -1 -13 -4 -19c-5 -9 -10 -19 -21 -19h-3c-10 2 -20 3 -31 3c-21 0 -43 -4 -65 -5c-55 -3 -110 -11 -163 -24c-23 -6 -46 -12 -68 -22c-12 -6 -25 -9 -40 -9h-6c-13 0 -16 -1 -16 -11v-7c2 -41 8 -83 19 -123c5 -17 11 -33 18 -49
c27 -55 73 -80 131 -87c11 -1 22 -2 32 -2c43 0 84 11 122 30c28 15 56 29 84 44c5 3 11 6 16 9c6 3 12 6 17 6c4 0 7 -1 10 -4c4 -3 5 -7 5 -12c0 -4 -1 -9 -3 -14c-15 -48 -40 -89 -81 -119c-52 -38 -115 -57 -178 -57c-82 0 -163 32 -220 95c-33 37 -53 81 -65 127
c-18 70 -26 140 -26 210c0 21 1 41 2 62c6 86 18 170 36 255c1 2 1 3 1 5s0 4 -2 6zM581 1062c0 -13 -8 -26 -19 -36c-36 -33 -73 -65 -113 -94c-28 -20 -56 -39 -84 -59c-4 -3 -8 -7 -13 -7c-1 0 -3 0 -4 1c-4 3 -5 6 -5 9c0 4 1 8 2 11c6 20 18 38 30 55
c27 39 58 74 90 110c9 10 18 21 27 32c10 11 21 19 35 23c4 1 8 1 12 1c23 0 42 -17 42 -43v-3z" />
    <glyph glyph-name="Ecircumflex" unicode="&#xca;" horiz-adv-x="784" 
d="M132 564c-2 2 -4 2 -6 2c-3 0 -6 -1 -9 -1c-34 2 -56 27 -56 56c0 8 2 17 6 25c8 17 21 29 37 39c41 26 87 41 133 53c103 29 207 45 314 45c15 0 29 0 44 -1c37 -1 75 -5 111 -18c24 -8 44 -21 60 -40c11 -13 16 -27 16 -42c0 -4 0 -7 -1 -11c-1 -10 -5 -16 -12 -16
c-2 0 -4 1 -7 2c-21 9 -43 8 -65 9c-30 2 -61 3 -91 3c-97 0 -193 -9 -289 -30c-33 -7 -49 -22 -57 -55c-20 -84 -35 -169 -44 -256c0 -3 -1 -5 -1 -7c0 -5 2 -8 6 -8c2 0 6 2 12 4c80 33 165 45 251 53c7 1 13 1 20 1c17 0 35 -2 52 -6c17 -3 34 -10 48 -20
c17 -13 27 -32 27 -50c0 -7 -1 -13 -4 -19c-5 -9 -10 -19 -21 -19h-3c-10 2 -20 3 -31 3c-21 0 -43 -4 -65 -5c-55 -3 -110 -11 -163 -24c-23 -6 -46 -12 -68 -22c-12 -6 -25 -9 -40 -9h-6c-13 0 -16 -1 -16 -11v-7c2 -41 8 -83 19 -123c5 -17 11 -33 18 -49
c27 -55 73 -80 131 -87c11 -1 22 -2 32 -2c43 0 84 11 122 30c28 15 56 29 84 44c5 3 11 6 16 9c6 3 12 6 17 6c4 0 7 -1 10 -4c4 -3 5 -7 5 -12c0 -4 -1 -9 -3 -14c-15 -48 -40 -89 -81 -119c-52 -38 -115 -57 -178 -57c-82 0 -163 32 -220 95c-33 37 -53 81 -65 127
c-18 70 -26 140 -26 210c0 21 1 41 2 62c6 86 18 170 36 255c1 2 1 3 1 5s0 4 -2 6zM563 869c-17 1 -32 7 -46 15c-25 14 -44 34 -60 56c-16 21 -31 44 -47 65c-5 7 -8 11 -12 11c-3 0 -6 -4 -12 -11c-14 -22 -25 -46 -36 -69c-5 -9 -10 -20 -17 -28
c-11 -14 -27 -21 -42 -21c-10 0 -20 3 -29 10c-14 10 -21 24 -21 39c0 12 4 23 12 34c13 16 27 30 42 45c20 21 39 42 61 62c21 19 42 28 63 28c23 0 46 -11 67 -35c11 -13 20 -27 29 -42c18 -31 36 -61 54 -92c8 -12 16 -25 27 -35c5 -5 8 -9 8 -12c0 -5 -4 -9 -11 -13
c-9 -5 -19 -7 -30 -7z" />
    <glyph glyph-name="Edieresis" unicode="&#xcb;" horiz-adv-x="784" 
d="M132 564c-2 2 -4 2 -6 2c-3 0 -6 -1 -9 -1c-34 2 -56 27 -56 56c0 8 2 17 6 25c8 17 21 29 37 39c41 26 87 41 133 53c103 29 207 45 314 45c15 0 29 0 44 -1c37 -1 75 -5 111 -18c24 -8 44 -21 60 -40c11 -13 16 -27 16 -42c0 -4 0 -7 -1 -11c-1 -10 -5 -16 -12 -16
c-2 0 -4 1 -7 2c-21 9 -43 8 -65 9c-30 2 -61 3 -91 3c-97 0 -193 -9 -289 -30c-33 -7 -49 -22 -57 -55c-20 -84 -35 -169 -44 -256c0 -3 -1 -5 -1 -7c0 -5 2 -8 6 -8c2 0 6 2 12 4c80 33 165 45 251 53c7 1 13 1 20 1c17 0 35 -2 52 -6c17 -3 34 -10 48 -20
c17 -13 27 -32 27 -50c0 -7 -1 -13 -4 -19c-5 -9 -10 -19 -21 -19h-3c-10 2 -20 3 -31 3c-21 0 -43 -4 -65 -5c-55 -3 -110 -11 -163 -24c-23 -6 -46 -12 -68 -22c-12 -6 -25 -9 -40 -9h-6c-13 0 -16 -1 -16 -11v-7c2 -41 8 -83 19 -123c5 -17 11 -33 18 -49
c27 -55 73 -80 131 -87c11 -1 22 -2 32 -2c43 0 84 11 122 30c28 15 56 29 84 44c5 3 11 6 16 9c6 3 12 6 17 6c4 0 7 -1 10 -4c4 -3 5 -7 5 -12c0 -4 -1 -9 -3 -14c-15 -48 -40 -89 -81 -119c-52 -38 -115 -57 -178 -57c-82 0 -163 32 -220 95c-33 37 -53 81 -65 127
c-18 70 -26 140 -26 210c0 21 1 41 2 62c6 86 18 170 36 255c1 2 1 3 1 5s0 4 -2 6zM387 992c0 -35 -10 -63 -35 -85c-12 -11 -26 -17 -40 -17c-15 0 -31 7 -44 21c-7 7 -12 16 -15 26c-6 15 -9 30 -9 45s3 30 8 45c10 29 32 47 59 47c12 0 24 -4 37 -12
c27 -17 39 -39 39 -67v-3zM599 992c0 -35 -10 -63 -35 -85c-12 -11 -26 -17 -40 -17c-15 0 -31 7 -44 21c-7 7 -12 16 -15 26c-6 15 -9 30 -9 45s3 30 8 45c10 29 32 47 59 47c12 0 24 -4 37 -12c27 -17 39 -39 39 -67v-3z" />
    <glyph glyph-name="Igrave" unicode="&#xcc;" horiz-adv-x="310" 
d="M117 551v19c0 11 -3 18 -14 22c-24 9 -37 31 -37 53c0 18 8 37 26 51c37 30 81 48 129 52h8c23 0 44 -8 60 -27c8 -10 13 -23 13 -34c0 -15 -8 -28 -28 -34c-30 -8 -41 -27 -41 -54v-21c-4 -115 -6 -229 -12 -343c-3 -49 -3 -99 -3 -149v-75c0 -8 1 -16 1 -24
c0 -18 5 -33 26 -38c14 -4 25 -14 32 -27c3 -7 5 -13 5 -19c0 -9 -4 -17 -14 -25s-23 -14 -23 -30c0 -6 -7 -8 -13 -10c-2 0 -5 -1 -7 -1c-4 0 -7 1 -11 2c-6 1 -12 2 -18 2c-16 0 -31 -5 -46 -12c-14 -7 -29 -13 -45 -13c-30 1 -51 23 -51 51v7c3 29 22 47 45 60
c17 9 22 12 22 22c0 4 -1 10 -2 18c-7 33 -10 67 -11 100c-2 42 -4 85 -4 127v20c4 105 5 211 12 316v14h1zM19 1030c0 26 19 43 42 43c4 0 8 0 12 -1c14 -4 25 -12 35 -23c9 -11 18 -22 28 -32c31 -36 62 -71 89 -110c13 -17 24 -35 30 -55c1 -3 2 -7 2 -11
c0 -3 -1 -6 -5 -9c-1 -1 -3 -1 -4 -1c-4 0 -8 4 -12 7c-29 20 -57 39 -85 59c-40 29 -76 61 -112 94c-11 10 -20 23 -20 37v2z" />
    <glyph glyph-name="Iacute" unicode="&#xcd;" horiz-adv-x="310" 
d="M117 551v19c0 11 -3 18 -14 22c-24 9 -37 31 -37 53c0 18 8 37 26 51c37 30 81 48 129 52h8c23 0 44 -8 60 -27c8 -10 13 -23 13 -34c0 -15 -8 -28 -28 -34c-30 -8 -41 -27 -41 -54v-21c-4 -115 -6 -229 -12 -343c-3 -49 -3 -99 -3 -149v-75c0 -8 1 -16 1 -24
c0 -18 5 -33 26 -38c14 -4 25 -14 32 -27c3 -7 5 -13 5 -19c0 -9 -4 -17 -14 -25s-23 -14 -23 -30c0 -6 -7 -8 -13 -10c-2 0 -5 -1 -7 -1c-4 0 -7 1 -11 2c-6 1 -12 2 -18 2c-16 0 -31 -5 -46 -12c-14 -7 -29 -13 -45 -13c-30 1 -51 23 -51 51v7c3 29 22 47 45 60
c17 9 22 12 22 22c0 4 -1 10 -2 18c-7 33 -10 67 -11 100c-2 42 -4 85 -4 127v20c4 105 5 211 12 316v14h1zM337 1027c0 -13 -8 -26 -19 -36c-36 -33 -73 -65 -113 -94c-28 -20 -56 -39 -84 -59c-4 -3 -8 -7 -13 -7c-1 0 -3 0 -4 1c-4 3 -5 6 -5 9c0 4 1 8 2 11
c6 20 18 38 30 55c27 39 58 74 90 110c9 10 18 21 27 32c10 11 21 19 35 23c4 1 8 1 12 1c23 0 42 -17 42 -43v-3z" />
    <glyph glyph-name="Icircumflex" unicode="&#xce;" horiz-adv-x="310" 
d="M117 551v19c0 11 -3 18 -14 22c-24 9 -37 31 -37 53c0 18 8 37 26 51c37 30 81 48 129 52h8c23 0 44 -8 60 -27c8 -10 13 -23 13 -34c0 -15 -8 -28 -28 -34c-30 -8 -41 -27 -41 -54v-21c-4 -115 -6 -229 -12 -343c-3 -49 -3 -99 -3 -149v-75c0 -8 1 -16 1 -24
c0 -18 5 -33 26 -38c14 -4 25 -14 32 -27c3 -7 5 -13 5 -19c0 -9 -4 -17 -14 -25s-23 -14 -23 -30c0 -6 -7 -8 -13 -10c-2 0 -5 -1 -7 -1c-4 0 -7 1 -11 2c-6 1 -12 2 -18 2c-16 0 -31 -5 -46 -12c-14 -7 -29 -13 -45 -13c-30 1 -51 23 -51 51v7c3 29 22 47 45 60
c17 9 22 12 22 22c0 4 -1 10 -2 18c-7 33 -10 67 -11 100c-2 42 -4 85 -4 127v20c4 105 5 211 12 316v14h1zM319 834c-17 1 -32 7 -46 15c-25 14 -44 34 -60 56c-16 21 -31 44 -47 65c-5 7 -8 11 -12 11c-3 0 -6 -4 -12 -11c-14 -22 -25 -46 -36 -69c-5 -9 -10 -20 -17 -28
c-11 -14 -27 -21 -42 -21c-10 0 -20 3 -29 10c-14 10 -21 24 -21 39c0 12 4 23 12 34c13 16 27 30 42 45c20 21 39 42 61 62c21 19 42 28 63 28c23 0 46 -11 67 -35c11 -13 20 -27 29 -42c18 -31 36 -61 54 -92c8 -12 16 -25 27 -35c5 -5 8 -9 8 -12c0 -5 -4 -9 -11 -13
c-9 -5 -19 -7 -30 -7z" />
    <glyph glyph-name="Idieresis" unicode="&#xcf;" horiz-adv-x="310" 
d="M117 551v19c0 11 -3 18 -14 22c-24 9 -37 31 -37 53c0 18 8 37 26 51c37 30 81 48 129 52h8c23 0 44 -8 60 -27c8 -10 13 -23 13 -34c0 -15 -8 -28 -28 -34c-30 -8 -41 -27 -41 -54v-21c-4 -115 -6 -229 -12 -343c-3 -49 -3 -99 -3 -149v-75c0 -8 1 -16 1 -24
c0 -18 5 -33 26 -38c14 -4 25 -14 32 -27c3 -7 5 -13 5 -19c0 -9 -4 -17 -14 -25s-23 -14 -23 -30c0 -6 -7 -8 -13 -10c-2 0 -5 -1 -7 -1c-4 0 -7 1 -11 2c-6 1 -12 2 -18 2c-16 0 -31 -5 -46 -12c-14 -7 -29 -13 -45 -13c-30 1 -51 23 -51 51v7c3 29 22 47 45 60
c17 9 22 12 22 22c0 4 -1 10 -2 18c-7 33 -10 67 -11 100c-2 42 -4 85 -4 127v20c4 105 5 211 12 316v14h1zM143 957c0 -35 -10 -63 -35 -85c-12 -11 -26 -17 -40 -17c-15 0 -31 7 -44 21c-7 7 -12 16 -15 26c-6 15 -9 30 -9 45s3 30 8 45c10 29 32 47 59 47
c12 0 24 -4 37 -12c27 -17 39 -39 39 -67v-3zM355 957c0 -35 -10 -63 -35 -85c-12 -11 -26 -17 -40 -17c-15 0 -31 7 -44 21c-7 7 -12 16 -15 26c-6 15 -9 30 -9 45s3 30 8 45c10 29 32 47 59 47c12 0 24 -4 37 -12c27 -17 39 -39 39 -67v-3z" />
    <glyph glyph-name="Eth" unicode="&#xd0;" horiz-adv-x="789" 
d="M130 350c2 39 4 77 8 115c4 47 8 93 13 139v9c0 3 0 7 -1 12c-5 -1 -10 -3 -14 -4c-3 -1 -5 -2 -8 -3c-5 -1 -9 -2 -14 -2c-15 0 -28 6 -39 17s-17 24 -17 39c0 5 1 9 2 14c7 21 19 38 38 50c23 15 47 26 72 34c49 15 99 25 151 28c13 1 25 1 37 1c49 0 96 -6 143 -17
c61 -14 114 -42 159 -85c34 -33 60 -71 79 -114c25 -59 38 -118 38 -177c0 -57 -11 -115 -33 -172c-43 -107 -101 -205 -173 -294c-32 -41 -68 -79 -108 -112c-30 -27 -65 -46 -106 -56c-6 -1 -12 -2 -17 -2c-11 0 -21 2 -31 6c-11 4 -20 11 -26 20c-5 7 -7 12 -7 16
c0 7 5 12 16 15c13 4 24 11 33 20c1 1 2 1 3 2c51 43 97 90 138 142c40 51 77 106 110 163c29 46 51 95 68 147c10 34 15 68 15 103c0 25 -3 50 -8 75c-26 112 -96 178 -211 197c-28 5 -56 7 -84 7c-25 0 -49 -2 -74 -6c-2 -1 -4 -1 -5 -1c-2 0 -4 0 -6 -1
c-5 -1 -8 -4 -8 -7c0 -1 0 -3 1 -5c6 -14 9 -28 9 -41c0 -15 -2 -30 -7 -45c-3 -15 -5 -29 -6 -44c0 -5 0 -11 -1 -17c-6 -56 -10 -113 -13 -170c23 -3 46 -6 69 -10l32 -6c34 -4 67 -13 98 -26c15 -6 29 -15 42 -26c3 -3 5 -6 8 -9c2 -4 3 -8 3 -12c0 -3 0 -5 -1 -8
c-3 -5 -6 -9 -11 -10s-10 -2 -15 -2c-21 -1 -41 -1 -61 -1c-28 0 -56 0 -83 1l-39 1h-45c-1 -24 -1 -47 -1 -70c0 -42 1 -84 2 -126c1 -47 6 -94 15 -141c0 -1 0 -3 1 -5c1 -13 6 -25 15 -36c3 -3 4 -7 4 -11c0 -5 -2 -10 -6 -15c-11 -12 -25 -18 -41 -18
c-11 0 -23 4 -34 11c-17 13 -29 29 -37 48c-15 33 -24 68 -27 105c-7 62 -10 124 -10 187c0 22 0 44 1 66c-14 0 -27 -1 -41 -2c-26 -1 -52 -3 -78 -7l-30 -4c-14 -1 -28 -2 -42 -2h-24c-10 1 -20 4 -30 7c-19 11 -29 25 -29 42c0 13 6 25 19 36c9 8 20 14 33 17
c32 11 65 18 99 20c43 5 85 9 128 10z" />
    <glyph glyph-name="Ntilde" unicode="&#xd1;" horiz-adv-x="857" 
d="M188 23c10 27 20 52 30 76c25 64 60 123 93 183c70 126 149 245 234 360c18 25 40 45 68 58c17 7 33 11 49 11c38 0 71 -20 92 -58c22 -37 28 -79 30 -120c2 -38 3 -76 3 -114c0 -21 0 -41 -1 -61c-1 -29 -2 -58 -2 -87c0 -30 1 -59 1 -88c1 -73 4 -146 14 -219
c1 -9 3 -18 4 -28c2 -7 6 -11 11 -11c2 0 4 0 6 1c3 1 5 1 7 2c4 1 7 1 10 1c11 0 17 -6 17 -17c0 -3 0 -6 -1 -10c-3 -19 -9 -38 -20 -54c-14 -19 -34 -29 -55 -29c-15 0 -30 5 -43 16c-22 18 -33 42 -40 68c-13 44 -17 90 -21 135c-4 51 -5 102 -5 154c0 51 1 102 1 153
c0 53 0 106 -1 158c0 23 -3 46 -8 68c-2 12 -5 16 -9 16s-8 -1 -14 -5c-33 -17 -58 -43 -82 -71c-63 -73 -112 -155 -149 -245c-41 -96 -73 -196 -114 -292c-16 -38 -31 -76 -57 -109c-18 -22 -42 -34 -66 -34c-12 0 -24 3 -35 9c-21 11 -33 30 -42 52c-12 30 -18 62 -23 94
c-9 66 -13 132 -16 198c-1 25 -2 50 -2 76c0 47 2 95 4 143c2 58 7 116 18 174c2 14 6 29 13 42c13 26 35 39 58 39c21 0 41 -10 55 -31c9 -12 16 -26 19 -41c1 -7 2 -13 2 -20c0 -19 -7 -36 -26 -48c-12 -9 -15 -19 -16 -32c-7 -69 -10 -138 -10 -208c0 -36 1 -72 2 -108
c1 -44 6 -88 10 -132c0 -4 0 -9 7 -15zM519 761c-43 5 -81 24 -104 66c-7 13 -13 27 -19 41c-3 5 -5 7 -8 7s-6 -2 -9 -5c-12 -14 -23 -30 -33 -46c-9 -17 -22 -27 -41 -27h-7c-22 4 -36 18 -42 39c-3 9 -5 18 -5 27c0 17 6 33 15 48c22 38 53 67 92 86c15 7 29 10 42 10
c25 0 48 -11 67 -33c11 -11 19 -23 25 -37c13 -27 25 -54 37 -82c6 -14 10 -19 22 -19c2 0 5 1 8 1c20 3 36 12 51 24l30 27c2 2 4 3 6 3s3 -1 5 -2c3 -2 3 -5 3 -8c0 -1 0 -2 -1 -3c-6 -58 -71 -117 -132 -117h-2z" />
    <glyph glyph-name="Ograve" unicode="&#xd2;" horiz-adv-x="747" 
d="M358 735c111 0 203 -38 277 -117c55 -59 84 -131 95 -210c4 -26 6 -52 6 -78c0 -88 -22 -173 -55 -257c-23 -58 -55 -110 -99 -154c-58 -60 -126 -102 -212 -106h-13c-63 0 -119 21 -167 64c-58 51 -88 117 -104 192c-6 31 -9 62 -9 94c0 39 4 78 11 117
c15 92 43 181 86 264c7 14 16 27 28 38c11 10 26 15 40 15c12 0 24 -4 34 -11c22 -15 33 -37 33 -59s-11 -44 -34 -59c-9 -5 -14 -12 -18 -21c-37 -90 -62 -183 -62 -279c0 -15 1 -30 2 -45c3 -51 19 -99 51 -140c28 -35 69 -54 111 -54c20 0 39 4 58 12c39 18 72 45 99 78
c53 68 80 146 95 229c5 29 8 58 8 87c0 32 -4 64 -12 96c-30 113 -123 186 -240 188h-5c-87 0 -170 -24 -248 -60c-10 -5 -18 -13 -26 -20c-6 -5 -11 -7 -15 -7c-5 0 -10 5 -14 14c-5 11 -7 22 -7 33c0 10 2 21 6 31c10 24 24 43 44 58c21 15 43 27 67 35
c60 22 123 32 185 32h4zM192 1017c0 26 19 43 42 43c4 0 8 0 12 -1c14 -4 25 -12 35 -23c9 -11 18 -22 28 -32c31 -36 62 -71 89 -110c13 -17 24 -35 30 -55c1 -3 2 -7 2 -11c0 -3 -1 -6 -5 -9c-1 -1 -3 -1 -4 -1c-4 0 -8 4 -12 7c-29 20 -57 39 -85 59
c-40 29 -76 61 -112 94c-11 10 -20 23 -20 37v2z" />
    <glyph glyph-name="Oacute" unicode="&#xd3;" horiz-adv-x="747" 
d="M358 735c111 0 203 -38 277 -117c55 -59 84 -131 95 -210c4 -26 6 -52 6 -78c0 -88 -22 -173 -55 -257c-23 -58 -55 -110 -99 -154c-58 -60 -126 -102 -212 -106h-13c-63 0 -119 21 -167 64c-58 51 -88 117 -104 192c-6 31 -9 62 -9 94c0 39 4 78 11 117
c15 92 43 181 86 264c7 14 16 27 28 38c11 10 26 15 40 15c12 0 24 -4 34 -11c22 -15 33 -37 33 -59s-11 -44 -34 -59c-9 -5 -14 -12 -18 -21c-37 -90 -62 -183 -62 -279c0 -15 1 -30 2 -45c3 -51 19 -99 51 -140c28 -35 69 -54 111 -54c20 0 39 4 58 12c39 18 72 45 99 78
c53 68 80 146 95 229c5 29 8 58 8 87c0 32 -4 64 -12 96c-30 113 -123 186 -240 188h-5c-87 0 -170 -24 -248 -60c-10 -5 -18 -13 -26 -20c-6 -5 -11 -7 -15 -7c-5 0 -10 5 -14 14c-5 11 -7 22 -7 33c0 10 2 21 6 31c10 24 24 43 44 58c21 15 43 27 67 35
c60 22 123 32 185 32h4zM510 1014c0 -13 -8 -26 -19 -36c-36 -33 -73 -65 -113 -94c-28 -20 -56 -39 -84 -59c-4 -3 -8 -7 -13 -7c-1 0 -3 0 -4 1c-4 3 -5 6 -5 9c0 4 1 8 2 11c6 20 18 38 30 55c27 39 58 74 90 110c9 10 18 21 27 32c10 11 21 19 35 23c4 1 8 1 12 1
c23 0 42 -17 42 -43v-3z" />
    <glyph glyph-name="Ocircumflex" unicode="&#xd4;" horiz-adv-x="747" 
d="M358 735c111 0 203 -38 277 -117c55 -59 84 -131 95 -210c4 -26 6 -52 6 -78c0 -88 -22 -173 -55 -257c-23 -58 -55 -110 -99 -154c-58 -60 -126 -102 -212 -106h-13c-63 0 -119 21 -167 64c-58 51 -88 117 -104 192c-6 31 -9 62 -9 94c0 39 4 78 11 117
c15 92 43 181 86 264c7 14 16 27 28 38c11 10 26 15 40 15c12 0 24 -4 34 -11c22 -15 33 -37 33 -59s-11 -44 -34 -59c-9 -5 -14 -12 -18 -21c-37 -90 -62 -183 -62 -279c0 -15 1 -30 2 -45c3 -51 19 -99 51 -140c28 -35 69 -54 111 -54c20 0 39 4 58 12c39 18 72 45 99 78
c53 68 80 146 95 229c5 29 8 58 8 87c0 32 -4 64 -12 96c-30 113 -123 186 -240 188h-5c-87 0 -170 -24 -248 -60c-10 -5 -18 -13 -26 -20c-6 -5 -11 -7 -15 -7c-5 0 -10 5 -14 14c-5 11 -7 22 -7 33c0 10 2 21 6 31c10 24 24 43 44 58c21 15 43 27 67 35
c60 22 123 32 185 32h4zM492 821c-17 1 -32 7 -46 15c-25 14 -44 34 -60 56c-16 21 -31 44 -47 65c-5 7 -8 11 -12 11c-3 0 -6 -4 -12 -11c-14 -22 -25 -46 -36 -69c-5 -9 -10 -20 -17 -28c-11 -14 -27 -21 -42 -21c-10 0 -20 3 -29 10c-14 10 -21 24 -21 39
c0 12 4 23 12 34c13 16 27 30 42 45c20 21 39 42 61 62c21 19 42 28 63 28c23 0 46 -11 67 -35c11 -13 20 -27 29 -42c18 -31 36 -61 54 -92c8 -12 16 -25 27 -35c5 -5 8 -9 8 -12c0 -5 -4 -9 -11 -13c-9 -5 -19 -7 -30 -7z" />
    <glyph glyph-name="Otilde" unicode="&#xd5;" horiz-adv-x="747" 
d="M358 735c111 0 203 -38 277 -117c55 -59 84 -131 95 -210c4 -26 6 -52 6 -78c0 -88 -22 -173 -55 -257c-23 -58 -55 -110 -99 -154c-58 -60 -126 -102 -212 -106h-13c-63 0 -119 21 -167 64c-58 51 -88 117 -104 192c-6 31 -9 62 -9 94c0 39 4 78 11 117
c15 92 43 181 86 264c7 14 16 27 28 38c11 10 26 15 40 15c12 0 24 -4 34 -11c22 -15 33 -37 33 -59s-11 -44 -34 -59c-9 -5 -14 -12 -18 -21c-37 -90 -62 -183 -62 -279c0 -15 1 -30 2 -45c3 -51 19 -99 51 -140c28 -35 69 -54 111 -54c20 0 39 4 58 12c39 18 72 45 99 78
c53 68 80 146 95 229c5 29 8 58 8 87c0 32 -4 64 -12 96c-30 113 -123 186 -240 188h-5c-87 0 -170 -24 -248 -60c-10 -5 -18 -13 -26 -20c-6 -5 -11 -7 -15 -7c-5 0 -10 5 -14 14c-5 11 -7 22 -7 33c0 10 2 21 6 31c10 24 24 43 44 58c21 15 43 27 67 35
c60 22 123 32 185 32h4zM417 816c-43 5 -81 24 -104 66c-7 13 -13 27 -19 41c-3 5 -5 7 -8 7s-6 -2 -9 -5c-12 -14 -23 -30 -33 -46c-9 -17 -22 -27 -41 -27h-7c-22 4 -36 18 -42 39c-3 9 -5 18 -5 27c0 17 6 33 15 48c22 38 53 67 92 86c15 7 29 10 42 10
c25 0 48 -11 67 -33c11 -11 19 -23 25 -37c13 -27 25 -54 37 -82c6 -14 10 -19 22 -19c2 0 5 1 8 1c20 3 36 12 51 24l30 27c2 2 4 3 6 3s3 -1 5 -2c3 -2 3 -5 3 -8c0 -1 0 -2 -1 -3c-6 -58 -71 -117 -132 -117h-2z" />
    <glyph glyph-name="Odieresis" unicode="&#xd6;" horiz-adv-x="747" 
d="M358 735c111 0 203 -38 277 -117c55 -59 84 -131 95 -210c4 -26 6 -52 6 -78c0 -88 -22 -173 -55 -257c-23 -58 -55 -110 -99 -154c-58 -60 -126 -102 -212 -106h-13c-63 0 -119 21 -167 64c-58 51 -88 117 -104 192c-6 31 -9 62 -9 94c0 39 4 78 11 117
c15 92 43 181 86 264c7 14 16 27 28 38c11 10 26 15 40 15c12 0 24 -4 34 -11c22 -15 33 -37 33 -59s-11 -44 -34 -59c-9 -5 -14 -12 -18 -21c-37 -90 -62 -183 -62 -279c0 -15 1 -30 2 -45c3 -51 19 -99 51 -140c28 -35 69 -54 111 -54c20 0 39 4 58 12c39 18 72 45 99 78
c53 68 80 146 95 229c5 29 8 58 8 87c0 32 -4 64 -12 96c-30 113 -123 186 -240 188h-5c-87 0 -170 -24 -248 -60c-10 -5 -18 -13 -26 -20c-6 -5 -11 -7 -15 -7c-5 0 -10 5 -14 14c-5 11 -7 22 -7 33c0 10 2 21 6 31c10 24 24 43 44 58c21 15 43 27 67 35
c60 22 123 32 185 32h4zM316 944c0 -35 -10 -63 -35 -85c-12 -11 -26 -17 -40 -17c-15 0 -31 7 -44 21c-7 7 -12 16 -15 26c-6 15 -9 30 -9 45s3 30 8 45c10 29 32 47 59 47c12 0 24 -4 37 -12c27 -17 39 -39 39 -67v-3zM528 944c0 -35 -10 -63 -35 -85
c-12 -11 -26 -17 -40 -17c-15 0 -31 7 -44 21c-7 7 -12 16 -15 26c-6 15 -9 30 -9 45s3 30 8 45c10 29 32 47 59 47c12 0 24 -4 37 -12c27 -17 39 -39 39 -67v-3z" />
    <glyph glyph-name="multiply" unicode="&#xd7;" horiz-adv-x="472" 
d="M100 103c2 42 18 81 41 119c8 13 13 18 13 23s-6 9 -20 21c-23 21 -47 41 -66 67c-9 13 -14 27 -14 42c0 5 0 10 2 16c8 25 30 39 53 39c8 0 16 -1 24 -5c11 -5 19 -13 27 -22c16 -17 33 -34 51 -49c9 -7 14 -11 18 -11c5 0 9 5 17 13c18 20 36 40 54 59c8 9 16 17 27 23
c9 5 19 7 29 7c14 0 27 -5 37 -15c11 -10 17 -24 17 -38c0 -9 -2 -18 -6 -27c-4 -10 -11 -19 -19 -27c-17 -19 -34 -37 -50 -57c-5 -6 -8 -10 -8 -13c0 -4 4 -8 11 -13c47 -34 84 -77 119 -121c4 -5 11 -12 11 -19c0 -2 -1 -4 -2 -6c-3 -5 -8 -7 -13 -7c-4 0 -9 2 -13 2
c-56 9 -109 25 -158 55c-5 2 -9 5 -14 8c-7 4 -11 6 -15 6c-5 0 -8 -4 -15 -12c-29 -36 -63 -68 -98 -98c-8 -7 -14 -10 -20 -10c-7 0 -13 7 -17 21c-3 9 -3 17 -3 29z" />
    <glyph glyph-name="Oslash" unicode="&#xd8;" horiz-adv-x="747" 
d="M570 512c-14 -37 -29 -73 -47 -108c-23 -48 -46 -96 -67 -145c-4 -8 -8 -16 -11 -25l-42 -99c-9 -21 -18 -41 -28 -62l-3 -6l-42 -99c-3 -8 -7 -16 -11 -25c0 -1 0 -3 -1 -5c0 -1 -1 -2 -1 -2c13 -5 27 -7 42 -7c19 0 39 4 58 12c39 19 72 45 99 78c51 69 82 145 95 229
c5 29 8 58 8 87c0 32 -4 64 -12 96c-10 31 -22 58 -37 81zM477 592c-31 16 -68 25 -110 27h-5c-44 0 -86 -5 -127 -16s-82 -25 -121 -44c-8 -5 -15 -10 -22 -16l-4 -4c-6 -5 -11 -7 -15 -7c-5 0 -10 5 -14 14c-5 11 -7 22 -7 33s2 21 6 31c10 24 25 43 44 58
c21 15 43 27 67 35c61 21 123 32 185 32h4c62 0 117 -12 167 -36c3 6 5 12 7 18l8 20c1 1 1 3 2 5c2 6 5 12 8 17c13 19 29 29 48 29c6 0 12 -1 18 -3c26 -11 39 -29 39 -54v-9c-1 -12 -5 -24 -10 -36c-7 -19 -14 -38 -22 -56l12 -12c54 -60 86 -130 95 -210
c4 -26 6 -52 6 -78c0 -44 -5 -87 -15 -130s-23 -85 -40 -127c-23 -58 -56 -109 -99 -154c-29 -31 -60 -55 -95 -74s-74 -29 -117 -32h-13c-33 0 -63 6 -92 17c-9 -19 -16 -39 -20 -59c-2 -7 -5 -10 -10 -10c-3 0 -6 1 -9 3c-8 6 -13 14 -15 23c-3 13 -5 27 -5 40v14
c0 7 0 15 1 22c-6 5 -11 9 -17 14c-55 52 -90 116 -104 192c-6 31 -9 63 -9 94c0 39 4 78 11 117c15 93 43 181 86 264c7 14 16 27 28 38c12 10 25 15 40 15c12 0 23 -4 34 -11c22 -17 33 -37 33 -59s-11 -42 -34 -59c-9 -5 -15 -12 -18 -21c-19 -45 -34 -91 -45 -137
c-11 -47 -17 -94 -17 -142c0 -15 1 -30 2 -45c2 -42 14 -81 36 -117c0 2 1 5 2 7c25 85 56 167 93 247c9 21 19 42 29 63c13 35 28 70 44 104c18 41 37 81 56 121l8 18l2 4c1 1 1 3 2 5c2 6 5 12 8 17z" />
    <glyph glyph-name="Ugrave" unicode="&#xd9;" horiz-adv-x="738" 
d="M594 250c-10 -7 -11 -14 -14 -21c-21 -48 -45 -95 -70 -142c-34 -66 -81 -121 -140 -166c-13 -10 -26 -18 -40 -25c-29 -15 -58 -23 -86 -23c-56 0 -107 32 -139 91c-22 40 -33 83 -41 128c-6 34 -8 67 -8 100c0 47 5 95 11 142c10 80 28 158 46 236c3 12 6 23 12 33
c12 20 32 30 52 30s40 -10 51 -31c8 -16 14 -33 14 -49s-6 -32 -19 -48c-5 -5 -8 -12 -10 -19c-21 -96 -40 -193 -40 -292c0 -12 0 -23 1 -35c2 -41 10 -81 24 -120c6 -16 15 -29 28 -41c7 -5 13 -8 21 -8c3 0 6 0 9 1c20 5 36 16 52 28c20 17 39 35 55 55
c57 75 112 150 154 234c32 67 55 136 67 209c7 39 18 78 27 117c3 12 9 24 18 33c12 12 25 19 41 19c5 0 11 -1 17 -3c22 -8 37 -24 40 -48c1 -6 1 -13 1 -19c0 -10 -1 -20 -2 -31c-7 -58 -11 -117 -13 -176c-1 -37 -3 -75 -3 -112v-18c2 -108 3 -216 13 -323
c4 -35 8 -70 12 -106v-5c0 -19 -13 -33 -32 -33c-2 0 -5 0 -8 1c-12 2 -22 8 -31 16c-14 14 -23 30 -30 48c-15 40 -20 82 -26 124c-10 78 -14 155 -14 233v16zM237 962c0 26 19 43 42 43c4 0 8 0 12 -1c14 -4 25 -12 35 -23c9 -11 18 -22 28 -32c31 -36 62 -71 89 -110
c13 -17 24 -35 30 -55c1 -3 2 -7 2 -11c0 -3 -1 -6 -5 -9c-1 -1 -3 -1 -4 -1c-4 0 -8 4 -12 7c-29 20 -57 39 -85 59c-40 29 -76 61 -112 94c-11 10 -20 23 -20 37v2z" />
    <glyph glyph-name="Uacute" unicode="&#xda;" horiz-adv-x="738" 
d="M594 250c-10 -7 -11 -14 -14 -21c-21 -48 -45 -95 -70 -142c-34 -66 -81 -121 -140 -166c-13 -10 -26 -18 -40 -25c-29 -15 -58 -23 -86 -23c-56 0 -107 32 -139 91c-22 40 -33 83 -41 128c-6 34 -8 67 -8 100c0 47 5 95 11 142c10 80 28 158 46 236c3 12 6 23 12 33
c12 20 32 30 52 30s40 -10 51 -31c8 -16 14 -33 14 -49s-6 -32 -19 -48c-5 -5 -8 -12 -10 -19c-21 -96 -40 -193 -40 -292c0 -12 0 -23 1 -35c2 -41 10 -81 24 -120c6 -16 15 -29 28 -41c7 -5 13 -8 21 -8c3 0 6 0 9 1c20 5 36 16 52 28c20 17 39 35 55 55
c57 75 112 150 154 234c32 67 55 136 67 209c7 39 18 78 27 117c3 12 9 24 18 33c12 12 25 19 41 19c5 0 11 -1 17 -3c22 -8 37 -24 40 -48c1 -6 1 -13 1 -19c0 -10 -1 -20 -2 -31c-7 -58 -11 -117 -13 -176c-1 -37 -3 -75 -3 -112v-18c2 -108 3 -216 13 -323
c4 -35 8 -70 12 -106v-5c0 -19 -13 -33 -32 -33c-2 0 -5 0 -8 1c-12 2 -22 8 -31 16c-14 14 -23 30 -30 48c-15 40 -20 82 -26 124c-10 78 -14 155 -14 233v16zM555 959c0 -13 -8 -26 -19 -36c-36 -33 -73 -65 -113 -94c-28 -20 -56 -39 -84 -59c-4 -3 -8 -7 -13 -7
c-1 0 -3 0 -4 1c-4 3 -5 6 -5 9c0 4 1 8 2 11c6 20 18 38 30 55c27 39 58 74 90 110c9 10 18 21 27 32c10 11 21 19 35 23c4 1 8 1 12 1c23 0 42 -17 42 -43v-3z" />
    <glyph glyph-name="Ucircumflex" unicode="&#xdb;" horiz-adv-x="738" 
d="M594 250c-10 -7 -11 -14 -14 -21c-21 -48 -45 -95 -70 -142c-34 -66 -81 -121 -140 -166c-13 -10 -26 -18 -40 -25c-29 -15 -58 -23 -86 -23c-56 0 -107 32 -139 91c-22 40 -33 83 -41 128c-6 34 -8 67 -8 100c0 47 5 95 11 142c10 80 28 158 46 236c3 12 6 23 12 33
c12 20 32 30 52 30s40 -10 51 -31c8 -16 14 -33 14 -49s-6 -32 -19 -48c-5 -5 -8 -12 -10 -19c-21 -96 -40 -193 -40 -292c0 -12 0 -23 1 -35c2 -41 10 -81 24 -120c6 -16 15 -29 28 -41c7 -5 13 -8 21 -8c3 0 6 0 9 1c20 5 36 16 52 28c20 17 39 35 55 55
c57 75 112 150 154 234c32 67 55 136 67 209c7 39 18 78 27 117c3 12 9 24 18 33c12 12 25 19 41 19c5 0 11 -1 17 -3c22 -8 37 -24 40 -48c1 -6 1 -13 1 -19c0 -10 -1 -20 -2 -31c-7 -58 -11 -117 -13 -176c-1 -37 -3 -75 -3 -112v-18c2 -108 3 -216 13 -323
c4 -35 8 -70 12 -106v-5c0 -19 -13 -33 -32 -33c-2 0 -5 0 -8 1c-12 2 -22 8 -31 16c-14 14 -23 30 -30 48c-15 40 -20 82 -26 124c-10 78 -14 155 -14 233v16zM537 766c-17 1 -32 7 -46 15c-25 14 -44 34 -60 56c-16 21 -31 44 -47 65c-5 7 -8 11 -12 11
c-3 0 -6 -4 -12 -11c-14 -22 -25 -46 -36 -69c-5 -9 -10 -20 -17 -28c-11 -14 -27 -21 -42 -21c-10 0 -20 3 -29 10c-14 10 -21 24 -21 39c0 12 4 23 12 34c13 16 27 30 42 45c20 21 39 42 61 62c21 19 42 28 63 28c23 0 46 -11 67 -35c11 -13 20 -27 29 -42
c18 -31 36 -61 54 -92c8 -12 16 -25 27 -35c5 -5 8 -9 8 -12c0 -5 -4 -9 -11 -13c-9 -5 -19 -7 -30 -7z" />
    <glyph glyph-name="Udieresis" unicode="&#xdc;" horiz-adv-x="738" 
d="M594 250c-10 -7 -11 -14 -14 -21c-21 -48 -45 -95 -70 -142c-34 -66 -81 -121 -140 -166c-13 -10 -26 -18 -40 -25c-29 -15 -58 -23 -86 -23c-56 0 -107 32 -139 91c-22 40 -33 83 -41 128c-6 34 -8 67 -8 100c0 47 5 95 11 142c10 80 28 158 46 236c3 12 6 23 12 33
c12 20 32 30 52 30s40 -10 51 -31c8 -16 14 -33 14 -49s-6 -32 -19 -48c-5 -5 -8 -12 -10 -19c-21 -96 -40 -193 -40 -292c0 -12 0 -23 1 -35c2 -41 10 -81 24 -120c6 -16 15 -29 28 -41c7 -5 13 -8 21 -8c3 0 6 0 9 1c20 5 36 16 52 28c20 17 39 35 55 55
c57 75 112 150 154 234c32 67 55 136 67 209c7 39 18 78 27 117c3 12 9 24 18 33c12 12 25 19 41 19c5 0 11 -1 17 -3c22 -8 37 -24 40 -48c1 -6 1 -13 1 -19c0 -10 -1 -20 -2 -31c-7 -58 -11 -117 -13 -176c-1 -37 -3 -75 -3 -112v-18c2 -108 3 -216 13 -323
c4 -35 8 -70 12 -106v-5c0 -19 -13 -33 -32 -33c-2 0 -5 0 -8 1c-12 2 -22 8 -31 16c-14 14 -23 30 -30 48c-15 40 -20 82 -26 124c-10 78 -14 155 -14 233v16zM361 889c0 -35 -10 -63 -35 -85c-12 -11 -26 -17 -40 -17c-15 0 -31 7 -44 21c-7 7 -12 16 -15 26
c-6 15 -9 30 -9 45s3 30 8 45c10 29 32 47 59 47c12 0 24 -4 37 -12c27 -17 39 -39 39 -67v-3zM573 889c0 -35 -10 -63 -35 -85c-12 -11 -26 -17 -40 -17c-15 0 -31 7 -44 21c-7 7 -12 16 -15 26c-6 15 -9 30 -9 45s3 30 8 45c10 29 32 47 59 47c12 0 24 -4 37 -12
c27 -17 39 -39 39 -67v-3z" />
    <glyph glyph-name="Yacute" unicode="&#xdd;" horiz-adv-x="702" 
d="M380 68c2 30 0 64 4 98v5c0 7 -2 10 -8 10c-2 0 -5 0 -8 -1c-8 -1 -16 -2 -24 -2c-46 0 -85 20 -118 55c-27 28 -49 59 -68 93c-17 28 -31 57 -46 85c-6 13 -13 25 -25 34c-4 3 -9 7 -11 12c-14 26 -22 54 -22 83c0 8 1 16 2 24c5 27 30 43 56 43c13 0 27 -4 38 -13
c11 -10 18 -22 24 -35c20 -45 39 -91 62 -135c18 -33 36 -66 60 -96c7 -9 16 -18 25 -25c6 -5 12 -7 19 -7c6 0 12 2 18 6c11 6 20 15 29 23c66 62 114 137 159 214c22 37 38 76 57 114c7 15 14 30 22 44c7 13 15 24 25 34c8 8 16 13 23 13c9 0 16 -8 21 -23
c5 -16 7 -32 7 -48v-10c-4 -48 -19 -93 -38 -136c-37 -84 -84 -162 -144 -232c-12 -13 -15 -26 -15 -44c0 -50 -4 -99 -6 -149c-1 -18 -2 -37 -2 -55c0 -45 4 -89 10 -133c3 -16 7 -31 23 -40c7 -4 9 -10 9 -17c0 -3 0 -5 -1 -8c-4 -27 -28 -46 -55 -46c-4 0 -7 0 -11 1
c-24 6 -43 20 -55 42c-18 30 -26 64 -31 98c-5 40 -5 80 -5 124zM537 913c0 -13 -8 -26 -19 -36c-36 -33 -73 -65 -113 -94c-28 -20 -56 -39 -84 -59c-4 -3 -8 -7 -13 -7c-1 0 -3 0 -4 1c-4 3 -5 6 -5 9c0 4 1 8 2 11c6 20 18 38 30 55c27 39 58 74 90 110c9 10 18 21 27 32
c10 11 21 19 35 23c4 1 8 1 12 1c23 0 42 -17 42 -43v-3z" />
    <glyph glyph-name="Thorn" unicode="&#xde;" horiz-adv-x="867" 
d="M177 242c3 10 6 21 9 31c33 111 79 216 151 308c50 64 110 117 185 150c41 19 84 30 127 30c28 0 56 -5 84 -15c75 -26 121 -93 121 -168c0 -11 -1 -23 -3 -34c-11 -62 -41 -114 -81 -160c-89 -103 -199 -174 -325 -220c-19 -7 -38 -11 -58 -14c-12 -2 -24 -3 -35 -3
c-42 0 -71 16 -101 54c-7 -1 -6 -8 -7 -13c-8 -42 -12 -84 -15 -126c-1 -18 -2 -35 -2 -53c0 -27 1 -55 2 -82v-8c0 -19 -3 -38 -12 -56c-12 -22 -29 -38 -56 -38h-2c-27 1 -46 14 -57 38c-5 10 -9 21 -11 32c-5 19 -10 39 -13 60c-18 102 -25 205 -25 308c0 33 1 66 2 99
c3 79 25 343 39 421c3 16 6 33 13 48c12 26 32 43 62 43h2c26 0 53 -20 63 -46c4 -9 6 -18 6 -27c0 -15 -7 -28 -20 -40c-11 -10 -15 -21 -17 -35c-25 -248 -29 -313 -29 -378c0 -35 1 -70 3 -106zM331 256c3 0 9 0 15 1s11 2 17 3c121 32 223 98 308 188
c31 32 56 71 65 116c1 5 2 10 2 15c0 21 -10 38 -29 50c-14 9 -29 13 -45 14h-13c-38 0 -74 -11 -108 -27c-65 -31 -115 -78 -161 -133c-43 -51 -76 -109 -102 -171c-2 -6 -5 -11 -5 -17v-4c5 -18 30 -35 54 -35h2z" />
    <glyph glyph-name="germandbls" unicode="&#xdf;" horiz-adv-x="561" 
d="M52 168c3 86 6 172 16 257c5 42 10 84 15 127c0 3 1 6 1 9c0 5 -1 9 -2 14c-1 6 -1 12 -1 17c0 34 17 64 50 78c56 23 113 35 170 35c48 0 97 -8 145 -26c35 -12 65 -33 85 -65c15 -23 23 -48 23 -74c0 -14 -2 -28 -7 -43c-11 -40 -34 -74 -60 -106
c-25 -30 -50 -59 -75 -89c-4 -5 -8 -11 -13 -17c-9 -11 -14 -18 -14 -22c0 -6 8 -9 25 -16c20 -7 41 -15 61 -24c23 -11 44 -25 59 -46c16 -20 23 -41 23 -63c0 -19 -5 -37 -17 -56c-21 -34 -52 -56 -87 -73c-43 -21 -88 -36 -135 -44c-13 -2 -25 -4 -38 -4
c-8 0 -17 1 -25 2c-24 2 -46 11 -62 30c-8 10 -12 21 -12 32c0 8 2 16 7 23c3 6 8 11 14 11c2 0 3 0 5 -1c4 -1 7 -1 11 -1c3 0 7 0 10 1c39 14 81 22 120 34c21 7 41 14 59 25c9 4 21 7 21 18v1c-1 10 -14 11 -22 15c-19 7 -37 13 -56 20c-16 6 -32 14 -46 25
c-26 19 -40 47 -40 77c0 10 2 21 5 32c12 41 39 73 66 105c23 29 48 58 72 87c11 13 20 27 26 42c5 10 7 18 7 24c0 12 -8 20 -26 29c-17 9 -35 14 -54 16s-38 4 -57 4c-23 0 -47 -2 -70 -8c-23 -5 -27 -9 -30 -32c-18 -143 -30 -285 -30 -429c0 -43 -1 -86 -6 -129
c-1 -5 -1 -10 -1 -15c0 -9 1 -18 6 -27c2 -4 3 -8 3 -11c0 -6 -5 -9 -14 -11c-3 -1 -6 -1 -10 -1c-12 0 -23 6 -33 15c-18 15 -30 35 -38 56c-11 27 -17 56 -20 85c-2 23 -5 47 -5 70c0 6 1 11 1 17z" />
    <glyph glyph-name="agrave" unicode="&#xe0;" horiz-adv-x="555" 
d="M382 160c-4 35 -8 70 -21 103c-5 12 -14 17 -28 17h-5c-16 0 -30 -5 -45 -10c-38 -14 -71 -34 -95 -68c-3 -5 -8 -10 -12 -14c-11 -11 -25 -16 -39 -16c-8 0 -16 1 -24 5c-19 10 -31 31 -31 53v7c2 15 9 28 17 41c17 24 38 44 63 60c48 31 100 53 158 59c5 1 11 1 16 1
c56 0 103 -29 129 -81c16 -31 22 -65 27 -100c7 -46 14 -91 16 -138c1 -15 2 -17 11 -17h9c4 0 8 2 12 2c5 0 9 -2 11 -7c1 -2 1 -3 1 -4c0 -8 -8 -12 -13 -17s-11 -9 -17 -13c-10 -8 -19 -16 -24 -29c-6 -14 -17 -22 -32 -22h-9c-10 0 -19 -4 -28 -9
c-57 -30 -117 -55 -176 -80c-23 -9 -47 -14 -71 -17c-7 -1 -13 -1 -20 -1c-10 0 -21 1 -31 4c-44 11 -74 49 -74 92c0 5 1 11 2 17c7 39 28 70 52 99c50 58 115 87 190 94h9c17 0 33 -4 49 -7c6 -2 11 -5 18 -5c1 0 3 1 5 1zM192 -14c68 10 134 30 199 49c6 2 8 5 8 10
c0 1 0 3 -1 5c-2 9 -5 16 -12 22c-14 11 -29 18 -46 18c-6 0 -13 -1 -20 -3c-20 -7 -38 -15 -55 -28c-23 -17 -45 -37 -64 -58c-4 -4 -9 -7 -9 -13v-2zM173 680c0 26 19 43 42 43c4 0 8 0 12 -1c14 -4 25 -12 35 -23c9 -11 18 -22 28 -32c31 -36 62 -71 89 -110
c13 -17 24 -35 30 -55c1 -3 2 -7 2 -11c0 -3 -1 -6 -5 -9c-1 -1 -3 -1 -4 -1c-4 0 -8 4 -12 7c-29 20 -57 39 -85 59c-40 29 -76 61 -112 94c-11 10 -20 23 -20 37v2z" />
    <glyph glyph-name="aacute" unicode="&#xe1;" horiz-adv-x="555" 
d="M382 160c-4 35 -8 70 -21 103c-5 12 -14 17 -28 17h-5c-16 0 -30 -5 -45 -10c-38 -14 -71 -34 -95 -68c-3 -5 -8 -10 -12 -14c-11 -11 -25 -16 -39 -16c-8 0 -16 1 -24 5c-19 10 -31 31 -31 53v7c2 15 9 28 17 41c17 24 38 44 63 60c48 31 100 53 158 59c5 1 11 1 16 1
c56 0 103 -29 129 -81c16 -31 22 -65 27 -100c7 -46 14 -91 16 -138c1 -15 2 -17 11 -17h9c4 0 8 2 12 2c5 0 9 -2 11 -7c1 -2 1 -3 1 -4c0 -8 -8 -12 -13 -17s-11 -9 -17 -13c-10 -8 -19 -16 -24 -29c-6 -14 -17 -22 -32 -22h-9c-10 0 -19 -4 -28 -9
c-57 -30 -117 -55 -176 -80c-23 -9 -47 -14 -71 -17c-7 -1 -13 -1 -20 -1c-10 0 -21 1 -31 4c-44 11 -74 49 -74 92c0 5 1 11 2 17c7 39 28 70 52 99c50 58 115 87 190 94h9c17 0 33 -4 49 -7c6 -2 11 -5 18 -5c1 0 3 1 5 1zM192 -14c68 10 134 30 199 49c6 2 8 5 8 10
c0 1 0 3 -1 5c-2 9 -5 16 -12 22c-14 11 -29 18 -46 18c-6 0 -13 -1 -20 -3c-20 -7 -38 -15 -55 -28c-23 -17 -45 -37 -64 -58c-4 -4 -9 -7 -9 -13v-2zM491 677c0 -13 -8 -26 -19 -36c-36 -33 -73 -65 -113 -94c-28 -20 -56 -39 -84 -59c-4 -3 -8 -7 -13 -7c-1 0 -3 0 -4 1
c-4 3 -5 6 -5 9c0 4 1 8 2 11c6 20 18 38 30 55c27 39 58 74 90 110c9 10 18 21 27 32c10 11 21 19 35 23c4 1 8 1 12 1c23 0 42 -17 42 -43v-3z" />
    <glyph glyph-name="acircumflex" unicode="&#xe2;" horiz-adv-x="555" 
d="M382 160c-4 35 -8 70 -21 103c-5 12 -14 17 -28 17h-5c-16 0 -30 -5 -45 -10c-38 -14 -71 -34 -95 -68c-3 -5 -8 -10 -12 -14c-11 -11 -25 -16 -39 -16c-8 0 -16 1 -24 5c-19 10 -31 31 -31 53v7c2 15 9 28 17 41c17 24 38 44 63 60c48 31 100 53 158 59c5 1 11 1 16 1
c56 0 103 -29 129 -81c16 -31 22 -65 27 -100c7 -46 14 -91 16 -138c1 -15 2 -17 11 -17h9c4 0 8 2 12 2c5 0 9 -2 11 -7c1 -2 1 -3 1 -4c0 -8 -8 -12 -13 -17s-11 -9 -17 -13c-10 -8 -19 -16 -24 -29c-6 -14 -17 -22 -32 -22h-9c-10 0 -19 -4 -28 -9
c-57 -30 -117 -55 -176 -80c-23 -9 -47 -14 -71 -17c-7 -1 -13 -1 -20 -1c-10 0 -21 1 -31 4c-44 11 -74 49 -74 92c0 5 1 11 2 17c7 39 28 70 52 99c50 58 115 87 190 94h9c17 0 33 -4 49 -7c6 -2 11 -5 18 -5c1 0 3 1 5 1zM192 -14c68 10 134 30 199 49c6 2 8 5 8 10
c0 1 0 3 -1 5c-2 9 -5 16 -12 22c-14 11 -29 18 -46 18c-6 0 -13 -1 -20 -3c-20 -7 -38 -15 -55 -28c-23 -17 -45 -37 -64 -58c-4 -4 -9 -7 -9 -13v-2zM473 484c-17 1 -32 7 -46 15c-25 14 -44 34 -60 56c-16 21 -31 44 -47 65c-5 7 -8 11 -12 11c-3 0 -6 -4 -12 -11
c-14 -22 -25 -46 -36 -69c-5 -9 -10 -20 -17 -28c-11 -14 -27 -21 -42 -21c-10 0 -20 3 -29 10c-14 10 -21 24 -21 39c0 12 4 23 12 34c13 16 27 30 42 45c20 21 39 42 61 62c21 19 42 28 63 28c23 0 46 -11 67 -35c11 -13 20 -27 29 -42c18 -31 36 -61 54 -92
c8 -12 16 -25 27 -35c5 -5 8 -9 8 -12c0 -5 -4 -9 -11 -13c-9 -5 -19 -7 -30 -7z" />
    <glyph glyph-name="atilde" unicode="&#xe3;" horiz-adv-x="555" 
d="M382 160c-4 35 -8 70 -21 103c-5 12 -14 17 -28 17h-5c-16 0 -30 -5 -45 -10c-38 -14 -71 -34 -95 -68c-3 -5 -8 -10 -12 -14c-11 -11 -25 -16 -39 -16c-8 0 -16 1 -24 5c-19 10 -31 31 -31 53v7c2 15 9 28 17 41c17 24 38 44 63 60c48 31 100 53 158 59c5 1 11 1 16 1
c56 0 103 -29 129 -81c16 -31 22 -65 27 -100c7 -46 14 -91 16 -138c1 -15 2 -17 11 -17h9c4 0 8 2 12 2c5 0 9 -2 11 -7c1 -2 1 -3 1 -4c0 -8 -8 -12 -13 -17s-11 -9 -17 -13c-10 -8 -19 -16 -24 -29c-6 -14 -17 -22 -32 -22h-9c-10 0 -19 -4 -28 -9
c-57 -30 -117 -55 -176 -80c-23 -9 -47 -14 -71 -17c-7 -1 -13 -1 -20 -1c-10 0 -21 1 -31 4c-44 11 -74 49 -74 92c0 5 1 11 2 17c7 39 28 70 52 99c50 58 115 87 190 94h9c17 0 33 -4 49 -7c6 -2 11 -5 18 -5c1 0 3 1 5 1zM192 -14c68 10 134 30 199 49c6 2 8 5 8 10
c0 1 0 3 -1 5c-2 9 -5 16 -12 22c-14 11 -29 18 -46 18c-6 0 -13 -1 -20 -3c-20 -7 -38 -15 -55 -28c-23 -17 -45 -37 -64 -58c-4 -4 -9 -7 -9 -13v-2zM398 479c-43 5 -81 24 -104 66c-7 13 -13 27 -19 41c-3 5 -5 7 -8 7s-6 -2 -9 -5c-12 -14 -23 -30 -33 -46
c-9 -17 -22 -27 -41 -27h-7c-22 4 -36 18 -42 39c-3 9 -5 18 -5 27c0 17 6 33 15 48c22 38 53 67 92 86c15 7 29 10 42 10c25 0 48 -11 67 -33c11 -11 19 -23 25 -37c13 -27 25 -54 37 -82c6 -14 10 -19 22 -19c2 0 5 1 8 1c20 3 36 12 51 24l30 27c2 2 4 3 6 3s3 -1 5 -2
c3 -2 3 -5 3 -8c0 -1 0 -2 -1 -3c-6 -58 -71 -117 -132 -117h-2z" />
    <glyph glyph-name="adieresis" unicode="&#xe4;" horiz-adv-x="555" 
d="M382 160c-4 35 -8 70 -21 103c-5 12 -14 17 -28 17h-5c-16 0 -30 -5 -45 -10c-38 -14 -71 -34 -95 -68c-3 -5 -8 -10 -12 -14c-11 -11 -25 -16 -39 -16c-8 0 -16 1 -24 5c-19 10 -31 31 -31 53v7c2 15 9 28 17 41c17 24 38 44 63 60c48 31 100 53 158 59c5 1 11 1 16 1
c56 0 103 -29 129 -81c16 -31 22 -65 27 -100c7 -46 14 -91 16 -138c1 -15 2 -17 11 -17h9c4 0 8 2 12 2c5 0 9 -2 11 -7c1 -2 1 -3 1 -4c0 -8 -8 -12 -13 -17s-11 -9 -17 -13c-10 -8 -19 -16 -24 -29c-6 -14 -17 -22 -32 -22h-9c-10 0 -19 -4 -28 -9
c-57 -30 -117 -55 -176 -80c-23 -9 -47 -14 -71 -17c-7 -1 -13 -1 -20 -1c-10 0 -21 1 -31 4c-44 11 -74 49 -74 92c0 5 1 11 2 17c7 39 28 70 52 99c50 58 115 87 190 94h9c17 0 33 -4 49 -7c6 -2 11 -5 18 -5c1 0 3 1 5 1zM192 -14c68 10 134 30 199 49c6 2 8 5 8 10
c0 1 0 3 -1 5c-2 9 -5 16 -12 22c-14 11 -29 18 -46 18c-6 0 -13 -1 -20 -3c-20 -7 -38 -15 -55 -28c-23 -17 -45 -37 -64 -58c-4 -4 -9 -7 -9 -13v-2zM297 607c0 -35 -10 -63 -35 -85c-12 -11 -26 -17 -40 -17c-15 0 -31 7 -44 21c-7 7 -12 16 -15 26c-6 15 -9 30 -9 45
s3 30 8 45c10 29 32 47 59 47c12 0 24 -4 37 -12c27 -17 39 -39 39 -67v-3zM509 607c0 -35 -10 -63 -35 -85c-12 -11 -26 -17 -40 -17c-15 0 -31 7 -44 21c-7 7 -12 16 -15 26c-6 15 -9 30 -9 45s3 30 8 45c10 29 32 47 59 47c12 0 24 -4 37 -12c27 -17 39 -39 39 -67v-3z
" />
    <glyph glyph-name="aring" unicode="&#xe5;" horiz-adv-x="555" 
d="M382 160c-4 35 -8 70 -21 103c-5 12 -14 17 -28 17h-5c-16 0 -30 -5 -45 -10c-38 -14 -71 -34 -95 -68c-3 -5 -8 -10 -12 -14c-11 -11 -25 -16 -39 -16c-8 0 -16 1 -24 5c-19 10 -31 31 -31 53v7c2 15 9 28 17 41c17 24 38 44 63 60c48 31 100 53 158 59c5 1 11 1 16 1
c56 0 103 -29 129 -81c16 -31 22 -65 27 -100c7 -46 14 -91 16 -138c1 -15 2 -17 11 -17h9c4 0 8 2 12 2c5 0 9 -2 11 -7c1 -2 1 -3 1 -4c0 -8 -8 -12 -13 -17s-11 -9 -17 -13c-10 -8 -19 -16 -24 -29c-6 -14 -17 -22 -32 -22h-9c-10 0 -19 -4 -28 -9
c-57 -30 -117 -55 -176 -80c-23 -9 -47 -14 -71 -17c-7 -1 -13 -1 -20 -1c-10 0 -21 1 -31 4c-44 11 -74 49 -74 92c0 5 1 11 2 17c7 39 28 70 52 99c50 58 115 87 190 94h9c17 0 33 -4 49 -7c6 -2 11 -5 18 -5c1 0 3 1 5 1zM192 -14c68 10 134 30 199 49c6 2 8 5 8 10
c0 1 0 3 -1 5c-2 9 -5 16 -12 22c-14 11 -29 18 -46 18c-6 0 -13 -1 -20 -3c-20 -7 -38 -15 -55 -28c-23 -17 -45 -37 -64 -58c-4 -4 -9 -7 -9 -13v-2zM486 616c0 -22 -7 -42 -16 -62c-23 -46 -60 -78 -107 -98c-16 -7 -33 -10 -50 -10c-53 0 -108 31 -127 95
c-5 18 -7 35 -7 52c0 36 11 71 29 105c7 12 15 24 25 34c15 18 32 27 51 27c14 0 29 -6 43 -16c4 -3 9 -5 14 -5c1 0 3 0 5 1c8 2 16 2 24 2c60 0 112 -46 116 -109v-16zM296 582c0 -14 4 -26 10 -38c7 -13 14 -18 24 -18c4 0 9 1 15 3c22 8 40 22 53 41c8 11 12 23 12 36
c0 8 -1 15 -4 23c-8 22 -26 36 -46 47c-2 1 -5 2 -6 2c-5 0 -8 -3 -9 -8c-4 -14 -14 -24 -25 -34c-16 -14 -22 -33 -24 -54z" />
    <glyph glyph-name="ae" unicode="&#xe6;" horiz-adv-x="849" 
d="M192 -14c63 11 126 26 187 45l12 4c5 2 8 5 8 10c0 1 0 3 -1 5c-1 9 -5 16 -12 22c-14 12 -29 18 -46 18c-6 0 -13 -1 -20 -3c-20 -6 -38 -15 -55 -28c-23 -17 -45 -37 -64 -58c-1 -1 -2 -1 -3 -2l-4 -4c-1 -2 -2 -4 -2 -7v-2zM551 130c9 0 16 1 22 4c41 21 74 52 97 93
c0 1 0 1 1 2c1 2 2 4 2 6c0 1 0 3 -1 4c-2 2 -4 3 -6 3c-1 0 -3 0 -5 -1h-1c-19 -4 -35 -12 -49 -24c-30 -21 -53 -50 -68 -87h8zM432 -35c-1 0 -2 -1 -3 -2c-54 -27 -109 -52 -165 -75c-3 -2 -7 -4 -11 -5c-23 -9 -47 -14 -71 -17c-7 -1 -13 -1 -20 -1c-10 0 -20 1 -31 4
c-23 6 -41 17 -54 34s-20 36 -20 58c0 5 1 11 2 17c9 38 26 71 52 99c51 57 114 88 190 94h9c15 0 29 -2 42 -6c3 0 5 0 7 -1s4 -1 5 -2c3 -2 8 -3 13 -3c1 0 3 0 5 1c-3 35 -10 70 -21 103c-5 11 -14 17 -28 17h-5c-16 0 -31 -3 -45 -10c-39 -13 -70 -35 -95 -68
c-3 -5 -7 -10 -12 -14c-12 -11 -25 -16 -39 -16c-8 0 -16 2 -24 5c-21 13 -31 31 -31 53v7c3 15 8 28 17 41c17 24 38 44 63 60c48 32 101 52 158 59c5 1 11 1 16 1c56 0 99 -27 129 -81c9 -19 16 -39 20 -59c29 33 65 61 109 83c25 13 51 20 78 20c11 0 23 -1 34 -4
c29 -7 51 -20 66 -41s23 -43 23 -68c0 -8 -1 -16 -2 -24c-6 -24 -15 -46 -28 -67c-31 -47 -70 -85 -117 -115c-12 -8 -24 -14 -37 -19s-26 -8 -40 -8c-11 0 -22 2 -33 6c5 -8 11 -13 19 -16c7 -3 15 -5 24 -6c16 -1 32 -2 48 -2c19 0 37 1 56 3c51 4 99 18 145 41l1 1
c3 1 6 2 9 2c2 0 4 -1 7 -4c1 -2 2 -4 2 -7s-1 -7 -3 -10c-12 -27 -30 -50 -54 -68c-50 -37 -106 -60 -169 -68c-14 -2 -28 -3 -42 -3s-28 1 -42 4c-49 11 -84 37 -107 77z" />
    <glyph glyph-name="ccedilla" unicode="&#xe7;" horiz-adv-x="588" 
d="M125 -97c-43 24 -68 66 -73 127v13c0 38 7 75 22 110c27 67 67 126 120 176c25 25 53 44 85 58c21 9 42 13 62 13c27 0 52 -9 77 -26c22 -15 33 -35 33 -60c0 -4 0 -8 -1 -12c-5 -29 -20 -43 -45 -43c-3 0 -5 0 -8 1c-14 1 -27 5 -38 13c-7 5 -15 8 -22 8
c-8 0 -16 -2 -24 -7c-3 -1 -5 -3 -8 -5c-7 -4 -13 -9 -19 -14c-51 -45 -88 -99 -110 -164c-5 -14 -8 -28 -8 -43c0 -6 1 -12 2 -18c2 -11 5 -18 10 -23s13 -7 24 -8c7 -1 13 -1 20 -1c17 0 34 2 51 6l14 3c80 14 158 37 235 69c12 6 25 12 38 18h1c4 3 8 4 11 4s6 -2 9 -5
c1 -2 2 -4 2 -6c0 -3 -1 -5 -2 -7s-3 -4 -4 -6c-23 -34 -51 -64 -83 -90c-57 -48 -121 -78 -190 -92c22 -28 36 -60 44 -97c1 -7 2 -14 2 -21c0 -32 -14 -59 -41 -81c-15 -12 -32 -20 -50 -25c-26 -7 -52 -10 -78 -10c-24 0 -48 3 -72 9c-23 6 -43 18 -60 35
c-9 9 -15 20 -18 33c-1 3 -1 6 -1 9c0 19 11 30 32 33h52c6 1 12 1 18 1c9 0 17 0 26 -1s18 -2 27 -2c7 0 14 1 21 2c16 1 24 5 24 12c0 4 -4 11 -11 20c-20 26 -43 49 -70 69c-2 2 -4 3 -6 4c-3 2 -6 4 -8 6c-5 5 -9 10 -12 15z" />
    <glyph glyph-name="egrave" unicode="&#xe8;" horiz-adv-x="497" 
d="M184 21c10 -17 27 -20 43 -22c16 -1 32 -2 48 -2c19 0 37 1 56 3c50 7 100 15 145 41c3 1 6 3 10 3c2 0 5 -1 7 -4c2 -2 2 -4 2 -7s-1 -7 -3 -10c-12 -27 -30 -50 -54 -68c-49 -40 -107 -58 -169 -68c-14 -2 -28 -3 -42 -3s-28 1 -42 4c-58 13 -97 47 -118 102
c-9 24 -13 48 -13 72c0 14 1 28 4 42c24 107 82 188 182 237c25 12 51 20 79 20c11 0 22 -1 33 -4c57 -12 90 -60 90 -109c0 -8 -1 -16 -3 -24c-6 -24 -15 -46 -28 -67c-31 -47 -70 -85 -117 -115c-24 -15 -49 -27 -76 -27c-11 0 -22 2 -34 6zM197 130c9 0 16 1 22 4
c42 21 74 52 97 93c1 3 3 6 3 8s0 3 -1 4c-1 3 -3 3 -6 3c-2 0 -4 0 -6 -1c-19 -3 -34 -13 -49 -24c-30 -22 -52 -50 -68 -87h8zM159 643c0 26 19 43 42 43c4 0 8 0 12 -1c14 -4 25 -12 35 -23c9 -11 18 -22 28 -32c31 -36 62 -71 89 -110c13 -17 24 -35 30 -55
c1 -3 2 -7 2 -11c0 -3 -1 -6 -5 -9c-1 -1 -3 -1 -4 -1c-4 0 -8 4 -12 7c-29 20 -57 39 -85 59c-40 29 -76 61 -112 94c-11 10 -20 23 -20 37v2z" />
    <glyph glyph-name="eacute" unicode="&#xe9;" horiz-adv-x="497" 
d="M184 21c10 -17 27 -20 43 -22c16 -1 32 -2 48 -2c19 0 37 1 56 3c50 7 100 15 145 41c3 1 6 3 10 3c2 0 5 -1 7 -4c2 -2 2 -4 2 -7s-1 -7 -3 -10c-12 -27 -30 -50 -54 -68c-49 -40 -107 -58 -169 -68c-14 -2 -28 -3 -42 -3s-28 1 -42 4c-58 13 -97 47 -118 102
c-9 24 -13 48 -13 72c0 14 1 28 4 42c24 107 82 188 182 237c25 12 51 20 79 20c11 0 22 -1 33 -4c57 -12 90 -60 90 -109c0 -8 -1 -16 -3 -24c-6 -24 -15 -46 -28 -67c-31 -47 -70 -85 -117 -115c-24 -15 -49 -27 -76 -27c-11 0 -22 2 -34 6zM197 130c9 0 16 1 22 4
c42 21 74 52 97 93c1 3 3 6 3 8s0 3 -1 4c-1 3 -3 3 -6 3c-2 0 -4 0 -6 -1c-19 -3 -34 -13 -49 -24c-30 -22 -52 -50 -68 -87h8zM477 640c0 -13 -8 -26 -19 -36c-36 -33 -73 -65 -113 -94c-28 -20 -56 -39 -84 -59c-4 -3 -8 -7 -13 -7c-1 0 -3 0 -4 1c-4 3 -5 6 -5 9
c0 4 1 8 2 11c6 20 18 38 30 55c27 39 58 74 90 110c9 10 18 21 27 32c10 11 21 19 35 23c4 1 8 1 12 1c23 0 42 -17 42 -43v-3z" />
    <glyph glyph-name="ecircumflex" unicode="&#xea;" horiz-adv-x="497" 
d="M184 21c10 -17 27 -20 43 -22c16 -1 32 -2 48 -2c19 0 37 1 56 3c50 7 100 15 145 41c3 1 6 3 10 3c2 0 5 -1 7 -4c2 -2 2 -4 2 -7s-1 -7 -3 -10c-12 -27 -30 -50 -54 -68c-49 -40 -107 -58 -169 -68c-14 -2 -28 -3 -42 -3s-28 1 -42 4c-58 13 -97 47 -118 102
c-9 24 -13 48 -13 72c0 14 1 28 4 42c24 107 82 188 182 237c25 12 51 20 79 20c11 0 22 -1 33 -4c57 -12 90 -60 90 -109c0 -8 -1 -16 -3 -24c-6 -24 -15 -46 -28 -67c-31 -47 -70 -85 -117 -115c-24 -15 -49 -27 -76 -27c-11 0 -22 2 -34 6zM197 130c9 0 16 1 22 4
c42 21 74 52 97 93c1 3 3 6 3 8s0 3 -1 4c-1 3 -3 3 -6 3c-2 0 -4 0 -6 -1c-19 -3 -34 -13 -49 -24c-30 -22 -52 -50 -68 -87h8zM459 447c-17 1 -32 7 -46 15c-25 14 -44 34 -60 56c-16 21 -31 44 -47 65c-5 7 -8 11 -12 11c-3 0 -6 -4 -12 -11c-14 -22 -25 -46 -36 -69
c-5 -9 -10 -20 -17 -28c-11 -14 -27 -21 -42 -21c-10 0 -20 3 -29 10c-14 10 -21 24 -21 39c0 12 4 23 12 34c13 16 27 30 42 45c20 21 39 42 61 62c21 19 42 28 63 28c23 0 46 -11 67 -35c11 -13 20 -27 29 -42c18 -31 36 -61 54 -92c8 -12 16 -25 27 -35c5 -5 8 -9 8 -12
c0 -5 -4 -9 -11 -13c-9 -5 -19 -7 -30 -7z" />
    <glyph glyph-name="edieresis" unicode="&#xeb;" horiz-adv-x="497" 
d="M184 21c10 -17 27 -20 43 -22c16 -1 32 -2 48 -2c19 0 37 1 56 3c50 7 100 15 145 41c3 1 6 3 10 3c2 0 5 -1 7 -4c2 -2 2 -4 2 -7s-1 -7 -3 -10c-12 -27 -30 -50 -54 -68c-49 -40 -107 -58 -169 -68c-14 -2 -28 -3 -42 -3s-28 1 -42 4c-58 13 -97 47 -118 102
c-9 24 -13 48 -13 72c0 14 1 28 4 42c24 107 82 188 182 237c25 12 51 20 79 20c11 0 22 -1 33 -4c57 -12 90 -60 90 -109c0 -8 -1 -16 -3 -24c-6 -24 -15 -46 -28 -67c-31 -47 -70 -85 -117 -115c-24 -15 -49 -27 -76 -27c-11 0 -22 2 -34 6zM197 130c9 0 16 1 22 4
c42 21 74 52 97 93c1 3 3 6 3 8s0 3 -1 4c-1 3 -3 3 -6 3c-2 0 -4 0 -6 -1c-19 -3 -34 -13 -49 -24c-30 -22 -52 -50 -68 -87h8zM283 570c0 -35 -10 -63 -35 -85c-12 -11 -26 -17 -40 -17c-15 0 -31 7 -44 21c-7 7 -12 16 -15 26c-6 15 -9 30 -9 45s3 30 8 45
c10 29 32 47 59 47c12 0 24 -4 37 -12c27 -17 39 -39 39 -67v-3zM495 570c0 -35 -10 -63 -35 -85c-12 -11 -26 -17 -40 -17c-15 0 -31 7 -44 21c-7 7 -12 16 -15 26c-6 15 -9 30 -9 45s3 30 8 45c10 29 32 47 59 47c12 0 24 -4 37 -12c27 -17 39 -39 39 -67v-3z" />
    <glyph glyph-name="igrave" unicode="&#xec;" horiz-adv-x="193" 
d="M64 121c2 49 3 91 5 132c1 9 2 17 5 26c6 23 26 39 49 40h5c23 0 42 -13 52 -34c5 -11 7 -23 7 -35c0 -6 0 -12 -1 -18c-2 -32 -4 -63 -4 -95c0 -46 3 -92 9 -138c1 -9 2 -18 2 -27c0 -7 -1 -13 -1 -20c-2 -24 -16 -37 -37 -37h-7c-15 1 -27 8 -38 18
c-18 18 -28 42 -34 66c-10 43 -10 86 -12 122zM-32 601c0 26 19 43 42 43c4 0 8 0 12 -1c14 -4 25 -12 35 -23c9 -11 18 -22 28 -32c31 -36 62 -71 89 -110c13 -17 24 -35 30 -55c1 -3 2 -7 2 -11c0 -3 -1 -6 -5 -9c-1 -1 -3 -1 -4 -1c-4 0 -8 4 -12 7c-29 20 -57 39 -85 59
c-40 29 -76 61 -112 94c-11 10 -20 23 -20 37v2z" />
    <glyph glyph-name="iacute" unicode="&#xed;" horiz-adv-x="193" 
d="M64 121c2 49 3 91 5 132c1 9 2 17 5 26c6 23 26 39 49 40h5c23 0 42 -13 52 -34c5 -11 7 -23 7 -35c0 -6 0 -12 -1 -18c-2 -32 -4 -63 -4 -95c0 -46 3 -92 9 -138c1 -9 2 -18 2 -27c0 -7 -1 -13 -1 -20c-2 -24 -16 -37 -37 -37h-7c-15 1 -27 8 -38 18
c-18 18 -28 42 -34 66c-10 43 -10 86 -12 122zM286 598c0 -13 -8 -26 -19 -36c-36 -33 -73 -65 -113 -94c-28 -20 -56 -39 -84 -59c-4 -3 -8 -7 -13 -7c-1 0 -3 0 -4 1c-4 3 -5 6 -5 9c0 4 1 8 2 11c6 20 18 38 30 55c27 39 58 74 90 110c9 10 18 21 27 32
c10 11 21 19 35 23c4 1 8 1 12 1c23 0 42 -17 42 -43v-3z" />
    <glyph glyph-name="icircumflex" unicode="&#xee;" horiz-adv-x="193" 
d="M64 121c2 49 3 91 5 132c1 9 2 17 5 26c6 23 26 39 49 40h5c23 0 42 -13 52 -34c5 -11 7 -23 7 -35c0 -6 0 -12 -1 -18c-2 -32 -4 -63 -4 -95c0 -46 3 -92 9 -138c1 -9 2 -18 2 -27c0 -7 -1 -13 -1 -20c-2 -24 -16 -37 -37 -37h-7c-15 1 -27 8 -38 18
c-18 18 -28 42 -34 66c-10 43 -10 86 -12 122zM268 405c-17 1 -32 7 -46 15c-25 14 -44 34 -60 56c-16 21 -31 44 -47 65c-5 7 -8 11 -12 11c-3 0 -6 -4 -12 -11c-14 -22 -25 -46 -36 -69c-5 -9 -10 -20 -17 -28c-11 -14 -27 -21 -42 -21c-10 0 -20 3 -29 10
c-14 10 -21 24 -21 39c0 12 4 23 12 34c13 16 27 30 42 45c20 21 39 42 61 62c21 19 42 28 63 28c23 0 46 -11 67 -35c11 -13 20 -27 29 -42c18 -31 36 -61 54 -92c8 -12 16 -25 27 -35c5 -5 8 -9 8 -12c0 -5 -4 -9 -11 -13c-9 -5 -19 -7 -30 -7z" />
    <glyph glyph-name="idieresis" unicode="&#xef;" horiz-adv-x="193" 
d="M64 121c2 49 3 91 5 132c1 9 2 17 5 26c6 23 26 39 49 40h5c23 0 42 -13 52 -34c5 -11 7 -23 7 -35c0 -6 0 -12 -1 -18c-2 -32 -4 -63 -4 -95c0 -46 3 -92 9 -138c1 -9 2 -18 2 -27c0 -7 -1 -13 -1 -20c-2 -24 -16 -37 -37 -37h-7c-15 1 -27 8 -38 18
c-18 18 -28 42 -34 66c-10 43 -10 86 -12 122zM92 528c0 -35 -10 -63 -35 -85c-12 -11 -26 -17 -40 -17c-15 0 -31 7 -44 21c-7 7 -12 16 -15 26c-6 15 -9 30 -9 45s3 30 8 45c10 29 32 47 59 47c12 0 24 -4 37 -12c27 -17 39 -39 39 -67v-3zM304 528c0 -35 -10 -63 -35 -85
c-12 -11 -26 -17 -40 -17c-15 0 -31 7 -44 21c-7 7 -12 16 -15 26c-6 15 -9 30 -9 45s3 30 8 45c10 29 32 47 59 47c12 0 24 -4 37 -12c27 -17 39 -39 39 -67v-3z" />
    <glyph glyph-name="eth" unicode="&#xf0;" horiz-adv-x="561" 
d="M430 57c-1 10 -2 19 -3 28c0 4 -1 8 -2 11s-4 6 -8 7c-24 12 -38 31 -43 58c-11 33 -28 49 -53 49c-11 0 -24 -4 -38 -12c-5 -2 -9 -4 -12 -7c-55 -43 -88 -100 -101 -169v-6c0 -5 0 -10 1 -15c3 -13 10 -19 23 -20c5 0 11 0 16 1c71 11 139 28 206 52c9 4 14 10 14 18v5
zM550 452c-3 -80 -5 -160 -5 -241c0 -41 0 -81 1 -121v-122c0 -26 1 -52 3 -78c1 -8 2 -16 2 -25c0 -15 -2 -29 -6 -43c-5 -19 -14 -29 -28 -29c-7 0 -14 2 -21 6c-21 12 -35 30 -42 53c-9 29 -14 60 -17 92c0 4 0 8 -1 12l-1 9c-1 14 -3 30 -5 48c-19 -22 -38 -40 -57 -55
c-59 -43 -124 -69 -195 -78c-5 -1 -11 -1 -16 -1c-44 0 -76 22 -97 67c-8 21 -12 42 -12 63c0 9 1 19 2 28c17 104 67 187 151 250c34 27 72 40 113 40c11 0 21 -1 32 -3c17 -3 34 -9 51 -18c3 -2 7 -4 12 -7c3 -1 7 -3 10 -5c3 18 5 35 6 52v10c1 22 1 44 1 66
c0 9 0 19 1 28c-20 -2 -39 -3 -58 -6c-9 -1 -18 -1 -27 -1h-20c-25 4 -37 17 -37 38v6c2 15 8 27 18 38c19 17 41 29 66 34c22 4 42 7 62 9l2 28c1 15 2 31 3 46c1 21 9 38 25 51c11 8 23 12 35 12c23 0 40 -12 53 -37c4 -9 6 -17 6 -25c0 -3 0 -6 -1 -9
c-2 -22 -4 -43 -5 -65h1c25 -1 50 -2 73 -3c9 -1 17 -2 26 -5c25 -8 38 -24 40 -49l1 -5c0 -23 -12 -40 -35 -52c-11 -5 -23 -7 -35 -7c-6 0 -12 0 -18 1c-19 2 -38 3 -57 3z" />
    <glyph glyph-name="ntilde" unicode="&#xf1;" horiz-adv-x="512" 
d="M170 143c15 26 29 52 45 78c35 56 78 104 130 145c17 13 35 20 53 20c31 0 60 -21 74 -58c11 -31 14 -63 14 -95v-13c0 -68 7 -134 21 -201c2 -10 4 -19 4 -29c0 -8 -1 -16 -3 -24c-5 -23 -21 -36 -41 -36c-5 0 -12 1 -18 3c-19 7 -33 21 -43 39c-14 26 -19 55 -24 83
c-10 60 -14 121 -14 181c0 11 0 23 -2 33c-1 9 -4 13 -9 13c-3 0 -6 -1 -10 -4c-13 -8 -24 -18 -35 -29c-53 -55 -89 -121 -112 -194c-11 -35 -22 -69 -22 -106c0 -5 -1 -10 -2 -14c-5 -21 -16 -36 -37 -42c-5 -1 -9 -2 -14 -2c-17 0 -31 8 -43 22c-12 13 -17 29 -20 45
c-6 40 -9 80 -10 120c-1 17 -1 34 -1 51c0 34 1 68 1 102c0 14 1 27 4 40c7 27 30 47 56 47h2c25 0 48 -19 54 -47c2 -9 2 -19 2 -28c0 -13 -1 -25 -2 -38c-1 -7 -1 -14 -1 -22c0 -13 1 -26 3 -40zM347 467c-43 5 -81 24 -104 66c-7 13 -13 27 -19 41c-3 5 -5 7 -8 7
s-6 -2 -9 -5c-12 -14 -23 -30 -33 -46c-9 -17 -22 -27 -41 -27h-7c-22 4 -36 18 -42 39c-3 9 -5 18 -5 27c0 17 6 33 15 48c22 38 53 67 92 86c15 7 29 10 42 10c25 0 48 -11 67 -33c11 -11 19 -23 25 -37c13 -27 25 -54 37 -82c6 -14 10 -19 22 -19c2 0 5 1 8 1
c20 3 36 12 51 24l30 27c2 2 4 3 6 3s3 -1 5 -2c3 -2 3 -5 3 -8c0 -1 0 -2 -1 -3c-6 -58 -71 -117 -132 -117h-2z" />
    <glyph glyph-name="ograve" unicode="&#xf2;" horiz-adv-x="444" 
d="M371 180c0 51 -26 87 -63 119c-6 5 -12 7 -19 7c-5 0 -10 -1 -16 -3c-3 -1 -6 -3 -9 -3c-2 0 -4 1 -6 4c-1 1 -1 3 -1 4c0 4 3 7 5 11c11 15 25 23 44 24h5c8 0 17 -2 25 -5c55 -19 102 -89 102 -148v-10c-8 -74 -32 -142 -81 -199c-32 -37 -73 -62 -121 -74
c-10 -2 -19 -3 -29 -3c-31 0 -60 12 -85 33c-38 31 -56 73 -62 121c-2 15 -3 29 -3 44c0 65 18 127 45 188c8 16 19 29 33 39c13 9 27 14 42 14c21 0 41 -10 55 -28c8 -11 12 -24 12 -35c0 -18 -9 -34 -26 -45c-15 -9 -22 -21 -27 -37c-9 -32 -17 -64 -17 -98v-6
c0 -4 0 -8 1 -12c3 -43 25 -67 59 -67c10 0 22 2 34 6c52 18 82 58 98 110c3 12 5 24 5 36v13zM89 625c0 26 19 43 42 43c4 0 8 0 12 -1c14 -4 25 -12 35 -23c9 -11 18 -22 28 -32c31 -36 62 -71 89 -110c13 -17 24 -35 30 -55c1 -3 2 -7 2 -11c0 -3 -1 -6 -5 -9
c-1 -1 -3 -1 -4 -1c-4 0 -8 4 -12 7c-29 20 -57 39 -85 59c-40 29 -76 61 -112 94c-11 10 -20 23 -20 37v2z" />
    <glyph glyph-name="oacute" unicode="&#xf3;" horiz-adv-x="444" 
d="M371 180c0 51 -26 87 -63 119c-6 5 -12 7 -19 7c-5 0 -10 -1 -16 -3c-3 -1 -6 -3 -9 -3c-2 0 -4 1 -6 4c-1 1 -1 3 -1 4c0 4 3 7 5 11c11 15 25 23 44 24h5c8 0 17 -2 25 -5c55 -19 102 -89 102 -148v-10c-8 -74 -32 -142 -81 -199c-32 -37 -73 -62 -121 -74
c-10 -2 -19 -3 -29 -3c-31 0 -60 12 -85 33c-38 31 -56 73 -62 121c-2 15 -3 29 -3 44c0 65 18 127 45 188c8 16 19 29 33 39c13 9 27 14 42 14c21 0 41 -10 55 -28c8 -11 12 -24 12 -35c0 -18 -9 -34 -26 -45c-15 -9 -22 -21 -27 -37c-9 -32 -17 -64 -17 -98v-6
c0 -4 0 -8 1 -12c3 -43 25 -67 59 -67c10 0 22 2 34 6c52 18 82 58 98 110c3 12 5 24 5 36v13zM407 622c0 -13 -8 -26 -19 -36c-36 -33 -73 -65 -113 -94c-28 -20 -56 -39 -84 -59c-4 -3 -8 -7 -13 -7c-1 0 -3 0 -4 1c-4 3 -5 6 -5 9c0 4 1 8 2 11c6 20 18 38 30 55
c27 39 58 74 90 110c9 10 18 21 27 32c10 11 21 19 35 23c4 1 8 1 12 1c23 0 42 -17 42 -43v-3z" />
    <glyph glyph-name="ocircumflex" unicode="&#xf4;" horiz-adv-x="444" 
d="M371 180c0 51 -26 87 -63 119c-6 5 -12 7 -19 7c-5 0 -10 -1 -16 -3c-3 -1 -6 -3 -9 -3c-2 0 -4 1 -6 4c-1 1 -1 3 -1 4c0 4 3 7 5 11c11 15 25 23 44 24h5c8 0 17 -2 25 -5c55 -19 102 -89 102 -148v-10c-8 -74 -32 -142 -81 -199c-32 -37 -73 -62 -121 -74
c-10 -2 -19 -3 -29 -3c-31 0 -60 12 -85 33c-38 31 -56 73 -62 121c-2 15 -3 29 -3 44c0 65 18 127 45 188c8 16 19 29 33 39c13 9 27 14 42 14c21 0 41 -10 55 -28c8 -11 12 -24 12 -35c0 -18 -9 -34 -26 -45c-15 -9 -22 -21 -27 -37c-9 -32 -17 -64 -17 -98v-6
c0 -4 0 -8 1 -12c3 -43 25 -67 59 -67c10 0 22 2 34 6c52 18 82 58 98 110c3 12 5 24 5 36v13zM389 429c-17 1 -32 7 -46 15c-25 14 -44 34 -60 56c-16 21 -31 44 -47 65c-5 7 -8 11 -12 11c-3 0 -6 -4 -12 -11c-14 -22 -25 -46 -36 -69c-5 -9 -10 -20 -17 -28
c-11 -14 -27 -21 -42 -21c-10 0 -20 3 -29 10c-14 10 -21 24 -21 39c0 12 4 23 12 34c13 16 27 30 42 45c20 21 39 42 61 62c21 19 42 28 63 28c23 0 46 -11 67 -35c11 -13 20 -27 29 -42c18 -31 36 -61 54 -92c8 -12 16 -25 27 -35c5 -5 8 -9 8 -12c0 -5 -4 -9 -11 -13
c-9 -5 -19 -7 -30 -7z" />
    <glyph glyph-name="otilde" unicode="&#xf5;" horiz-adv-x="444" 
d="M371 180c0 51 -26 87 -63 119c-6 5 -12 7 -19 7c-5 0 -10 -1 -16 -3c-3 -1 -6 -3 -9 -3c-2 0 -4 1 -6 4c-1 1 -1 3 -1 4c0 4 3 7 5 11c11 15 25 23 44 24h5c8 0 17 -2 25 -5c55 -19 102 -89 102 -148v-10c-8 -74 -32 -142 -81 -199c-32 -37 -73 -62 -121 -74
c-10 -2 -19 -3 -29 -3c-31 0 -60 12 -85 33c-38 31 -56 73 -62 121c-2 15 -3 29 -3 44c0 65 18 127 45 188c8 16 19 29 33 39c13 9 27 14 42 14c21 0 41 -10 55 -28c8 -11 12 -24 12 -35c0 -18 -9 -34 -26 -45c-15 -9 -22 -21 -27 -37c-9 -32 -17 -64 -17 -98v-6
c0 -4 0 -8 1 -12c3 -43 25 -67 59 -67c10 0 22 2 34 6c52 18 82 58 98 110c3 12 5 24 5 36v13zM314 424c-43 5 -81 24 -104 66c-7 13 -13 27 -19 41c-3 5 -5 7 -8 7s-6 -2 -9 -5c-12 -14 -23 -30 -33 -46c-9 -17 -22 -27 -41 -27h-7c-22 4 -36 18 -42 39c-3 9 -5 18 -5 27
c0 17 6 33 15 48c22 38 53 67 92 86c15 7 29 10 42 10c25 0 48 -11 67 -33c11 -11 19 -23 25 -37c13 -27 25 -54 37 -82c6 -14 10 -19 22 -19c2 0 5 1 8 1c20 3 36 12 51 24l30 27c2 2 4 3 6 3s3 -1 5 -2c3 -2 3 -5 3 -8c0 -1 0 -2 -1 -3c-6 -58 -71 -117 -132 -117h-2z" />
    <glyph glyph-name="odieresis" unicode="&#xf6;" horiz-adv-x="444" 
d="M371 180c0 51 -26 87 -63 119c-6 5 -12 7 -19 7c-5 0 -10 -1 -16 -3c-3 -1 -6 -3 -9 -3c-2 0 -4 1 -6 4c-1 1 -1 3 -1 4c0 4 3 7 5 11c11 15 25 23 44 24h5c8 0 17 -2 25 -5c55 -19 102 -89 102 -148v-10c-8 -74 -32 -142 -81 -199c-32 -37 -73 -62 -121 -74
c-10 -2 -19 -3 -29 -3c-31 0 -60 12 -85 33c-38 31 -56 73 -62 121c-2 15 -3 29 -3 44c0 65 18 127 45 188c8 16 19 29 33 39c13 9 27 14 42 14c21 0 41 -10 55 -28c8 -11 12 -24 12 -35c0 -18 -9 -34 -26 -45c-15 -9 -22 -21 -27 -37c-9 -32 -17 -64 -17 -98v-6
c0 -4 0 -8 1 -12c3 -43 25 -67 59 -67c10 0 22 2 34 6c52 18 82 58 98 110c3 12 5 24 5 36v13zM213 552c0 -35 -10 -63 -35 -85c-12 -11 -26 -17 -40 -17c-15 0 -31 7 -44 21c-7 7 -12 16 -15 26c-6 15 -9 30 -9 45s3 30 8 45c10 29 32 47 59 47c12 0 24 -4 37 -12
c27 -17 39 -39 39 -67v-3zM425 552c0 -35 -10 -63 -35 -85c-12 -11 -26 -17 -40 -17c-15 0 -31 7 -44 21c-7 7 -12 16 -15 26c-6 15 -9 30 -9 45s3 30 8 45c10 29 32 47 59 47c12 0 24 -4 37 -12c27 -17 39 -39 39 -67v-3z" />
    <glyph glyph-name="divide" unicode="&#xf7;" horiz-adv-x="654" 
d="M394 319c61 0 112 0 162 -10c24 -5 45 -14 65 -28c13 -10 22 -22 27 -38c1 -4 2 -8 2 -11c0 -16 -10 -27 -29 -30c-20 -3 -41 -4 -61 -4c-25 0 -50 1 -75 3c-27 2 -54 2 -80 2c-27 0 -53 0 -80 -2c-44 -3 -88 -5 -132 -12c-16 -2 -33 -5 -49 -8c-7 -1 -15 -2 -23 -2
c-5 0 -9 0 -14 1c-27 5 -44 28 -44 52c0 11 4 23 12 33c12 16 29 25 49 30c41 10 82 14 124 17c44 3 87 7 125 7h21zM411 54c0 -28 -25 -53 -54 -53c-30 0 -55 25 -55 54s23 53 52 54c29 0 56 -25 56 -53zM411 443c0 -28 -25 -53 -54 -53c-30 0 -55 25 -55 54s23 53 52 54
c29 0 56 -25 56 -53z" />
    <glyph glyph-name="oslash" unicode="&#xf8;" horiz-adv-x="444" 
d="M396 294c4 -4 8 -10 12 -15c20 -29 30 -59 30 -89v-10c-7 -75 -34 -141 -81 -199c-32 -37 -72 -62 -121 -74c-4 -1 -8 -1 -11 -2l-2 -4c-10 -23 -21 -46 -32 -69c-8 -18 -16 -36 -24 -53c-1 -3 -3 -5 -4 -7c-12 -21 -20 -44 -25 -68c-2 -7 -5 -11 -10 -11c-3 0 -6 1 -9 4
c-8 6 -13 14 -15 23c-3 13 -5 27 -5 40v14c1 55 10 108 26 161c-1 1 -2 1 -3 2c-37 32 -57 72 -62 121c-2 15 -3 29 -3 44c0 33 4 65 12 96s19 62 33 92c8 16 19 29 33 39c13 9 27 14 42 14c21 0 39 -9 55 -28c8 -12 12 -24 12 -35c0 -18 -9 -33 -26 -45
c-14 -9 -23 -21 -27 -37c-11 -31 -17 -64 -17 -98v-6c0 -3 0 -7 1 -10c14 37 29 73 46 109c16 36 33 73 51 110c-3 -2 -5 -3 -8 -3c-2 0 -4 1 -6 4c-1 1 -1 3 -1 4c0 3 1 6 4 9c0 1 0 1 1 2c7 10 16 17 27 21c15 31 29 63 44 95c7 15 13 31 19 47c3 7 5 14 8 21l2 4
c2 6 5 12 8 18c13 19 29 29 48 29c6 0 12 -1 18 -3c26 -11 39 -30 39 -55v-8c-1 -12 -5 -24 -10 -36c-14 -40 -30 -78 -49 -115c-7 -14 -14 -28 -20 -43zM275 24c47 20 77 56 91 107c3 12 5 24 5 36v13c0 16 -2 32 -7 45c-31 -66 -60 -134 -89 -201z" />
    <glyph glyph-name="ugrave" unicode="&#xf9;" horiz-adv-x="511" 
d="M52 199c0 35 0 62 7 89c8 30 32 48 58 48c12 0 23 -3 34 -11c17 -11 27 -32 27 -53c0 -5 0 -11 -2 -16c-6 -20 -9 -39 -9 -58c0 -34 8 -68 20 -101c7 -23 21 -42 39 -58c14 -11 28 -17 44 -17c5 0 9 0 13 1c26 4 49 15 69 34c40 40 58 88 58 142c0 8 0 16 -1 24
c-3 32 -9 63 -19 94c-4 13 -7 25 -7 38v4c2 19 14 30 30 30c4 0 8 -1 12 -2c17 -5 29 -15 39 -30c25 -38 40 -79 40 -123c0 -12 -2 -25 -4 -38c-14 -77 -45 -146 -89 -209c-11 -16 -26 -30 -41 -43c-31 -27 -67 -39 -102 -39c-45 0 -90 19 -123 50c-44 41 -69 91 -83 148
c-7 28 -11 56 -11 81c0 5 1 10 1 15zM119 671c0 26 19 43 42 43c4 0 8 0 12 -1c14 -4 25 -12 35 -23c9 -11 18 -22 28 -32c31 -36 62 -71 89 -110c13 -17 24 -35 30 -55c1 -3 2 -7 2 -11c0 -3 -1 -6 -5 -9c-1 -1 -3 -1 -4 -1c-4 0 -8 4 -12 7c-29 20 -57 39 -85 59
c-40 29 -76 61 -112 94c-11 10 -20 23 -20 37v2z" />
    <glyph glyph-name="uacute" unicode="&#xfa;" horiz-adv-x="511" 
d="M52 199c0 35 0 62 7 89c8 30 32 48 58 48c12 0 23 -3 34 -11c17 -11 27 -32 27 -53c0 -5 0 -11 -2 -16c-6 -20 -9 -39 -9 -58c0 -34 8 -68 20 -101c7 -23 21 -42 39 -58c14 -11 28 -17 44 -17c5 0 9 0 13 1c26 4 49 15 69 34c40 40 58 88 58 142c0 8 0 16 -1 24
c-3 32 -9 63 -19 94c-4 13 -7 25 -7 38v4c2 19 14 30 30 30c4 0 8 -1 12 -2c17 -5 29 -15 39 -30c25 -38 40 -79 40 -123c0 -12 -2 -25 -4 -38c-14 -77 -45 -146 -89 -209c-11 -16 -26 -30 -41 -43c-31 -27 -67 -39 -102 -39c-45 0 -90 19 -123 50c-44 41 -69 91 -83 148
c-7 28 -11 56 -11 81c0 5 1 10 1 15zM437 668c0 -13 -8 -26 -19 -36c-36 -33 -73 -65 -113 -94c-28 -20 -56 -39 -84 -59c-4 -3 -8 -7 -13 -7c-1 0 -3 0 -4 1c-4 3 -5 6 -5 9c0 4 1 8 2 11c6 20 18 38 30 55c27 39 58 74 90 110c9 10 18 21 27 32c10 11 21 19 35 23
c4 1 8 1 12 1c23 0 42 -17 42 -43v-3z" />
    <glyph glyph-name="ucircumflex" unicode="&#xfb;" horiz-adv-x="511" 
d="M52 199c0 35 0 62 7 89c8 30 32 48 58 48c12 0 23 -3 34 -11c17 -11 27 -32 27 -53c0 -5 0 -11 -2 -16c-6 -20 -9 -39 -9 -58c0 -34 8 -68 20 -101c7 -23 21 -42 39 -58c14 -11 28 -17 44 -17c5 0 9 0 13 1c26 4 49 15 69 34c40 40 58 88 58 142c0 8 0 16 -1 24
c-3 32 -9 63 -19 94c-4 13 -7 25 -7 38v4c2 19 14 30 30 30c4 0 8 -1 12 -2c17 -5 29 -15 39 -30c25 -38 40 -79 40 -123c0 -12 -2 -25 -4 -38c-14 -77 -45 -146 -89 -209c-11 -16 -26 -30 -41 -43c-31 -27 -67 -39 -102 -39c-45 0 -90 19 -123 50c-44 41 -69 91 -83 148
c-7 28 -11 56 -11 81c0 5 1 10 1 15zM419 475c-17 1 -32 7 -46 15c-25 14 -44 34 -60 56c-16 21 -31 44 -47 65c-5 7 -8 11 -12 11c-3 0 -6 -4 -12 -11c-14 -22 -25 -46 -36 -69c-5 -9 -10 -20 -17 -28c-11 -14 -27 -21 -42 -21c-10 0 -20 3 -29 10c-14 10 -21 24 -21 39
c0 12 4 23 12 34c13 16 27 30 42 45c20 21 39 42 61 62c21 19 42 28 63 28c23 0 46 -11 67 -35c11 -13 20 -27 29 -42c18 -31 36 -61 54 -92c8 -12 16 -25 27 -35c5 -5 8 -9 8 -12c0 -5 -4 -9 -11 -13c-9 -5 -19 -7 -30 -7z" />
    <glyph glyph-name="udieresis" unicode="&#xfc;" horiz-adv-x="511" 
d="M52 199c0 35 0 62 7 89c8 30 32 48 58 48c12 0 23 -3 34 -11c17 -11 27 -32 27 -53c0 -5 0 -11 -2 -16c-6 -20 -9 -39 -9 -58c0 -34 8 -68 20 -101c7 -23 21 -42 39 -58c14 -11 28 -17 44 -17c5 0 9 0 13 1c26 4 49 15 69 34c40 40 58 88 58 142c0 8 0 16 -1 24
c-3 32 -9 63 -19 94c-4 13 -7 25 -7 38v4c2 19 14 30 30 30c4 0 8 -1 12 -2c17 -5 29 -15 39 -30c25 -38 40 -79 40 -123c0 -12 -2 -25 -4 -38c-14 -77 -45 -146 -89 -209c-11 -16 -26 -30 -41 -43c-31 -27 -67 -39 -102 -39c-45 0 -90 19 -123 50c-44 41 -69 91 -83 148
c-7 28 -11 56 -11 81c0 5 1 10 1 15zM243 558c0 -35 -10 -63 -35 -85c-12 -11 -26 -17 -40 -17c-15 0 -31 7 -44 21c-7 7 -12 16 -15 26c-6 15 -9 30 -9 45s3 30 8 45c10 29 32 47 59 47c12 0 24 -4 37 -12c27 -17 39 -39 39 -67v-3zM455 558c0 -35 -10 -63 -35 -85
c-12 -11 -26 -17 -40 -17c-15 0 -31 7 -44 21c-7 7 -12 16 -15 26c-6 15 -9 30 -9 45s3 30 8 45c10 29 32 47 59 47c12 0 24 -4 37 -12c27 -17 39 -39 39 -67v-3z" />
    <glyph glyph-name="yacute" unicode="&#xfd;" horiz-adv-x="531" 
d="M391 232c-33 -71 -78 -133 -120 -197c-10 -16 -22 -32 -35 -47c-21 -26 -48 -39 -74 -39c-32 0 -63 19 -82 54c-20 38 -25 81 -27 123c-1 16 -2 32 -2 48c0 29 2 58 6 87c2 11 4 23 9 34c10 21 30 35 52 35c3 0 6 -1 9 -1c26 -3 46 -25 49 -52v-9c0 -7 -1 -15 -2 -22
c-5 -24 -7 -48 -7 -72c0 -27 3 -54 6 -81c0 -3 1 -6 2 -9c2 -7 4 -10 7 -10c2 0 5 1 9 4c18 12 34 28 48 45c45 51 84 106 123 162c6 10 11 20 13 32c4 31 24 51 51 53h6c23 0 45 -16 55 -41c8 -21 13 -43 17 -66c14 -72 23 -144 23 -216c0 -16 0 -31 -1 -47
c-6 -102 -39 -195 -98 -279c-28 -38 -63 -70 -103 -96c-21 -14 -44 -25 -70 -27h-8c-34 0 -59 23 -59 55c0 3 0 7 1 10c1 9 5 14 10 14c3 0 6 -2 10 -5c6 -4 11 -6 15 -6c6 0 11 3 16 8c15 14 31 28 43 44c40 49 75 101 99 160c21 55 30 110 30 167c0 14 -1 28 -2 42
c-3 46 -8 91 -17 136c-1 3 -2 6 -2 9zM448 619c0 -13 -8 -26 -19 -36c-36 -33 -73 -65 -113 -94c-28 -20 -56 -39 -84 -59c-4 -3 -8 -7 -13 -7c-1 0 -3 0 -4 1c-4 3 -5 6 -5 9c0 4 1 8 2 11c6 20 18 38 30 55c27 39 58 74 90 110c9 10 18 21 27 32c10 11 21 19 35 23
c4 1 8 1 12 1c23 0 42 -17 42 -43v-3z" />
    <glyph glyph-name="thorn" unicode="&#xfe;" horiz-adv-x="608" 
d="M188 235c9 3 12 10 17 15c58 67 131 110 216 131c13 3 26 5 39 5c21 0 41 -4 61 -12c50 -21 80 -67 80 -120c0 -6 0 -13 -1 -19c-6 -44 -26 -81 -51 -116c-23 -34 -53 -62 -84 -89c-41 -36 -84 -69 -130 -98c-24 -15 -49 -28 -78 -32c-3 -1 -7 -1 -10 -1
c-25 0 -48 16 -56 38c-2 6 -3 12 -3 18c0 19 10 37 28 44c49 19 89 53 130 84c37 28 74 57 102 95c12 17 25 34 31 55c2 7 3 13 3 17c0 13 -8 19 -28 21c-5 0 -11 1 -16 1c-23 0 -44 -4 -65 -11c-65 -22 -122 -56 -169 -105c-8 -9 -17 -18 -17 -30c0 -3 1 -6 2 -9v-2
c0 -4 -1 -8 -3 -10c-11 -12 -9 -27 -10 -42c-5 -85 -9 -170 -9 -255c1 -61 3 -123 6 -184c0 -14 2 -28 8 -41c2 -3 3 -6 3 -9c0 -6 -5 -10 -13 -12c-5 -1 -10 -2 -15 -2c-14 0 -28 6 -40 16c-22 19 -34 45 -42 72c-10 31 -14 63 -17 95c-4 43 -6 86 -6 129c0 36 2 73 4 109
c3 32 3 63 5 95c5 63 7 127 13 338c1 20 6 38 20 52c12 12 26 18 41 18c20 0 39 -11 49 -33c5 -10 8 -21 8 -32c0 -3 -1 -6 -1 -9c-3 -153 -4 -159 -4 -164c0 -3 1 -7 2 -11z" />
    <glyph glyph-name="ydieresis" unicode="&#xff;" horiz-adv-x="531" 
d="M391 232c-33 -71 -78 -133 -120 -197c-10 -16 -22 -32 -35 -47c-21 -26 -48 -39 -74 -39c-32 0 -63 19 -82 54c-20 38 -25 81 -27 123c-1 16 -2 32 -2 48c0 29 2 58 6 87c2 11 4 23 9 34c10 21 30 35 52 35c3 0 6 -1 9 -1c26 -3 46 -25 49 -52v-9c0 -7 -1 -15 -2 -22
c-5 -24 -7 -48 -7 -72c0 -27 3 -54 6 -81c0 -3 1 -6 2 -9c2 -7 4 -10 7 -10c2 0 5 1 9 4c18 12 34 28 48 45c45 51 84 106 123 162c6 10 11 20 13 32c4 31 24 51 51 53h6c23 0 45 -16 55 -41c8 -21 13 -43 17 -66c14 -72 23 -144 23 -216c0 -16 0 -31 -1 -47
c-6 -102 -39 -195 -98 -279c-28 -38 -63 -70 -103 -96c-21 -14 -44 -25 -70 -27h-8c-34 0 -59 23 -59 55c0 3 0 7 1 10c1 9 5 14 10 14c3 0 6 -2 10 -5c6 -4 11 -6 15 -6c6 0 11 3 16 8c15 14 31 28 43 44c40 49 75 101 99 160c21 55 30 110 30 167c0 14 -1 28 -2 42
c-3 46 -8 91 -17 136c-1 3 -2 6 -2 9zM254 526c0 -35 -10 -63 -35 -85c-12 -11 -26 -17 -40 -17c-15 0 -31 7 -44 21c-7 7 -12 16 -15 26c-6 15 -9 30 -9 45s3 30 8 45c10 29 32 47 59 47c12 0 24 -4 37 -12c27 -17 39 -39 39 -67v-3zM466 526c0 -35 -10 -63 -35 -85
c-12 -11 -26 -17 -40 -17c-15 0 -31 7 -44 21c-7 7 -12 16 -15 26c-6 15 -9 30 -9 45s3 30 8 45c10 29 32 47 59 47c12 0 24 -4 37 -12c27 -17 39 -39 39 -67v-3z" />
    <glyph glyph-name="idotless" unicode="&#x131;" horiz-adv-x="193" 
d="M64 121c2 49 3 91 5 132c1 9 2 17 5 26c6 23 26 39 49 40h5c23 0 42 -13 52 -34c5 -11 7 -23 7 -35c0 -6 0 -12 -1 -18c-2 -32 -4 -63 -4 -95c0 -46 3 -92 9 -138c1 -9 2 -18 2 -27c0 -7 -1 -13 -1 -20c-2 -24 -16 -37 -37 -37h-7c-15 1 -27 8 -38 18
c-18 18 -28 42 -34 66c-10 43 -10 86 -12 122z" />
    <glyph glyph-name="gravecomb" unicode="&#x300;" horiz-adv-x="292" 
d="M51 962c0 26 19 43 42 43c4 0 8 0 12 -1c14 -4 25 -12 35 -23c9 -11 18 -22 28 -32c31 -36 62 -71 89 -110c13 -17 24 -35 30 -55c1 -3 2 -7 2 -11c0 -3 -1 -6 -5 -9c-1 -1 -3 -1 -4 -1c-4 0 -8 4 -12 7c-29 20 -57 39 -85 59c-40 29 -76 61 -112 94
c-11 10 -20 23 -20 37v2z" />
    <glyph glyph-name="acutecomb" unicode="&#x301;" horiz-adv-x="292" 
d="M291 959c0 -13 -8 -26 -19 -36c-36 -33 -73 -65 -113 -94c-28 -20 -56 -39 -84 -59c-4 -3 -8 -7 -13 -7c-1 0 -3 0 -4 1c-4 3 -5 6 -5 9c0 4 1 8 2 11c6 20 18 38 30 55c27 39 58 74 90 110c9 10 18 21 27 32c10 11 21 19 35 23c4 1 8 1 12 1c23 0 42 -17 42 -43v-3z" />
    <glyph glyph-name="circumflexcomb" unicode="&#x302;" horiz-adv-x="424" 
d="M379 766c-17 1 -32 7 -46 15c-25 14 -44 34 -60 56c-16 21 -31 44 -47 65c-5 7 -8 11 -12 11c-3 0 -6 -4 -12 -11c-14 -22 -25 -46 -36 -69c-5 -9 -10 -20 -17 -28c-11 -14 -27 -21 -42 -21c-10 0 -20 3 -29 10c-14 10 -21 24 -21 39c0 12 4 23 12 34c13 16 27 30 42 45
c20 21 39 42 61 62c21 19 42 28 63 28c23 0 46 -11 67 -35c11 -13 20 -27 29 -42c18 -31 36 -61 54 -92c8 -12 16 -25 27 -35c5 -5 8 -9 8 -12c0 -5 -4 -9 -11 -13c-9 -5 -19 -7 -30 -7z" />
    <glyph glyph-name="tildecomb" unicode="&#x303;" horiz-adv-x="457" 
d="M322 761c-43 5 -81 24 -104 66c-7 13 -13 27 -19 41c-3 5 -5 7 -8 7s-6 -2 -9 -5c-12 -14 -23 -30 -33 -46c-9 -17 -22 -27 -41 -27h-7c-22 4 -36 18 -42 39c-3 9 -5 18 -5 27c0 17 6 33 15 48c22 38 53 67 92 86c15 7 29 10 42 10c25 0 48 -11 67 -33
c11 -11 19 -23 25 -37c13 -27 25 -54 37 -82c6 -14 10 -19 22 -19c2 0 5 1 8 1c20 3 36 12 51 24l30 27c2 2 4 3 6 3s3 -1 5 -2c3 -2 3 -5 3 -8c0 -1 0 -2 -1 -3c-6 -58 -71 -117 -132 -117h-2z" />
    <glyph glyph-name="macroncomb" unicode="&#x304;" horiz-adv-x="455" 
d="M278 943c30 -1 60 0 89 -5c20 -4 39 -10 55 -22c14 -10 25 -24 28 -41c1 -3 1 -7 1 -10c0 -15 -9 -29 -23 -35c-4 -2 -7 -3 -11 -3c-2 0 -4 0 -6 1c-11 7 -23 5 -35 6c-27 2 -55 4 -82 5h-13c-44 0 -89 -5 -133 -11c-12 -1 -23 -2 -34 -2h-13c-24 2 -41 15 -45 35
c-1 4 -2 8 -2 12c0 16 10 29 23 40c13 9 28 14 43 17c49 7 97 13 146 13h12z" />
    <glyph glyph-name="dotaccentcomb" unicode="&#x307;" horiz-adv-x="197" 
d="M196 889c0 -35 -10 -63 -35 -85c-12 -11 -26 -17 -40 -17c-15 0 -31 7 -44 21c-7 7 -12 16 -15 26c-6 15 -9 30 -9 45s3 30 8 45c10 29 32 47 59 47c12 0 24 -4 37 -12c27 -17 39 -39 39 -67v-3z" />
    <glyph glyph-name="dieresiscomb" unicode="&#x308;" horiz-adv-x="409" 
d="M196 889c0 -35 -10 -63 -35 -85c-12 -11 -26 -17 -40 -17c-15 0 -31 7 -44 21c-7 7 -12 16 -15 26c-6 15 -9 30 -9 45s3 30 8 45c10 29 32 47 59 47c12 0 24 -4 37 -12c27 -17 39 -39 39 -67v-3zM408 889c0 -35 -10 -63 -35 -85c-12 -11 -26 -17 -40 -17
c-15 0 -31 7 -44 21c-7 7 -12 16 -15 26c-6 15 -9 30 -9 45s3 30 8 45c10 29 32 47 59 47c12 0 24 -4 37 -12c27 -17 39 -39 39 -67v-3z" />
    <glyph glyph-name="ringcomb" unicode="&#x30a;" horiz-adv-x="367" 
d="M366 898c0 -22 -7 -42 -16 -62c-23 -46 -60 -78 -107 -98c-16 -7 -33 -10 -50 -10c-53 0 -108 31 -127 95c-5 18 -7 35 -7 52c0 36 11 71 29 105c7 12 15 24 25 34c15 18 32 27 51 27c14 0 29 -6 43 -16c4 -3 9 -5 14 -5c1 0 3 0 5 1c8 2 16 2 24 2
c60 0 112 -46 116 -109v-16zM176 864c0 -14 4 -26 10 -38c7 -13 14 -18 24 -18c4 0 9 1 15 3c22 8 40 22 53 41c8 11 12 23 12 36c0 8 -1 15 -4 23c-8 22 -26 36 -46 47c-2 1 -5 2 -6 2c-5 0 -8 -3 -9 -8c-4 -14 -14 -24 -25 -34c-16 -14 -22 -33 -24 -54z" />
    <glyph glyph-name="caroncomb" unicode="&#x30c;" horiz-adv-x="424" 
d="M379 1003c11 -1 21 -3 30 -8c7 -4 11 -8 11 -13c0 -3 -3 -7 -8 -12c-11 -10 -19 -22 -27 -35c-18 -31 -36 -61 -54 -92c-9 -14 -18 -29 -29 -42c-21 -24 -44 -35 -67 -35c-21 0 -42 9 -63 28c-22 20 -41 42 -61 63c-15 14 -29 29 -42 45c-8 10 -12 22 -12 33
c0 15 7 29 21 39c9 7 19 10 29 10c15 0 31 -7 42 -21c7 -8 12 -18 17 -28c11 -23 22 -47 36 -69c6 -7 9 -10 12 -10c4 0 7 3 12 10c16 22 31 44 47 65c16 22 35 42 60 56c14 9 29 14 46 16z" />
    <glyph glyph-name="cedillacomb" unicode="&#x327;" horiz-adv-x="379" 
d="M137 -106c6 1 12 1 18 1c18 0 35 -3 53 -3c7 0 14 1 21 2c16 2 24 5 24 12c0 4 -4 11 -11 20c-20 26 -44 49 -70 69c-5 4 -10 6 -14 10c-11 9 -16 20 -16 32s5 23 17 32c12 10 26 13 41 13h6c24 -3 46 -10 66 -24c51 -36 88 -83 99 -146c1 -7 2 -14 2 -21
c0 -32 -15 -60 -41 -81c-15 -12 -32 -21 -50 -25c-26 -6 -52 -10 -78 -10c-24 0 -48 3 -72 9c-23 6 -44 17 -60 35c-9 9 -15 20 -18 33c-1 3 -1 6 -1 9c0 19 11 31 32 33h52z" />
    <glyph glyph-name="endash" unicode="&#x2013;" horiz-adv-x="654" 
d="M394 319c61 0 112 0 162 -10c24 -5 45 -14 65 -28c13 -10 22 -22 27 -38c1 -4 2 -8 2 -11c0 -16 -10 -27 -29 -30c-20 -3 -41 -4 -61 -4c-25 0 -50 1 -75 3c-27 2 -54 2 -80 2c-27 0 -53 0 -80 -2c-44 -3 -88 -5 -132 -12c-16 -2 -33 -5 -49 -8c-7 -1 -15 -2 -23 -2
c-5 0 -9 0 -14 1c-27 5 -44 28 -44 52c0 11 4 23 12 33c12 16 29 25 49 30c41 10 82 14 124 17c44 3 87 7 125 7h21z" />
    <glyph glyph-name="emdash" unicode="&#x2014;" horiz-adv-x="936" 
d="M555 319c88 0 164 0 238 -10c34 -5 66 -14 94 -28c20 -10 33 -22 40 -38c2 -4 3 -8 3 -11c0 -16 -15 -27 -42 -30c-30 -3 -60 -4 -90 -4c-37 0 -73 1 -110 3c-39 2 -78 2 -117 2c-40 0 -79 0 -118 -2c-65 -3 -129 -5 -193 -12c-24 -2 -48 -5 -72 -8c-11 -1 -23 -2 -34 -2
c-7 0 -14 0 -21 1c-40 5 -64 28 -64 52c0 11 6 23 17 33c19 16 44 25 73 30c59 10 120 14 181 17c64 3 128 7 184 7h31z" />
    <glyph glyph-name="quoteleft" unicode="&#x2018;" horiz-adv-x="192" 
d="M51 590c2 48 20 88 59 118c17 12 34 18 55 18h5c12 -1 17 -5 17 -11c0 -3 -1 -8 -5 -13c-16 -24 -24 -49 -24 -76c0 -14 2 -28 7 -43c2 -6 3 -12 3 -18v-6c0 -23 -14 -43 -34 -51c-6 -2 -12 -3 -19 -3c-16 0 -33 7 -44 21c-14 18 -20 37 -20 59v5z" />
    <glyph glyph-name="quoteright" unicode="&#x2019;" horiz-adv-x="192" 
d="M192 641c-3 -48 -20 -88 -59 -118c-17 -12 -35 -18 -55 -18h-5c-12 1 -18 5 -18 11c0 3 1 8 5 13c16 24 25 50 25 76c0 14 -3 28 -7 43c-2 6 -3 12 -4 18v5c0 23 13 44 34 52c6 2 12 3 19 3c17 0 34 -7 45 -21c15 -19 20 -40 20 -64z" />
    <glyph glyph-name="quotesinglbase" unicode="&#x201a;" horiz-adv-x="192" 
d="M192 -89c-3 -48 -20 -88 -59 -118c-17 -12 -35 -18 -55 -18h-5c-12 1 -18 5 -18 11c0 3 1 8 5 13c16 24 25 50 25 76c0 14 -3 28 -7 43c-2 6 -3 12 -4 18v5c0 23 13 44 34 52c6 2 12 3 19 3c17 0 34 -7 45 -21c15 -19 20 -40 20 -64z" />
    <glyph glyph-name="quotedblleft" unicode="&#x201c;" horiz-adv-x="336" 
d="M51 590c2 48 20 88 59 118c17 12 34 18 55 18h5c12 -1 17 -5 17 -11c0 -3 -1 -8 -5 -13c-16 -24 -24 -49 -24 -76c0 -14 2 -28 7 -43c2 -6 3 -12 3 -18v-6c0 -23 -14 -43 -34 -51c-6 -2 -12 -3 -19 -3c-16 0 -33 7 -44 21c-14 18 -20 37 -20 59v5zM195 590
c2 48 20 88 59 118c17 12 34 18 55 18h5c12 -1 17 -5 17 -11c0 -3 -1 -8 -5 -13c-16 -24 -24 -49 -24 -76c0 -14 2 -28 7 -43c2 -6 3 -12 3 -18v-6c0 -23 -14 -43 -34 -51c-6 -2 -12 -3 -19 -3c-16 0 -33 7 -44 21c-14 18 -20 37 -20 59v5z" />
    <glyph glyph-name="quotedblright" unicode="&#x201d;" horiz-adv-x="330" 
d="M330 641c-3 -48 -20 -88 -59 -118c-17 -12 -35 -18 -55 -18h-5c-12 1 -18 5 -18 11c0 3 1 8 5 13c16 24 25 50 25 76c0 14 -3 28 -7 43c-2 6 -3 12 -4 18v5c0 23 13 44 34 52c6 2 12 3 19 3c17 0 34 -7 45 -21c15 -19 20 -40 20 -64zM192 641c-3 -48 -20 -88 -59 -118
c-17 -12 -35 -18 -55 -18h-5c-12 1 -18 5 -18 11c0 3 1 8 5 13c16 24 25 50 25 76c0 14 -3 28 -7 43c-2 6 -3 12 -4 18v5c0 23 13 44 34 52c6 2 12 3 19 3c17 0 34 -7 45 -21c15 -19 20 -40 20 -64z" />
    <glyph glyph-name="quotedblbase" unicode="&#x201e;" horiz-adv-x="331" 
d="M331 -89c-3 -48 -20 -88 -59 -118c-17 -12 -35 -18 -55 -18h-5c-12 1 -18 5 -18 11c0 3 1 8 5 13c16 24 25 50 25 76c0 14 -3 28 -7 43c-2 6 -3 12 -4 18v5c0 23 13 44 34 52c6 2 12 3 19 3c17 0 34 -7 45 -21c15 -19 20 -40 20 -64zM192 -89c-3 -48 -20 -88 -59 -118
c-17 -12 -35 -18 -55 -18h-5c-12 1 -18 5 -18 11c0 3 1 8 5 13c16 24 25 50 25 76c0 14 -3 28 -7 43c-2 6 -3 12 -4 18v5c0 23 13 44 34 52c6 2 12 3 19 3c17 0 34 -7 45 -21c15 -19 20 -40 20 -64z" />
    <glyph glyph-name="dagger" unicode="&#x2020;" horiz-adv-x="548" 
d="M225 195c2 49 3 97 5 146v21c0 19 -1 25 -11 25c-4 0 -9 -1 -16 -2c-19 -3 -38 -8 -57 -15c-9 -3 -18 -6 -27 -8c-3 -1 -7 -1 -10 -1c-20 0 -39 11 -48 28c-4 8 -7 17 -7 26c0 13 5 27 14 38c14 17 34 26 54 32c26 9 53 14 81 19c5 1 11 1 16 2c17 4 19 6 20 24
c1 31 2 62 5 92c3 36 25 57 57 57h4c30 -2 50 -23 53 -57c1 -8 1 -17 1 -25c0 -14 -1 -27 -2 -41c-1 -9 -2 -16 -2 -21c0 -16 7 -16 36 -16h19c21 0 42 -1 63 -6c19 -5 36 -12 50 -26c11 -11 16 -21 16 -31c0 -13 -10 -24 -28 -32c-24 -10 -50 -13 -76 -15
c-21 -3 -42 -4 -63 -5c-21 -2 -22 -3 -24 -24c-3 -44 -4 -88 -4 -132v-104c-1 -45 -3 -89 -9 -132c-3 -26 -9 -51 -14 -77c-3 -10 -7 -16 -14 -16c-4 0 -9 2 -14 5c-13 8 -22 20 -29 33c-22 39 -30 81 -34 125c-3 32 -5 65 -5 98v15z" />
    <glyph glyph-name="daggerdbl" unicode="&#x2021;" horiz-adv-x="582" 
d="M459 378c-25 0 -49 3 -74 4c-21 0 -22 -2 -23 -23v-66c1 -18 3 -21 21 -21c16 -1 33 0 49 -2c34 -2 66 -10 94 -29c9 -6 17 -14 23 -23c4 -7 6 -13 6 -18c0 -9 -6 -16 -19 -21c-38 -15 -77 -21 -118 -23h-35c-18 -1 -20 -3 -21 -21c0 -34 -4 -66 -10 -99
c-4 -25 -10 -49 -17 -73c-2 -8 -3 -19 -14 -21h-2c-10 0 -14 8 -20 16c-11 16 -18 34 -24 53c-13 37 -21 76 -24 115c-2 18 -2 23 -13 23c-4 0 -8 0 -14 -1c-15 -2 -29 -3 -43 -5c-4 -1 -8 -1 -12 -1c-7 0 -15 1 -23 4c-24 8 -37 29 -37 51c0 12 4 24 13 35
c15 18 36 25 58 28c17 3 33 5 49 6c12 1 17 6 17 17v71c0 14 -3 19 -13 19c-2 0 -4 -1 -7 -1c-26 -3 -53 -7 -79 -13c-11 -3 -23 -5 -34 -5h-6c-22 3 -40 12 -49 35c-2 7 -4 13 -4 20c0 15 7 28 19 40c13 13 29 19 46 23c31 7 62 12 93 16c6 1 11 1 17 2c13 2 18 9 19 22
c2 27 3 55 3 82c0 16 4 30 14 42c12 14 28 21 43 21c22 0 42 -13 52 -36c4 -11 6 -23 6 -35v-61c0 -26 1 -28 26 -28s49 -2 73 -4c20 -3 39 -7 57 -14c19 -8 35 -19 45 -37c5 -8 7 -16 7 -23c0 -16 -11 -29 -29 -35c-12 -4 -24 -6 -37 -6h-49z" />
    <glyph glyph-name="bullet" unicode="&#x2022;" horiz-adv-x="340" 
d="M195 206c-41 0 -75 14 -103 42s-42 63 -42 103s15 74 43 102s62 42 102 42s74 -14 102 -43c28 -28 43 -62 43 -101c0 -40 -15 -74 -43 -103c-29 -28 -63 -42 -102 -42z" />
    <glyph glyph-name="ellipsis" unicode="&#x2026;" horiz-adv-x="1000" 
d="M158 -59c0 -28 -25 -52 -53 -52c-30 0 -55 24 -55 53s23 54 52 54h2c28 0 54 -26 54 -53v-2zM491 -59c0 -28 -25 -52 -53 -52c-30 0 -55 24 -55 53s23 54 52 54h2c28 0 54 -26 54 -53v-2zM824 -59c0 -28 -25 -52 -53 -52c-30 0 -55 24 -55 53s23 54 52 54h2
c28 0 54 -26 54 -53v-2z" />
    <glyph glyph-name="guilsinglleft" unicode="&#x2039;" horiz-adv-x="501" 
d="M194 247c11 -9 22 -12 32 -16c50 -21 100 -42 147 -69c23 -13 44 -29 63 -49c7 -8 13 -16 16 -26c2 -5 3 -10 3 -14c0 -11 -7 -17 -22 -17h-3c-17 0 -34 2 -51 5c-87 18 -170 48 -249 86c-16 8 -30 18 -42 30c-19 19 -29 42 -29 65c0 19 7 39 20 57c23 31 54 51 88 67
c69 33 141 61 215 83c16 5 32 9 49 10c24 0 44 -10 57 -31c6 -11 9 -22 9 -32c0 -12 -3 -23 -9 -34c-10 -19 -28 -30 -49 -30c-4 0 -8 0 -12 1c-5 1 -11 2 -16 2c-4 0 -8 -1 -12 -2c-67 -23 -134 -46 -197 -80c-2 -1 -3 -3 -8 -6z" />
    <glyph glyph-name="guilsinglright" unicode="&#x203a;" horiz-adv-x="501" 
d="M357 267c-11 9 -22 12 -32 16c-50 21 -100 42 -147 69c-23 13 -45 30 -63 49c-7 8 -13 16 -17 26c-2 5 -3 10 -3 14c0 11 8 17 22 17h3c18 0 35 -2 52 -5c87 -18 169 -47 249 -86c16 -8 30 -18 42 -30c19 -19 29 -41 29 -64c0 -20 -7 -40 -21 -58
c-22 -31 -53 -51 -87 -67c-69 -33 -141 -61 -215 -83c-16 -5 -32 -9 -49 -9h-3c-23 0 -42 11 -54 31c-6 11 -9 21 -9 32s3 22 8 33c11 19 29 30 50 30c4 0 8 0 12 -1c5 -1 11 -2 16 -2c4 0 8 1 12 2c67 23 134 46 196 80c2 1 4 3 9 6z" />
    <glyph glyph-name="fraction" unicode="&#x2044;" horiz-adv-x="431" 
d="M51 -68c1 59 12 116 29 172c24 85 57 167 93 247c37 81 75 161 112 242c10 22 18 45 27 68c3 7 6 15 10 22c11 18 29 29 48 29c6 0 12 -1 18 -3c24 -8 40 -29 40 -54c0 -3 -1 -6 -1 -9c-1 -12 -5 -24 -10 -36c-13 -40 -31 -78 -49 -115c-70 -143 -130 -290 -193 -436
c-17 -41 -38 -81 -56 -122c-12 -24 -25 -48 -29 -75c-1 -7 -5 -10 -9 -10c-3 0 -6 1 -10 3c-8 6 -12 14 -15 23c-4 14 -5 27 -5 41v13z" />
    <glyph glyph-name="fraction" unicode="&#x2215;" horiz-adv-x="431" 
d="M51 -68c1 59 12 116 29 172c24 85 57 167 93 247c37 81 75 161 112 242c10 22 18 45 27 68c3 7 6 15 10 22c11 18 29 29 48 29c6 0 12 -1 18 -3c24 -8 40 -29 40 -54c0 -3 -1 -6 -1 -9c-1 -12 -5 -24 -10 -36c-13 -40 -31 -78 -49 -115c-70 -143 -130 -290 -193 -436
c-17 -41 -38 -81 -56 -122c-12 -24 -25 -48 -29 -75c-1 -7 -5 -10 -9 -10c-3 0 -6 1 -10 3c-8 6 -12 14 -15 23c-4 14 -5 27 -5 41v13z" />
    <glyph glyph-name="frenchfrancsign" unicode="&#x20a3;" horiz-adv-x="397" 
d="M322 455c-12 -37 -18 -70 -21 -104v-2c0 -9 6 -13 14 -16c19 -5 37 -14 53 -25c11 -7 19 -17 24 -29c1 -4 2 -8 2 -10c0 -8 -5 -12 -18 -13c-19 -1 -38 -2 -56 -5c-20 -3 -24 -4 -24 -21v-8c0 -36 0 -72 3 -108c2 -27 1 -54 2 -81c1 -29 3 -59 26 -83c3 -3 4 -6 4 -9
c0 -5 -5 -9 -14 -10h-7c-19 0 -37 8 -52 21c-21 19 -36 43 -47 69c-18 44 -27 91 -30 138c-1 20 -2 41 -4 61c-1 14 -3 19 -13 19c-2 0 -4 -1 -7 -1c-21 -3 -41 -5 -62 -5c-15 0 -30 4 -37 19c-3 7 -5 13 -5 19c0 10 4 19 11 28c13 18 32 27 52 35c14 5 29 7 44 9
c22 4 23 5 25 26c5 40 12 80 24 118c8 26 18 51 32 73c17 27 41 42 68 42c5 0 10 -1 16 -2c35 -8 61 -36 65 -74c1 -6 1 -11 1 -17c0 -23 -5 -45 -12 -67c-3 -10 -7 -20 -19 -22h-2c-11 0 -17 7 -23 15c-4 5 -7 11 -13 20z" />
    <glyph glyph-name="lirasign" unicode="&#x20a4;" horiz-adv-x="572" 
d="M289 153c-7 -2 -14 -4 -23 -7c-3 -22 -8 -44 -15 -65c0 -1 0 -3 -1 -6v-6c45 7 88 12 130 15c13 1 25 2 38 2c20 0 40 -2 61 -5c22 -3 42 -11 60 -24c12 -8 20 -18 25 -31c1 -4 2 -8 2 -12c0 -14 -9 -24 -26 -29c-56 -10 -112 -16 -169 -19c-63 -2 -123 -14 -182 -36
c-11 -4 -21 -6 -32 -6c-22 1 -37 7 -44 18s-11 21 -11 30s2 17 6 27c7 16 18 28 33 35c12 5 17 13 17 24c0 3 0 7 -1 10c-3 21 -4 43 -5 64v1c-1 2 -4 2 -9 2h-5c-15 0 -29 1 -43 4c-19 5 -31 12 -34 21c-4 9 -6 16 -6 20c0 10 4 21 12 32c17 21 38 34 65 39c10 3 17 5 22 7
c2 1 4 2 5 3c-1 1 -1 1 -1 2c-1 2 -4 2 -9 2h-5c-15 0 -29 1 -43 4c-19 5 -31 12 -34 21c-4 9 -6 16 -6 20c0 10 4 21 12 32c17 21 38 34 65 39c10 3 17 5 22 7s8 5 9 10s2 12 3 22c3 46 8 91 15 136c5 24 11 48 20 71c7 19 19 34 34 47c14 11 29 17 44 17c4 0 7 0 11 -1
c19 -3 35 -14 47 -33c10 -16 18 -33 24 -51c2 -5 3 -9 3 -14c-1 -5 -3 -9 -7 -12c-3 -3 -7 -4 -10 -4h-2c-4 1 -8 2 -13 4l-1 1c-1 0 -2 0 -3 1c-6 3 -11 4 -13 4h-2c-3 -1 -6 -6 -8 -15c-4 -13 -7 -27 -10 -41c-6 -37 -10 -75 -12 -113c0 -4 -1 -7 -1 -10c0 -6 1 -10 3 -12
c2 -3 9 -6 20 -7c30 -5 58 -15 85 -30c14 -7 24 -17 31 -30c2 -4 3 -7 3 -10c0 -7 -5 -11 -15 -11c-25 -2 -49 -7 -73 -14c-15 -4 -31 -7 -47 -10c-10 -3 -15 -9 -16 -18c8 -3 17 -6 26 -7c30 -5 58 -15 85 -30c14 -7 24 -17 31 -30c2 -4 3 -7 3 -10c0 -7 -5 -11 -15 -11
c-25 -2 -49 -7 -73 -14c-15 -4 -31 -7 -47 -10z" />
    <glyph glyph-name="euro" unicode="&#x20ac;" horiz-adv-x="566" 
d="M351 558c-10 -3 -12 -10 -16 -14c-25 -33 -42 -69 -55 -107c-2 -6 -3 -10 -3 -13c0 -7 5 -9 17 -10c21 -2 41 -6 61 -12c17 -4 34 -12 49 -22c6 -5 12 -10 16 -17s6 -13 6 -18c0 -10 -8 -17 -23 -18c-31 -2 -61 -6 -92 -6c-13 0 -25 -1 -38 -3c-8 -1 -22 2 -22 -11v-3
c1 -8 6 -9 11 -9h26c5 0 10 0 14 -1c25 -1 50 -6 73 -18c6 -3 12 -7 17 -12c6 -6 10 -12 10 -17c0 -7 -6 -13 -17 -18c-28 -12 -58 -20 -88 -26l-33 -6c-13 -3 -17 -5 -17 -13c0 -3 0 -6 1 -11c3 -20 8 -39 17 -57c10 -20 26 -30 49 -30c35 0 67 10 99 22
c42 15 84 30 125 49c3 2 7 3 11 4c2 1 4 1 5 1c7 0 10 -4 10 -11v-4c-2 -6 -4 -12 -7 -18c-10 -22 -25 -40 -44 -55c-57 -46 -122 -78 -195 -89c-8 -1 -17 -2 -25 -2c-46 0 -85 22 -116 61c-23 28 -34 62 -42 97c-1 7 -3 15 -4 23c-2 10 -7 15 -18 15c-7 1 -15 3 -23 5
c-18 6 -27 18 -27 32c0 10 4 20 13 29c9 10 21 16 33 22c7 4 14 7 17 15c2 3 2 6 2 9c0 6 -4 10 -12 12c-9 1 -17 2 -26 4c-20 5 -30 18 -30 34c0 9 3 19 11 28c14 17 34 28 56 33c17 4 25 14 30 31c18 64 45 124 87 177c16 22 36 39 60 52c18 10 35 14 52 14
c37 0 70 -22 90 -50c11 -16 18 -33 20 -52c0 -3 1 -6 1 -9c0 -22 -10 -39 -29 -48c-9 -5 -18 -7 -27 -7c-15 0 -29 6 -41 17c-9 9 -14 19 -19 31z" />
    <glyph glyph-name="numerosign" unicode="&#x2116;" horiz-adv-x="1273" 
d="M188 23c10 27 20 52 30 76c25 64 60 123 93 183c70 126 149 245 234 360c18 25 40 45 68 58c17 7 33 11 49 11c38 0 71 -20 92 -58c22 -37 28 -79 30 -120c2 -38 3 -76 3 -114c0 -21 0 -41 -1 -61c-1 -29 -2 -58 -2 -87c0 -30 1 -59 1 -88c1 -73 4 -146 14 -219
c1 -9 3 -18 4 -28c2 -7 6 -11 11 -11c2 0 4 0 6 1c3 1 5 1 7 2c4 1 7 1 10 1c11 0 17 -6 17 -17c0 -3 0 -6 -1 -10c-3 -19 -9 -38 -20 -54c-14 -19 -34 -29 -55 -29c-15 0 -30 5 -43 16c-22 18 -33 42 -40 68c-13 44 -17 90 -21 135c-4 51 -5 102 -5 154c0 51 1 102 1 153
c0 53 0 106 -1 158c0 23 -3 46 -8 68c-2 12 -5 16 -9 16s-8 -1 -14 -5c-33 -17 -58 -43 -82 -71c-63 -73 -112 -155 -149 -245c-41 -96 -73 -196 -114 -292c-16 -38 -31 -76 -57 -109c-18 -22 -42 -34 -66 -34c-12 0 -24 3 -35 9c-21 11 -33 30 -42 52c-12 30 -18 62 -23 94
c-9 66 -13 132 -16 198c-1 25 -2 50 -2 76c0 47 2 95 4 143c2 58 7 116 18 174c2 14 6 29 13 42c13 26 35 39 58 39c21 0 41 -10 55 -31c9 -12 16 -26 19 -41c1 -7 2 -13 2 -20c0 -19 -7 -36 -26 -48c-12 -9 -15 -19 -16 -32c-7 -69 -10 -138 -10 -208c0 -36 1 -72 2 -108
c1 -44 6 -88 10 -132c0 -4 0 -9 7 -15zM1206 301c0 51 -26 87 -63 119c-6 5 -12 7 -19 7c-5 0 -11 -1 -16 -3c-3 -1 -6 -3 -9 -3c-2 0 -4 1 -6 4c-1 1 -1 3 -1 4c0 4 3 7 5 11c11 15 25 23 44 24h5c8 0 17 -2 25 -5c55 -19 102 -89 102 -148v-10c-8 -74 -32 -142 -81 -199
c-32 -37 -73 -62 -121 -74c-10 -2 -19 -3 -29 -3c-31 0 -60 12 -85 33c-38 31 -56 73 -62 121c-2 15 -3 29 -3 44c0 65 18 127 45 188c8 16 19 29 33 39c12 9 27 14 42 14c21 0 41 -10 55 -28c8 -11 12 -24 12 -35c0 -18 -9 -34 -26 -45c-15 -9 -22 -21 -27 -37
c-10 -32 -17 -64 -17 -98v-6c0 -4 0 -8 1 -12c3 -43 25 -67 59 -67c10 0 22 2 34 6c52 18 82 58 98 110c3 12 5 24 5 36v13zM1149 -118c-29 0 -58 -1 -87 -4l-32 -2c-15 -1 -30 -4 -45 -7l-18 -4c-8 -2 -16 -3 -24 -3c-5 0 -9 0 -14 1c-6 1 -12 3 -17 7
c-12 11 -17 24 -17 41c0 13 3 26 11 37c5 8 12 14 19 17c19 11 38 18 57 20c29 6 58 10 87 11h8c14 0 29 -2 44 -5c14 -3 29 -7 43 -11c7 -2 13 -4 19 -5c20 -4 39 -13 57 -26c9 -6 17 -15 24 -26c2 -3 3 -7 5 -10c1 -3 2 -7 2 -12c0 -2 0 -4 -1 -7c-1 -6 -4 -9 -6 -10
c-3 -1 -6 -2 -9 -2c-12 -1 -24 -1 -35 -1c-17 0 -33 0 -49 1h-22z" />
    </font>
</defs>
</svg>
