<?xml version="1.0" encoding="UTF-8"?>
<svg xmlns="http://www.w3.org/2000/svg" xmlns:xlink="http://www.w3.org/1999/xlink" viewBox="0 0 512 512">
  <defs>
    <style>
      .cls-1 {
        fill: #b3d2ff;
      }

      .cls-2 {
        mix-blend-mode: multiply;
        opacity: .15;
      }

      .cls-2, .cls-3, .cls-4, .cls-5 {
        fill-rule: evenodd;
      }

      .cls-3 {
        fill: #fff;
      }

      .cls-4 {
        fill: #06f;
      }

      .cls-6 {
        isolation: isolate;
      }

      .cls-7 {
        fill: url(#linear-gradient);
      }

      .cls-5 {
        fill: #d0d5e8;
      }
    </style>
    <linearGradient id="linear-gradient" x1="-2.65" y1="755.92" x2="391.23" y2="-5.37" gradientUnits="userSpaceOnUse">
      <stop offset="0" stop-color="#06f"/>
      <stop offset=".7" stop-color="#0042b8"/>
      <stop offset="1" stop-color="#039"/>
    </linearGradient>
  </defs>
  <g class="cls-6">
    <g id="Layer_1">
      <g>
        <circle class="cls-7" cx="256" cy="256" r="256"/>
        <g>
          <g>
            <path class="cls-1" d="M174.23,145.85h163.59c15.64,0,28.34,12.7,28.34,28.34v163.59c0,15.67-12.72,28.39-28.39,28.39h-163.55c-15.67,0-28.39-12.72-28.39-28.39v-163.55c0-15.67,12.72-28.39,28.39-28.39Z" transform="translate(-106.04 256) rotate(-45)"/>
            <path class="cls-2" d="M120.3,235.92c-11.1,11.1-11.1,29.08,0,40.18l115.61,115.61c11.1,11.1,29.08,11.1,40.18,0l47.67-47.67-174.04-137.55-29.42,29.42Z"/>
            <path class="cls-2" d="M271.32,116.48c-9.43-2.17-19.74.38-27.09,7.73l-59.1,59.1-59.1,59.1c-9.36,9.36-10.97,23.5-4.9,34.53l101.66,101.66,138.78-138.78c7.27-7.27,9.65-17.57,7.19-26.84l-92.68-92.68c-1.48-1.48-3.08-2.74-4.77-3.83Z"/>
          </g>
          <g>
            <g>
              <path class="cls-4" d="M350.69,233.39c10.63-10.63,10.63-27.85,0-38.48l-74.6-74.6c-11.1-11.09-29.08-11.09-40.18,0l-57.8,57.8-57.81,57.81c-11.1,11.1-11.1,29.08,0,40.18l93.84,93.84,136.55-136.55Z"/>
              <path class="cls-2" d="M273.2,310.88l-118.95-108.91-33.95,33.95c-11.1,11.1-11.1,29.08,0,40.18l93.84,93.84,59.06-59.06Z"/>
              <path class="cls-2" d="M289.12,184.18c-9.29-10.33-26.15-10.33-37.34,0l-18.48,17.07-61.98,57.28c-6.98,6.45-6.97,16.75-.11,23.01l22.95,20.93c6.5,5.93,17.31,5.93,24.28,0l80.48-68.49c10.86-9.24,12.87-24.57,4.18-34.24l-13.98-15.56Z"/>
            </g>
            <g>
              <path class="cls-5" d="M275.84,183.35c-9.2-9.2-24.11-9.2-33.31,0l-15.57,15.57-55.88,55.88c-6.68,6.68-6.68,17.5,0,24.18l22.95,22.95c6.68,6.68,17.5,6.68,24.18,0l71.8-71.8c9-9,9-23.6,0-32.61l-14.17-14.17Z"/>
              <path class="cls-2" d="M186.98,238.89l-15.9,15.9c-6.68,6.68-6.68,17.5,0,24.18l22.95,22.95c6.68,6.68,17.5,6.68,24.18,0l19.71-19.71-50.93-43.32Z"/>
            </g>
            <path class="cls-3" d="M306.23,361.57l-155.79-155.79-30.14,30.14c-11.09,11.1-11.1,29.08,0,40.18l57.81,57.81,57.81,57.81c11.1,11.1,29.08,11.1,40.18,0l30.14-30.14Z"/>
          </g>
        </g>
      </g>
    </g>
  </g>
</svg>