<?xml version="1.0" encoding="UTF-8"?>
<svg id="Layer_1" xmlns="http://www.w3.org/2000/svg" xmlns:xlink="http://www.w3.org/1999/xlink" viewBox="0 0 512 512">
  <defs>
    <style>
      .cls-1 {
        fill: #fff;
      }

      .cls-2 {
        fill: url(#linear-gradient);
      }
    </style>
    <linearGradient id="linear-gradient" x1="-2.65" y1="755.92" x2="391.23" y2="-5.37" gradientUnits="userSpaceOnUse">
      <stop offset="0" stop-color="#06f"/>
      <stop offset=".7" stop-color="#0042b8"/>
      <stop offset="1" stop-color="#039"/>
    </linearGradient>
  </defs>
  <circle class="cls-2" cx="256" cy="256" r="256"/>
  <g>
    <path class="cls-1" d="M165.96,289.12c13,.93,23.13-13.48,18.92-25.54-4.54-13.98-22.8-16.5-31.04-4.39-7.74,10.48-1.55,28.77,12.12,29.94Z"/>
    <path class="cls-1" d="M375.76,113.37c-9.83-22.77-35.17-35.15-59.27-33.74-17.47.18-34.17,6.52-48.67,15.99-11.05,7.04-21.26,15.45-30.05,25.19-12.23,13.63-22.48,29.89-32.82,45.09-4.4,6.18-9.18,13.96-15.77,18.67-3.62,2.16-8.81,3.61-12.14.2-1.77-2.52-1.88-5.78-2.07-8.75-.17-4.01.24-8.05-.29-12.05-.56-4.61-4.54-7.68-9.01-5.55-4.85,2.71-7.62,7.94-10.03,12.74-9.19,18.98-13.8,43.04-2.71,62.18,8.68,14.74,28.23,15.23,40.63,4.93,21.11-17.23,27.18-45.37,42.53-66.91,4.32-6.23,9-12.32,14.82-17.23,12.95-10.85,32.28-16.87,41.7,1.44,4.49,10.23,1,21.95-3.6,31.54-6.39,12.75-16.06,23.46-26.37,33.17-15.44,14.35-32.35,27.01-48.39,40.67-22.15,18.5-43.12,38.76-58.98,63.03-5.73,8.29-11.13,17.8-15.31,27.15-2.87,6.32-5.43,12.84-6.78,19.68-2.38,12.78-2.35,26.67,2.89,38.77,5.93,12.74,18.85,21.72,32.89,22.68,28.59,2.86,42.17-23,46.6-47.35,2.64-14.26,2.43-28.82,3.6-43.23,1.5-20,6.54-40.73,18.15-57.47,6.07-8.6,13.34-16.42,21.82-22.69,12.73-9.11,27.06-15.7,40.82-23.09,9.13-4.75,18.33-9.46,26.98-15.05,13.22-9.23,25.49-20.23,34.82-33.45,14.64-21.48,24.96-51.4,14.01-76.56Z"/>
  </g>
</svg>